<svg id="Layer_1" data-name="Layer 1" xmlns="http://www.w3.org/2000/svg" xmlns:xlink="http://www.w3.org/1999/xlink" viewBox="0 0 128 128"><defs><linearGradient id="linear-gradient" x1="23.279" y1="26.831" x2="104.721" y2="108.274" gradientUnits="userSpaceOnUse"><stop offset="0" stop-color="#ffca6c"/><stop offset="1" stop-color="#ff654f"/></linearGradient></defs><title>360</title><path d="M53.554,52.747c0,2.772-2.451,4.742-6.253,4.742a8.534,8.534,0,0,1-6.527-2.635l2.244-2.587A5.746,5.746,0,0,0,47.1,53.984c1.58,0,2.451-.664,2.451-1.58,0-.984-.757-1.488-2.749-1.488l-1.854.023v-3.3H46.8c1.58.022,2.429-.5,2.429-1.421,0-.962-.939-1.535-2.359-1.535a5.059,5.059,0,0,0-3.573,1.672l-2.2-2.381a7.712,7.712,0,0,1,6.183-2.794c3.71,0,5.932,1.831,5.932,4.305a3.7,3.7,0,0,1-2.909,3.6A3.826,3.826,0,0,1,53.554,52.747Zm17-.8c0,3.32-2.68,5.518-6.183,5.518-4.7,0-6.916-3.228-6.916-7.855,0-4.992,2.909-8.427,7.512-8.427a7.839,7.839,0,0,1,4.946,1.649L68.1,45.786a4.674,4.674,0,0,0-3.115-1.192c-1.855,0-3.046,1.329-3.39,3.55a5.969,5.969,0,0,1,3.642-1.236A4.98,4.98,0,0,1,70.55,51.947Zm-4.007.16a2.231,2.231,0,0,0-2.5-2.062,2.647,2.647,0,0,0-2.451,1.512c.253,1.741.939,2.588,2.543,2.588A2.164,2.164,0,0,0,66.542,52.106Zm22.606-2.795c0,4.787-2.978,8.153-7.237,8.153-4.238,0-7.238-3.366-7.238-8.153,0-4.763,3-8.129,7.238-8.129C86.17,41.183,89.148,44.549,89.148,49.312Zm-4.009,0c0-2.679-1.327-4.579-3.228-4.579-1.878,0-3.207,1.9-3.207,4.579s1.329,4.6,3.207,4.6C83.812,53.915,85.139,51.992,85.139,49.312Zm36.567-1.6V86.546c0,10.778-15.213,16.519-26.194,16.519a2,2,0,0,1-2-2V73.156A100.825,100.825,0,0,0,64,68.476a95.477,95.477,0,0,0-29.512,4.676v27.913a2,2,0,0,1-2,2c-10.981,0-26.194-5.74-26.194-16.519V47.71c0-13.691,34.153-22.774,56.744-22.774h1.924C87.553,24.936,121.706,34.019,121.706,47.71ZM30.488,64.2c-.843-.038-1.661-.107-2.466-.191-.157-.016-.315-.031-.471-.049q-1.156-.134-2.258-.327c-.138-.024-.272-.052-.408-.077-.7-.132-1.394-.278-2.063-.444-.06-.015-.121-.027-.181-.042-.7-.178-1.375-.378-2.035-.591-.14-.045-.279-.09-.416-.136-.641-.216-1.265-.446-1.866-.693-.1-.041-.193-.084-.291-.125q-.835-.354-1.617-.745c-.081-.04-.165-.078-.245-.119-.551-.282-1.076-.58-1.585-.888-.113-.068-.224-.137-.335-.206-.5-.313-.983-.635-1.439-.97-.058-.042-.111-.087-.168-.129q-.632-.475-1.2-.975c-.074-.065-.151-.128-.223-.193-.322-.289-.633-.582-.925-.881V86.546c0,7.212,11.176,11.835,20.194,12.449V64.2Zm87.218-7.784c-.292.3-.6.592-.924.881-.073.065-.15.129-.225.194q-.572.5-1.2.972c-.058.044-.112.089-.171.132-.455.334-.937.656-1.436.968-.112.07-.225.14-.339.209-.507.307-1.032.6-1.581.885-.082.042-.168.081-.251.122q-.777.389-1.608.741c-.1.042-.2.087-.3.128-.6.246-1.221.476-1.86.691-.14.047-.281.093-.423.139-.658.212-1.331.412-2.029.59-.062.016-.127.029-.189.044-.666.165-1.351.311-2.051.442-.139.026-.275.054-.415.079q-1.1.193-2.253.326c-.158.018-.317.034-.476.05-.8.084-1.618.152-2.458.19h0V99c9.019-.614,20.194-5.237,20.194-12.449Zm0-8.7c0-9.492-30.2-18.774-52.744-18.774H63.038c-22.543,0-52.744,9.282-52.744,18.774a7.647,7.647,0,0,0,1.431,4.174c2.848,4.263,9.9,8.356,20.763,8.356a2,2,0,0,1,2,2v6.692A100.83,100.83,0,0,1,64,64.476a106.752,106.752,0,0,1,29.512,4.463v-6.7a2,2,0,0,1,2-2C109.993,60.24,117.706,52.963,117.706,47.71Z" style="fill:url(#linear-gradient)"/></svg>