<svg id="Layer_1" data-name="Layer 1" xmlns="http://www.w3.org/2000/svg" xmlns:xlink="http://www.w3.org/1999/xlink" viewBox="0 0 128 128"><defs><linearGradient id="linear-gradient" x1="28.775" y1="29.671" x2="95.034" y2="95.929" gradientUnits="userSpaceOnUse"><stop offset="0" stop-color="#ffca6c"/><stop offset="1" stop-color="#ff654f"/></linearGradient></defs><title>3D GLASSES</title><path d="M10.231,99.719H35.862a7.579,7.579,0,0,0,7.366-5.957,3.526,3.526,0,0,1,3.443-2.793h4.98a3.548,3.548,0,0,1,3.455,2.808,7.534,7.534,0,0,0,7.364,5.942H88.1a7.612,7.612,0,0,0,7.588-7.2l11.662-30.25c.013-.033.024-.066.035-.1a18.339,18.339,0,0,1,1.747-3.812l8.373-12.013,1.316,3.275a2,2,0,0,0,3.622.191l2.7-5.088a1.99,1.99,0,0,0,.205-1.27l-1.567-9.285a4.664,4.664,0,0,0-8.18-2.213h0L92.772,59.3H20.7l7.8-12.788,1.25,3.1a2,2,0,0,0,1.751,1.25,1.96,1.96,0,0,0,1.872-1.061l2.69-5.08a2,2,0,0,0,.205-1.268L34.7,34.165a4.669,4.669,0,0,0-8.187-2.207L3.087,60.018c-.014.017-.021.039-.035.056a1.991,1.991,0,0,0-.25.405c0,.01-.012.02-.016.03a1.986,1.986,0,0,0-.132.478c-.007.046-.01.092-.014.139s-.017.114-.017.173V92.11A7.618,7.618,0,0,0,10.231,99.719Zm85.48-37.7,22.961-27.5a.665.665,0,0,1,1.166.315l1.454,8.615-.363.684-.589-1.468a2.727,2.727,0,0,0-4.816-.47l-9.707,13.927q-.035.05-.067.1a22.316,22.316,0,0,0-2.148,4.656l-7.89,20.466Zm-66.124-27.5a.668.668,0,0,1,1.171.31l1.448,8.622-.358.677-.59-1.465a2.724,2.724,0,0,0-4.854-.407L16.662,58.232c-.21.346-.413.7-.607,1.067H8.9ZM6.622,63.3H91.707V92.11l0,.026A3.612,3.612,0,0,1,88.1,95.719H62.472a3.482,3.482,0,0,1-2.221-.784,3.578,3.578,0,0,1-1.232-2,7.564,7.564,0,0,0-7.366-5.965h-4.98a7.528,7.528,0,0,0-7.355,5.958,3.554,3.554,0,0,1-3.454,2.792H10.231A3.613,3.613,0,0,1,6.622,92.11Zm11.02,29.606H32.727a5.861,5.861,0,0,0,5.854-5.854V71.967a5.861,5.861,0,0,0-5.854-5.854H17.642a5.86,5.86,0,0,0-5.854,5.854V87.051A5.861,5.861,0,0,0,17.642,92.906ZM15.788,71.967a1.855,1.855,0,0,1,1.854-1.854H32.727a1.856,1.856,0,0,1,1.854,1.854V87.051a1.857,1.857,0,0,1-1.854,1.854H17.642a1.856,1.856,0,0,1-1.854-1.854ZM65.606,92.906H80.691a5.861,5.861,0,0,0,5.854-5.854V71.967a5.86,5.86,0,0,0-5.854-5.854H65.606a5.861,5.861,0,0,0-5.854,5.854V87.051A5.861,5.861,0,0,0,65.606,92.906ZM63.752,71.967a1.856,1.856,0,0,1,1.854-1.854H80.691a1.855,1.855,0,0,1,1.854,1.854V87.051a1.856,1.856,0,0,1-1.854,1.854H65.606a1.857,1.857,0,0,1-1.854-1.854Z" style="fill:url(#linear-gradient)"/></svg>