<svg id="Layer_1" data-name="Layer 1" xmlns="http://www.w3.org/2000/svg" xmlns:xlink="http://www.w3.org/1999/xlink" viewBox="0 0 128 128"><defs><linearGradient id="linear-gradient" x1="14.616" y1="14.616" x2="113.384" y2="113.384" gradientUnits="userSpaceOnUse"><stop offset="0" stop-color="#ffca6c"/><stop offset="1" stop-color="#ff654f"/></linearGradient></defs><title>4K MOVIE</title><path d="M8.286,106.225H119.714a2,2,0,0,0,2-2V23.775a2,2,0,0,0-2-2H8.286a2,2,0,0,0-2,2v80.45A2,2,0,0,0,8.286,106.225Zm29.705-4H28.518V90.065h9.474Zm17.272,0H41.991V90.065H55.264Zm13.473,0H59.264V90.065h9.473Zm17.272,0H72.736V90.065H86.009Zm13.474,0H90.009V90.065h9.474Zm18.231,0H103.482V90.065h14.231Zm-14.231-76.45h14.231v12.16H103.482Zm-13.474,0h9.474v12.16H90.009Zm-17.272,0H86.009v12.16H72.736Zm-13.473,0h9.473v12.16H59.264Zm-17.272,0H55.264v12.16H41.991Zm-13.474,0h9.474v12.16H28.518Zm-18.231,0H24.518v12.16H10.286Zm0,16.16H117.714V86.065H10.286Zm0,48.131H24.518v12.16H10.286Zm40.242-20.38v3.506H55.86V69.686h2.713v-3.8H55.86V54.836H49.374l-11.7,11.372.467,3.478Zm0-10.115v6.315H43.193Zm21.889,13.62H67.084V54.808h5.333V61.6l9.953-6.792h7.781L79.417,62.816,90.326,73.192H83.9l-8.4-7.362-3.089,2.358Z" style="fill:url(#linear-gradient)"/></svg>