<svg id="Layer_1" data-name="Layer 1" xmlns="http://www.w3.org/2000/svg" xmlns:xlink="http://www.w3.org/1999/xlink" viewBox="0 0 128 128"><defs><linearGradient id="linear-gradient" x1="23.634" y1="37.509" x2="104.366" y2="118.241" gradientUnits="userSpaceOnUse"><stop offset="0" stop-color="#ffca6c"/><stop offset="1" stop-color="#ff654f"/></linearGradient></defs><title>AUDIENCE</title><path d="M12.32,87.068V106.1a2,2,0,0,0,2,2h99.36a2,2,0,0,0,2-2V87.068a18.514,18.514,0,0,0-10.706-16.807A14.958,14.958,0,0,0,93.081,43.1a14.987,14.987,0,1,0-25.039,0,14.444,14.444,0,0,0-8.082,0,14.987,14.987,0,1,0-25.039,0,14.965,14.965,0,0,0-11.88,27.165A18.568,18.568,0,0,0,12.32,87.068ZM48.733,76.562c-.167.241-.338.478-.494.727-.12.192-.226.394-.339.591-.145.252-.3.5-.429.761-.009.018-.021.035-.03.053-.043-.086-.1-.167-.14-.252-.124-.236-.255-.468-.389-.7-.1-.171-.2-.342-.3-.51-.147-.236-.3-.465-.462-.695-.106-.154-.209-.309-.32-.46-.182-.248-.376-.488-.571-.727-.1-.123-.2-.25-.3-.371-.3-.355-.621-.7-.953-1.035-.414-.415-.848-.8-1.293-1.173-.144-.12-.3-.227-.444-.342-.308-.24-.617-.477-.937-.7-.182-.124-.369-.238-.555-.355-.3-.19-.6-.375-.912-.547-.2-.111-.4-.214-.6-.317-.164-.083-.322-.178-.487-.256.115-.071.224-.15.336-.224.084-.055.168-.11.25-.167.347-.239.684-.489,1.009-.755.05-.041.1-.085.147-.127q.433-.364.836-.76c.064-.063.13-.124.193-.189q.443-.449.848-.933c.05-.06.1-.123.147-.184q.353-.437.673-.9c.045-.065.091-.127.135-.193q.352-.527.659-1.084c.043-.078.083-.158.125-.237q.268-.506.5-1.034c.025-.059.054-.115.078-.174.165-.394.311-.8.443-1.209.03-.094.057-.188.086-.282.116-.388.219-.78.3-1.18.008-.04.02-.078.028-.118.087-.43.151-.867.2-1.309.012-.106.022-.212.032-.318.041-.45.069-.9.069-1.363,0-.391-.021-.78-.051-1.168-.009-.112-.021-.222-.032-.334q-.045-.446-.117-.888c-.016-.1-.03-.2-.048-.3-.069-.378-.15-.752-.248-1.122-.018-.07-.041-.138-.061-.208q-.128-.459-.284-.909-.057-.164-.118-.326-.165-.442-.358-.873c-.031-.069-.058-.139-.09-.207-.142-.306-.293-.608-.456-.9a14.8,14.8,0,0,1,6.864,0c-.164.3-.315.6-.458.907-.031.066-.057.134-.087.2q-.194.434-.361.88-.06.161-.117.324-.157.45-.285.909c-.019.07-.042.138-.061.208-.1.37-.179.745-.248,1.123-.018.1-.031.2-.047.3q-.072.442-.117.888c-.011.111-.023.222-.032.334-.03.388-.051.777-.051,1.168,0,.46.028.913.069,1.363.01.107.02.214.032.32.05.442.113.879.2,1.308.008.039.019.076.027.115.085.4.188.792.3,1.179.029.1.057.195.089.291.132.409.277.812.442,1.205.025.058.053.115.078.173.152.35.319.693.5,1.029.044.083.086.167.132.249q.307.555.657,1.081c.043.064.089.126.134.19q.318.459.668.892c.053.066.1.133.158.2q.4.484.847.932c.061.062.125.122.188.183q.4.392.829.754c.054.046.106.094.161.138.326.267.664.518,1.012.757.078.054.157.1.236.157.123.081.243.167.369.244-.2.092-.381.2-.573.3-.236.121-.474.237-.7.368-.212.121-.416.255-.623.384-.23.143-.463.281-.687.434-.2.134-.383.281-.574.423-.222.165-.448.325-.662.5-.18.146-.349.3-.523.456-.213.186-.429.368-.633.563-.163.156-.315.324-.473.486-.2.206-.405.409-.6.625-.148.167-.284.344-.426.517-.185.225-.375.446-.55.68C48.98,76.19,48.86,76.378,48.733,76.562ZM78.56,104.1H49.44V87.068A14.56,14.56,0,0,1,74.3,76.772q.37.37.71.762a14.629,14.629,0,0,1,3.554,9.534Zm3.274-27.5c-.157.228-.32.451-.467.686-.127.2-.238.414-.357.621-.139.243-.285.482-.413.732-.009.018-.021.035-.03.054-.041-.08-.09-.157-.132-.236-.129-.246-.265-.488-.406-.729-.1-.163-.19-.327-.29-.487-.151-.242-.311-.477-.474-.712-.1-.149-.2-.3-.311-.447-.184-.249-.379-.491-.576-.732-.1-.122-.194-.248-.3-.368-.305-.355-.622-.7-.955-1.034-.413-.415-.845-.8-1.29-1.173-.145-.121-.3-.228-.445-.344-.307-.24-.616-.477-.936-.7-.181-.124-.368-.237-.552-.354-.3-.191-.6-.376-.913-.549-.2-.111-.4-.215-.606-.318-.164-.083-.323-.178-.489-.256.113-.07.221-.148.332-.221.085-.056.17-.112.254-.169.346-.238.682-.488,1.006-.753.051-.042.1-.086.149-.129q.43-.362.832-.756c.066-.064.133-.127.2-.193q.441-.448.845-.93c.052-.062.1-.126.151-.189q.349-.432.666-.89c.047-.067.1-.133.141-.2q.35-.524.656-1.078c.045-.081.086-.163.13-.245q.264-.5.492-1.021c.027-.062.057-.123.084-.186.165-.392.31-.794.441-1.2.031-.1.059-.192.088-.289.115-.384.218-.774.3-1.171.009-.042.021-.083.029-.126.087-.429.151-.866.2-1.307.012-.106.022-.211.032-.318.041-.45.069-.9.069-1.363,0-.391-.021-.78-.051-1.168-.009-.112-.021-.222-.032-.334q-.045-.446-.117-.888c-.016-.1-.029-.2-.047-.3-.069-.378-.15-.752-.248-1.123-.018-.069-.041-.137-.06-.206q-.128-.461-.285-.912-.056-.162-.117-.323-.167-.447-.362-.882c-.03-.066-.056-.133-.086-.2-.143-.307-.294-.61-.458-.907a14.8,14.8,0,0,1,6.864,0c-.163.3-.314.6-.456.9-.033.071-.061.143-.093.214q-.191.428-.355.866-.061.164-.119.329-.156.448-.283.9c-.02.07-.043.14-.061.21-.1.37-.179.745-.247,1.122-.018.1-.031.2-.047.3q-.072.442-.117.888c-.011.111-.023.222-.032.334-.03.388-.051.777-.051,1.168,0,.46.028.913.069,1.363.01.107.02.214.032.32.05.441.113.878.2,1.307.008.04.019.078.028.118.084.4.188.789.3,1.176.029.1.058.2.089.293.131.408.276.81.441,1.2.025.06.054.118.08.178q.227.522.493,1.021c.045.085.089.171.135.255q.306.553.655,1.077c.044.066.092.13.137.2q.315.455.662.885c.055.068.107.136.163.2q.4.482.845.929c.062.063.127.123.19.185q.4.39.825.75c.055.047.108.1.164.141q.489.4,1.013.758c.077.053.155.1.232.154.125.082.246.169.374.247-.2.093-.386.2-.58.3-.231.119-.465.233-.691.362s-.433.266-.648.4-.444.27-.659.417-.407.3-.609.449-.423.307-.626.471-.376.327-.564.491-.4.344-.593.527-.344.352-.515.529c-.186.193-.377.38-.555.581-.161.182-.309.375-.464.563-.173.211-.35.417-.514.635C82.1,76.2,81.971,76.4,81.834,76.6Zm25.582.174a14.466,14.466,0,0,1,4.264,10.3V104.1H82.56V87.068a14.56,14.56,0,0,1,24.856-10.3ZM97.12,46.528a10.99,10.99,0,1,1-10.99,10.99q0-.48.042-.956a11.26,11.26,0,0,1,2.487-6.056h0A10.989,10.989,0,0,1,97.12,46.528ZM80.561,23.9A10.987,10.987,0,1,1,69.574,34.889,11,11,0,0,1,80.561,23.9ZM64,46.528a10.99,10.99,0,1,1-10.99,10.99q0-.48.042-.956A10.994,10.994,0,0,1,64,46.528ZM47.439,23.9A10.987,10.987,0,1,1,36.452,34.889,11,11,0,0,1,47.439,23.9ZM19.89,57.519A10.99,10.99,0,1,1,30.88,68.508,11,11,0,0,1,19.89,57.519ZM30.88,72.508A14.464,14.464,0,0,1,41.173,76.77q.369.37.708.763a14.615,14.615,0,0,1,3.559,9.536V104.1H16.32V87.068A14.577,14.577,0,0,1,30.88,72.508Z" style="fill:url(#linear-gradient)"/></svg>