<svg id="Layer_1" data-name="Layer 1" xmlns="http://www.w3.org/2000/svg" xmlns:xlink="http://www.w3.org/1999/xlink" viewBox="0 0 128 128"><defs><linearGradient id="linear-gradient" x1="28.253" y1="34.74" x2="99.747" y2="106.234" gradientUnits="userSpaceOnUse"><stop offset="0" stop-color="#ffca6c"/><stop offset="1" stop-color="#ff654f"/></linearGradient></defs><title>AWARD</title><path d="M40.271,88.126a2,2,0,0,0-2,2v6.09a2,2,0,0,0,2,2h2.257L45.047,122.4a2,2,0,0,0,1.989,1.793H80.964a2,2,0,0,0,1.989-1.793l2.518-24.181h2.257a2,2,0,0,0,2-2v-6.09a2,2,0,0,0-2-2H80.685V41.652h1a2,2,0,0,0,2-2v-6.09a2,2,0,0,0-2-2H74.616l-1.693-7.512,6.987-6.137a2,2,0,0,0-1.136-3.494l-9.26-.859L65.837,5.02a2,2,0,0,0-3.674,0l-3.678,8.541-9.26.859a2,2,0,0,0-1.136,3.494l6.987,6.137-1.693,7.512H46.312a2,2,0,0,0-2,2v6.09a2,2,0,0,0,2,2h1V88.126Zm38.89,32.063H48.839L46.55,98.216h34.9ZM54.22,17.974l5.817-.54a2,2,0,0,0,1.652-1.2L64,10.867l2.311,5.366a2,2,0,0,0,1.652,1.2l5.817.54-4.39,3.855a2,2,0,0,0-.631,1.942l1.284,5.7-5.022-2.983a2,2,0,0,0-2.043,0l-5.022,2.983,1.284-5.7a2,2,0,0,0-.631-1.942ZM65.732,31.563H62.268L64,30.534Zm-17.42,4H79.688v2.09H48.312ZM71.468,64.476a2,2,0,0,0-2,2v21.65H66V58.919a2,2,0,0,0-4,0V88.126H58.532V66.476a2,2,0,0,0-4,0v21.65H51.315V41.652H76.685V88.126H73.468V66.476A2,2,0,0,0,71.468,64.476ZM49.315,92.126H85.729v2.09H42.271v-2.09ZM64,119.053a9.85,9.85,0,1,0-9.85-9.85A9.861,9.861,0,0,0,64,119.053Zm0-15.7a5.85,5.85,0,1,1-5.85,5.85A5.856,5.856,0,0,1,64,103.354Z" style="fill:url(#linear-gradient)"/></svg>