<svg id="Layer_1" data-name="Layer 1" xmlns="http://www.w3.org/2000/svg" xmlns:xlink="http://www.w3.org/1999/xlink" viewBox="0 0 128 128"><defs><linearGradient id="linear-gradient" x1="26.453" y1="26.453" x2="102.25" y2="102.25" gradientUnits="userSpaceOnUse"><stop offset="0" stop-color="#ffca6c"/><stop offset="1" stop-color="#ff654f"/></linearGradient></defs><title>BILL</title><path d="M99.98,98.76V35.542A16.247,16.247,0,0,1,116.21,19.313a2,2,0,0,0,0-4H43.352A13.942,13.942,0,0,0,29.425,29.24V91.052A17.655,17.655,0,0,1,11.79,108.687a2,2,0,0,0,0,4H86.054A13.942,13.942,0,0,0,99.98,98.76Zm-13.927,9.927H24.311a21.625,21.625,0,0,0,9.114-17.635V29.24a9.938,9.938,0,0,1,9.927-9.927h60.795A20.21,20.21,0,0,0,95.98,35.542V98.76A9.938,9.938,0,0,1,86.054,108.687Zm1.889-69L70.879,30.266a2,2,0,0,0-2.967,1.751V50.857a2,2,0,0,0,2.967,1.751l17.063-9.42a2,2,0,0,0,0-3.5Zm-16.03,7.782V35.405l10.926,6.032ZM39.024,33.856a2,2,0,0,1,2-2H62.168a2,2,0,1,1,0,4H41.024A2,2,0,0,1,39.024,33.856Zm0,8.363a2,2,0,0,1,2-2H62.168a2,2,0,0,1,0,4H41.024A2,2,0,0,1,39.024,42.22Zm0,8.363a2,2,0,0,1,2-2H62.168a2,2,0,0,1,0,4H41.024A2,2,0,0,1,39.024,50.583Zm47.951,9.281H41.024a2,2,0,0,0-2,2V76.434a2,2,0,0,0,2,2H86.976a2,2,0,0,0,2-2V61.864A2,2,0,0,0,86.976,59.864Zm-2,14.569H43.024V63.864H84.976Zm4,11.406a2,2,0,0,1-2,2H41.024a2,2,0,0,1,0-4H86.976A2,2,0,0,1,88.976,85.84Zm0,10.144a2,2,0,0,1-2,2H62.168a2,2,0,0,1,0-4H86.976A2,2,0,0,1,88.976,95.983Z" style="fill:url(#linear-gradient)"/></svg>