<svg id="Layer_1" data-name="Layer 1" xmlns="http://www.w3.org/2000/svg" xmlns:xlink="http://www.w3.org/1999/xlink" viewBox="0 0 128 128"><defs><linearGradient id="linear-gradient" x1="23.416" y1="26.786" x2="107.685" y2="111.055" gradientUnits="userSpaceOnUse"><stop offset="0" stop-color="#ffca6c"/><stop offset="1" stop-color="#ff654f"/></linearGradient></defs><title>CAMERA</title><path d="M120.675,41.84h-7.264c-.051,0-.1.011-.149.015s-.1.008-.156.016a1.982,1.982,0,0,0-.453.12l-.024.008a1.986,1.986,0,0,0-.424.255c-.018.013-.039.02-.056.034L94.56,56.6H86.088V51.66a2,2,0,0,0-2-2H78.381V37.374a2,2,0,0,0-.586-1.414l-9.31-9.309a2,2,0,0,0-1.414-.586H26.9a6.682,6.682,0,0,0,0,13.364H62.364l2.651,2.651V49.66H7.325a2,2,0,0,0-2,2V90.9A2,2,0,0,0,6,92.4l10.2,9.035a2,2,0,0,0,1.326.5H73.887a2,2,0,0,0,1.326-.5l10.2-9.035a2,2,0,0,0,.674-1.5V82.476H94.56l17.589,14.313c.027.022.058.038.086.058s.081.057.123.083a1.98,1.98,0,0,0,.194.1c.045.022.089.043.136.061a1.988,1.988,0,0,0,.224.07c.043.011.085.025.129.033a2.005,2.005,0,0,0,.371.037h7.264a2,2,0,0,0,2-2V43.84A2,2,0,0,0,120.675,41.84ZM64.606,36.016a2,2,0,0,0-1.414-.586H26.9a2.682,2.682,0,0,1,0-5.364H66.243L74.381,38.2V49.66H69.016V41.253a2,2,0,0,0-.586-1.414ZM82.088,58.6V90l-8.96,7.936H18.286L9.325,90V53.66H82.088ZM93.271,78.476H86.088V60.6h7.184Zm18.14,12.555L97.271,79.524V59.552l14.14-11.506Zm7.264,2.206h-3.264V45.84h3.264ZM74.358,58.388H35.022a2,2,0,0,0-2,2V80.476a2,2,0,0,0,2,2H74.358a2,2,0,0,0,2-2V60.388A2,2,0,0,0,74.358,58.388Zm-2,20.088H37.022V62.388H72.358ZM20.176,70.1a5.406,5.406,0,1,0-5.406-5.406A5.412,5.412,0,0,0,20.176,70.1Zm0-6.813a1.406,1.406,0,1,1-1.406,1.406A1.408,1.408,0,0,1,20.176,63.287Zm0,19.188a5.406,5.406,0,1,0-5.406-5.406A5.412,5.412,0,0,0,20.176,82.476Zm0-6.812a1.406,1.406,0,1,1-1.406,1.406A1.408,1.408,0,0,1,20.176,75.663ZM43.449,89.807a2,2,0,0,1-2,2H16.77a2,2,0,0,1,0-4h24.68A2,2,0,0,1,43.449,89.807Zm32.909,0a2,2,0,0,1-2,2H69.133a2,2,0,0,1,0-4h5.226A2,2,0,0,1,76.358,89.807Zm-11.99,0a2,2,0,0,1-2,2H57.142a2,2,0,0,1,0-4h5.227A2,2,0,0,1,64.368,89.807Z" style="fill:url(#linear-gradient)"/></svg>