<svg id="Layer_1" data-name="Layer 1" xmlns="http://www.w3.org/2000/svg" xmlns:xlink="http://www.w3.org/1999/xlink" viewBox="0 0 128 128"><defs><linearGradient id="linear-gradient" x1="12.785" y1="12.785" x2="115.215" y2="115.215" gradientUnits="userSpaceOnUse"><stop offset="0" stop-color="#ffca6c"/><stop offset="1" stop-color="#ff654f"/></linearGradient></defs><title>CINEMA SCREEN</title><path d="M121.676,19.3a2.006,2.006,0,0,0-1.875-.186,145.17,145.17,0,0,1-111.6,0,2,2,0,0,0-2.764,1.849v86.073A2,2,0,0,0,8.2,108.885a145.17,145.17,0,0,1,111.6,0,2,2,0,0,0,2.764-1.849V20.963A2,2,0,0,0,121.676,19.3Zm-3.112,84.776a149.047,149.047,0,0,0-109.128,0V23.923a149.034,149.034,0,0,0,109.128,0ZM62,41.583V46.1A18.042,18.042,0,0,0,46.1,62H41.583a2,2,0,0,0,0,4H46.1A18.042,18.042,0,0,0,62,81.9v4.518a2,2,0,0,0,4,0V81.9A18.042,18.042,0,0,0,81.9,66h4.518a2,2,0,0,0,0-4H81.9A18.042,18.042,0,0,0,66,46.1V41.583a2,2,0,0,0-4,0ZM78.017,64A14.017,14.017,0,1,1,64,49.983,14.033,14.033,0,0,1,78.017,64ZM57.23,54.549a2,2,0,0,0-.983,1.722V71.729a2,2,0,0,0,2.967,1.751l14-7.729a2,2,0,0,0,0-3.5l-14-7.729A2,2,0,0,0,57.23,54.549Zm3.017,5.111L68.109,64l-7.862,4.34Z" style="fill:url(#linear-gradient)"/></svg>