<svg id="Layer_1" data-name="Layer 1" xmlns="http://www.w3.org/2000/svg" xmlns:xlink="http://www.w3.org/1999/xlink" viewBox="0 0 128 128"><defs><linearGradient id="linear-gradient" x1="19.973" y1="22.085" x2="116.206" y2="118.318" gradientUnits="userSpaceOnUse"><stop offset="0" stop-color="#ffca6c"/><stop offset="1" stop-color="#ff654f"/></linearGradient></defs><title>CLAPPERBOARD</title><path d="M5.129,52.016a8.648,8.648,0,0,0,6.639,8.4v56.442a2,2,0,0,0,2,2H114.841a2,2,0,0,0,2-2V52.016a2,2,0,0,0-2-2H27.4L85.854,32.469l8.325-2.5h0l16.973-5.094a2,2,0,0,0,1.341-2.491L107.673,6.321a2,2,0,0,0-2.49-1.34L96.893,7.467c-.012,0-.024,0-.035.006l-12.6,3.781c-.008,0-.015.008-.024.011L67.417,16.311l-.017,0L54.8,20.095l-.008,0L8.371,34.025A2,2,0,0,0,7.03,36.516L9.442,44.55A8.689,8.689,0,0,0,5.129,52.016Zm71.334,62.838H52.146v-9.27H76.463Zm36.377,0H80.463v-9.27H93.488a2,2,0,0,0,0-4H35.121a2,2,0,1,0,0,4H48.146v9.27H15.768V70.795h97.073ZM15.768,66.795V60.42c.057-.014.11-.038.166-.052a8.534,8.534,0,0,0,.822-.258c.08-.03.161-.056.24-.088a8.6,8.6,0,0,0,.95-.453c.059-.033.114-.07.172-.1a8.633,8.633,0,0,0,.73-.481c.077-.056.154-.112.229-.171a8.7,8.7,0,0,0,1.482-1.484c.059-.075.114-.151.17-.228a8.68,8.68,0,0,0,.482-.734c.033-.057.07-.111.1-.168a8.611,8.611,0,0,0,.452-.952c.023-.056.044-.113.066-.17L28.14,66.795Zm97.073-12.779V66.795H107.35l-6.88-12.779Zm-16.914,0,6.879,12.778H94.194L87.315,54.016Zm-13.155,0,6.88,12.779H76.594l-6.88-12.779Zm-17.6,0,6.88,12.778H63.438l-6.88-12.778Zm-13.155,0L58.9,66.795H45.838l-6.88-12.779Zm-17.6,0,6.88,12.778H32.683L25.8,54.016ZM99.15,10.966l5.267-1.58,3.672,12.233L96.236,25.177Zm-12.6,3.78L94.8,12.272,91.885,26.483l-8.249,2.476ZM69.693,19.8,82.2,16.052,79.285,30.265,66.777,34.019Zm-12.6,3.78,8.248-2.475L62.426,35.324,54.178,37.8ZM40.235,28.642l12.508-3.752L49.827,39.107,37.319,42.861Zm-12.6,3.781,8.249-2.476L32.968,44.164,24.72,46.64Zm-4.351,1.3L20.612,46.761c-.023-.029-.05-.055-.073-.084a8.681,8.681,0,0,0-.646-.732c-.034-.034-.07-.065-.1-.1a8.741,8.741,0,0,0-.687-.6c-.039-.031-.077-.064-.117-.094a8.772,8.772,0,0,0-.808-.543c-.059-.035-.119-.069-.179-.1a8.7,8.7,0,0,0-.884-.442c-.026-.011-.054-.02-.081-.031a8.632,8.632,0,0,0-.892-.31c-.059-.017-.116-.036-.175-.052a8.548,8.548,0,0,0-.965-.2c-.067-.01-.134-.017-.2-.025a8.469,8.469,0,0,0-1.033-.07q-.25,0-.5.015l-1.833-6.109ZM12.454,47.574a4.444,4.444,0,0,1,1.314-.2,4.743,4.743,0,0,1,.76.061A4.587,4.587,0,0,1,18.2,50.674a4.814,4.814,0,0,1,.195,1.341,4.634,4.634,0,1,1-5.942-4.442ZM53.083,97.765a2,2,0,0,0,1.934.1l20.319-9.848a2,2,0,0,0,0-3.6L55.017,74.576a2,2,0,0,0-2.872,1.8V96.07A2,2,0,0,0,53.083,97.765Zm3.062-18.2,13.733,6.655L56.145,92.878Z" style="fill:url(#linear-gradient)"/></svg>