<svg id="Layer_1" data-name="Layer 1" xmlns="http://www.w3.org/2000/svg" xmlns:xlink="http://www.w3.org/1999/xlink" viewBox="0 0 128 128"><defs><linearGradient id="linear-gradient" x1="26.727" y1="23.982" x2="105.453" y2="102.708" gradientUnits="userSpaceOnUse"><stop offset="0" stop-color="#ffca6c"/><stop offset="1" stop-color="#ff654f"/></linearGradient></defs><title>COFFEE</title><path d="M98.958,24.256H94.827V10a2,2,0,0,0-2-2H86.789a2,2,0,0,0-1.509.688l-6.668,7.672H35.173a2,2,0,0,0-2,2v5.893H29.042a2,2,0,0,0-2,2V38.04a2,2,0,0,0,2,2h3.239l3.551,43.411,1.09,13.375c0,.011.005.021.006.032l1.742,21.3A2,2,0,0,0,40.664,120H87.336a2,2,0,0,0,1.993-1.837l3.07-37.54c0-.01.006-.02.007-.031l1.542-18.9,1.77-21.644h3.239a2,2,0,0,0,2-2V26.256A2,2,0,0,0,98.958,24.256ZM37.173,20.363H79.522a2,2,0,0,0,1.509-.687L87.7,12h3.126V24.256H37.173Zm2.645,62.762-.505-6.2,7.555-2.384c-.076.361-.118.729-.171,1.1-.03.207-.074.41-.1.618a17.717,17.717,0,0,0-.1,1.89c0,.529.032,1.052.077,1.571.011.119.021.238.034.357.055.509.127,1.014.226,1.512.012.061.028.12.041.18.095.454.209.9.339,1.344.031.1.06.21.092.315q.224.716.507,1.407c.035.085.074.168.11.252q.263.613.573,1.2c.043.082.083.165.127.246q.356.654.77,1.275c.06.091.123.179.185.268.259.375.531.741.82,1.1.04.05.078.1.118.15.32.384.661.752,1.015,1.11.04.04.074.085.114.124L40.708,94ZM50.5,78.143a13.432,13.432,0,0,1,1.32-5.829A13.505,13.505,0,0,1,77.5,78.143a13.281,13.281,0,0,1-1.1,5.332A13.5,13.5,0,0,1,50.5,78.143Zm35,37.854H42.506L41.042,98.09,55.607,93.5a17.481,17.481,0,0,0,24.07-7.59l8.5-2.677Zm3.032-37.071-7.29,2.3c.05-.284.077-.573.113-.859.023-.18.054-.357.071-.538.053-.556.084-1.116.084-1.683,0-.545-.035-1.084-.085-1.621-.012-.125-.023-.249-.038-.373-.061-.526-.139-1.047-.246-1.561-.013-.064-.031-.126-.045-.189-.1-.467-.227-.927-.367-1.382-.035-.114-.068-.227-.105-.34-.162-.49-.343-.973-.547-1.446-.04-.092-.085-.182-.126-.273q-.279-.617-.6-1.211c-.052-.1-.1-.192-.155-.286q-.38-.663-.818-1.292c-.071-.1-.145-.2-.218-.3q-.4-.545-.833-1.061c-.06-.07-.115-.143-.176-.212-.336-.382-.692-.747-1.061-1.1-.045-.043-.085-.093-.131-.135L90,60.93Zm1.824-22.3L71.785,62.477a17.5,17.5,0,0,0-23.158,7.314l-9.651,3.044L36.294,40.043H91.706ZM96.958,36.04H31.042V28.256H96.958ZM59.083,86.874A8.291,8.291,0,0,0,64,88.512a8.117,8.117,0,0,0,1.406-.124c.021,0,.042-.009.063-.013A9.349,9.349,0,0,0,72.4,82.14a11.5,11.5,0,0,0,.7-4,10.757,10.757,0,0,0-4.517-8.96A8.312,8.312,0,0,0,64.224,67.8c-.037,0-.073-.006-.109-.008s-.076-.009-.114-.009-.086.01-.13.011-.089.005-.133.011a9.164,9.164,0,0,0-7.995,5.978,11.572,11.572,0,0,0-.84,4.36A10.735,10.735,0,0,0,59.083,86.874ZM65.52,72.086a4.559,4.559,0,0,1,.851.433A6.726,6.726,0,0,1,69.1,78.145a7.529,7.529,0,0,1-.457,2.62A6.373,6.373,0,0,1,67.2,83.081a22.847,22.847,0,0,0-.919-4.023A14.207,14.207,0,0,1,65.52,72.086Zm-6.073,3.2A6.074,6.074,0,0,1,61.4,72.684,18.752,18.752,0,0,0,62.442,80.2a14.85,14.85,0,0,1,.832,4.245,4.442,4.442,0,0,1-1.832-.8,6.826,6.826,0,0,1-2.541-5.5A7.579,7.579,0,0,1,59.448,75.29Z" style="fill:url(#linear-gradient)"/></svg>