<svg id="Layer_1" data-name="Layer 1" xmlns="http://www.w3.org/2000/svg" xmlns:xlink="http://www.w3.org/1999/xlink" viewBox="0 0 128 128"><defs><linearGradient id="linear-gradient" x1="18.156" y1="16.656" x2="109.844" y2="108.344" gradientUnits="userSpaceOnUse"><stop offset="0" stop-color="#ffca6c"/><stop offset="1" stop-color="#ff654f"/></linearGradient></defs><title>CONTROLER</title><path d="M8.967,30.647V94.353a11.625,11.625,0,0,0,11.611,11.611h86.844a11.625,11.625,0,0,0,11.611-11.611V30.647a11.625,11.625,0,0,0-11.611-11.611H20.578A11.625,11.625,0,0,0,8.967,30.647Zm106.066,0V94.353a7.619,7.619,0,0,1-7.611,7.611H20.578a7.619,7.619,0,0,1-7.611-7.611V30.647a7.619,7.619,0,0,1,7.611-7.611h86.844A7.619,7.619,0,0,1,115.033,30.647Zm-43.8,38.308h37.192a2,2,0,0,0,2-2V29.763a2,2,0,0,0-2-2H71.236a2,2,0,0,0-2,2V66.955A2,2,0,0,0,71.236,68.955Zm2-37.192h33.192v2.062H73.236Zm0,6.062h33.192V50.1c-3.626,2.935-9.662,1.163-16.04-.717-5.96-1.758-12.085-3.562-17.152-1.759Zm0,14.2c3.936-2.375,9.816-.642,16.021,1.188C95.3,55,101.51,56.827,106.429,54.75V64.955H73.236ZM77.862,92.5a8.626,8.626,0,1,0-8.626-8.626A8.635,8.635,0,0,0,77.862,92.5Zm0-13.252a4.626,4.626,0,1,1-4.626,4.626A4.631,4.631,0,0,1,77.862,79.253Zm23.94-4a8.626,8.626,0,1,0,8.626,8.626A8.635,8.635,0,0,0,101.8,75.253Zm0,13.252a4.626,4.626,0,1,1,4.626-4.626A4.631,4.631,0,0,1,101.8,88.5ZM23.962,74.95H20.91a2,2,0,0,0,0,4h3.047a5.554,5.554,0,0,0,5.172,3.56H36.94a5.519,5.519,0,0,0,3.935-1.637,5.6,5.6,0,0,0,1.234-1.923H56.75a2,2,0,0,0,0-4H42.112A5.554,5.554,0,0,0,36.94,71.4H29.13a5.52,5.52,0,0,0-5.168,3.55Zm4.073.9A1.538,1.538,0,0,1,29.13,75.4H36.94a1.555,1.555,0,0,1,0,3.109H29.13a1.556,1.556,0,0,1-1.095-2.656ZM37.19,59.538V64a2,2,0,0,0,4,0V59.541a5.554,5.554,0,0,0,3.55-5.171V46.56a5.519,5.519,0,0,0-3.55-5.168V29.76a2,2,0,0,0-4,0V41.387A5.554,5.554,0,0,0,33.63,46.56V54.37a5.52,5.52,0,0,0,1.638,3.936A5.612,5.612,0,0,0,37.19,59.538ZM37.63,46.56a1.555,1.555,0,0,1,3.11,0V54.37a1.555,1.555,0,0,1-3.11,0Zm17.12,9.4V64a2,2,0,0,0,4,0V55.962a5.554,5.554,0,0,0,3.56-5.172V42.98a5.51,5.51,0,0,0-1.625-3.914A5.437,5.437,0,0,0,58.75,37.81V29.76a2,2,0,0,0-4,0v8.048a5.556,5.556,0,0,0-3.56,5.173v7.81a5.542,5.542,0,0,0,3.56,5.168Zm.44-12.977a1.556,1.556,0,0,1,1.56-1.551,1.516,1.516,0,0,1,1.1.454,1.557,1.557,0,0,1,.464,1.1v7.81a1.556,1.556,0,0,1-1.56,1.55,1.52,1.52,0,0,1-1.1-.455,1.552,1.552,0,0,1-.463-1.095ZM56.75,88.5H53.291a5.554,5.554,0,0,0-5.171-3.55H40.31a5.52,5.52,0,0,0-5.168,3.55H20.91a2,2,0,0,0,0,4H35.137a5.554,5.554,0,0,0,5.172,3.56H48.12a5.491,5.491,0,0,0,5.164-3.56H56.75a2,2,0,0,0,0-4Zm-7.535,3.106a1.538,1.538,0,0,1-1.095.453H40.31a1.556,1.556,0,0,1-1.55-1.56,1.55,1.55,0,0,1,1.55-1.55H48.12a1.552,1.552,0,0,1,1.55,1.55A1.576,1.576,0,0,1,49.215,91.606ZM19.62,29.76v1.415a5.561,5.561,0,0,0-3.55,5.165V44.15a5.519,5.519,0,0,0,1.637,3.935,5.6,5.6,0,0,0,1.913,1.231V64a2,2,0,0,0,4,0V49.325a5.554,5.554,0,0,0,3.56-5.175V36.34a5.514,5.514,0,0,0-3.56-5.17V29.76a2,2,0,0,0-4,0Zm2.01,5.03a1.55,1.55,0,0,1,1.55,1.55V44.15a1.555,1.555,0,0,1-3.109,0V36.34A1.544,1.544,0,0,1,21.63,34.79Z" style="fill:url(#linear-gradient)"/></svg>