<svg id="Layer_1" data-name="Layer 1" xmlns="http://www.w3.org/2000/svg" xmlns:xlink="http://www.w3.org/1999/xlink" viewBox="0 0 128 128"><defs><linearGradient id="linear-gradient" x1="35.723" y1="35.724" x2="92.545" y2="92.545" gradientUnits="userSpaceOnUse"><stop offset="0" stop-color="#ffca6c"/><stop offset="1" stop-color="#ff654f"/></linearGradient></defs><title>COUNTDOWN</title><path d="M119.725,64a2,2,0,0,0-2-2H104.339A40.445,40.445,0,0,0,66,23.661V10.275a2,2,0,1,0-4,0V36.339A27.773,27.773,0,0,0,36.339,62H10.275a2,2,0,1,0,0,4H23.661A40.445,40.445,0,0,0,62,104.339v13.385a2,2,0,1,0,4,0V104.339A40.445,40.445,0,0,0,104.339,66h13.386A2,2,0,0,0,119.725,64ZM64,40.259A23.741,23.741,0,1,1,40.259,64,23.768,23.768,0,0,1,64,40.259Zm36.389,23.764A36.431,36.431,0,0,1,64.023,100.39l-.023,0-.023,0A36.436,36.436,0,0,1,27.664,66h8.667c.011.149.03.3.043.444.018.21.037.42.06.629.027.247.06.493.094.739.028.206.056.411.089.615.04.246.085.491.132.735.038.2.074.4.116.6.052.247.111.491.17.736.046.191.09.383.14.572.066.249.139.5.211.743.053.181.1.362.16.541.08.254.168.5.256.754.059.168.114.338.176.5.1.262.2.52.307.778.061.151.118.3.182.453.122.286.253.567.384.848.055.117.105.237.161.353q.281.581.588,1.146l.013.024q.317.582.661,1.147c.049.08.1.157.151.237.181.291.364.582.556.866.082.122.169.239.253.36.165.237.33.474.5.706.1.135.207.266.31.4.163.211.325.422.494.628.114.138.232.273.348.409.166.195.331.39.5.58.125.138.254.273.381.408.17.181.339.362.514.539.134.135.272.267.408.4.175.17.351.34.53.506.142.131.288.258.432.386.181.16.362.319.547.474.15.126.3.248.455.371.187.15.374.3.565.444.157.12.316.236.476.353q.289.211.583.415c.163.113.328.223.494.332q.3.2.6.385.255.159.514.312.305.181.615.354.264.148.531.29c.209.111.42.219.632.324.181.09.362.18.545.266.215.1.433.2.652.3.185.081.37.163.557.24.222.092.446.179.67.265.189.072.377.145.567.214.228.082.459.158.69.234.191.063.381.127.574.186.236.072.475.137.713.2.192.053.384.108.578.157.243.061.489.115.735.17.194.043.386.089.581.128.253.051.509.093.765.137.191.033.38.069.572.1.271.041.544.072.818.1.18.022.359.048.54.066.306.03.614.05.923.07.152.01.3.026.455.033q.694.035,1.4.035A27.772,27.772,0,0,0,91.741,64q0-.7-.035-1.4c-.008-.152-.023-.3-.033-.453-.02-.309-.04-.618-.07-.924-.018-.18-.044-.358-.065-.538-.033-.274-.064-.549-.1-.82-.029-.191-.065-.379-.1-.568-.044-.257-.087-.515-.138-.769-.039-.194-.085-.385-.127-.577-.055-.247-.109-.495-.171-.739-.049-.193-.1-.383-.156-.575-.066-.24-.132-.48-.2-.717-.058-.191-.122-.38-.184-.569-.077-.233-.154-.466-.236-.7-.067-.188-.139-.374-.211-.56-.087-.227-.175-.454-.268-.678-.076-.185-.157-.367-.237-.55-.1-.221-.2-.441-.3-.659-.085-.181-.173-.359-.262-.538-.107-.215-.216-.43-.329-.642q-.14-.263-.285-.521-.176-.315-.359-.625-.151-.255-.308-.506-.191-.307-.39-.608c-.108-.163-.216-.326-.327-.487q-.206-.3-.421-.591c-.114-.157-.229-.313-.346-.467-.148-.194-.3-.384-.451-.574-.12-.15-.24-.3-.364-.446-.158-.189-.32-.373-.483-.558-.125-.141-.249-.283-.377-.422-.169-.184-.343-.363-.516-.542-.129-.133-.258-.267-.39-.4-.18-.178-.365-.352-.55-.525-.132-.124-.263-.249-.4-.37-.195-.175-.394-.345-.594-.515-.132-.112-.261-.226-.395-.336-.211-.173-.428-.34-.645-.507-.128-.1-.254-.2-.384-.3-.237-.176-.479-.345-.722-.514-.115-.08-.228-.164-.344-.243-.292-.2-.59-.385-.889-.571-.072-.045-.141-.092-.213-.136q-1.127-.685-2.321-1.263c-.107-.052-.218-.1-.326-.149-.29-.136-.58-.271-.875-.4-.145-.062-.293-.117-.439-.176-.263-.107-.525-.214-.791-.313-.166-.061-.334-.116-.5-.175-.251-.088-.5-.176-.756-.256-.179-.057-.361-.107-.542-.16-.247-.073-.493-.146-.743-.211-.189-.05-.38-.094-.571-.14-.245-.059-.491-.118-.739-.171-.2-.042-.394-.078-.592-.115-.246-.047-.492-.093-.741-.133-.2-.033-.407-.06-.611-.089-.246-.034-.493-.067-.741-.094-.209-.023-.419-.042-.629-.06-.148-.013-.3-.032-.444-.043V27.664a36.436,36.436,0,0,1,34.389,36.313l0,.023ZM67.263,68.2c0-1.349-1.036-2.04-3.765-2.04l-2.541.032V61.678H63.5c2.165.032,3.326-.69,3.326-1.945,0-1.318-1.287-2.1-3.232-2.1a6.925,6.925,0,0,0-4.894,2.29l-3.012-3.263a10.572,10.572,0,0,1,8.472-3.828c5.083,0,8.126,2.51,8.126,5.9A5.069,5.069,0,0,1,68.3,63.655c2.384.564,4.455,2.259,4.455,5.02,0,3.8-3.358,6.5-8.566,6.5a11.7,11.7,0,0,1-8.943-3.609l3.075-3.546a7.872,7.872,0,0,0,5.585,2.354C66.071,70.37,67.263,69.46,67.263,68.2Z" style="fill:url(#linear-gradient)"/></svg>