<svg id="Layer_1" data-name="Layer 1" xmlns="http://www.w3.org/2000/svg" xmlns:xlink="http://www.w3.org/1999/xlink" viewBox="0 0 128 128"><defs><linearGradient id="linear-gradient" x1="12.36" y1="12.36" x2="115.64" y2="115.64" gradientUnits="userSpaceOnUse"><stop offset="0" stop-color="#ffca6c"/><stop offset="1" stop-color="#ff654f"/></linearGradient></defs><title>CURTAIN</title><path d="M120.4,17.947H7.6a2,2,0,0,0-2,2v88.105a2,2,0,0,0,2,2H120.4a2,2,0,0,0,2-2V19.947A2,2,0,0,0,120.4,17.947ZM80.622,32.3a19.839,19.839,0,0,0,2.484-5.148c.05-.157.085-.319.131-.478.128-.444.249-.89.346-1.343.05-.231.084-.466.125-.7.069-.393.135-.786.181-1.184.031-.265.049-.533.069-.8.018-.235.051-.467.06-.7h2.548c0,.1.009.189.011.286A88.107,88.107,0,0,0,88.1,37.074a15.577,15.577,0,0,1-9.67-2.055c.23-.238.436-.492.653-.74.144-.165.3-.323.435-.493.345-.421.666-.857.974-1.3C80.533,32.423,80.581,32.366,80.622,32.3Zm-.632-10.357c-.01.2-.016.392-.033.587-.02.225-.038.45-.067.672-.046.356-.111.707-.18,1.056-.041.205-.074.413-.123.616-.1.4-.216.794-.343,1.185-.046.141-.08.288-.129.427a15.888,15.888,0,0,1-.615,1.48c-.094.2-.2.388-.306.581-.155.3-.313.591-.487.877-.12.2-.25.388-.378.58-.187.279-.381.555-.586.823q-.192.252-.394.5-.377.454-.791.882c-.106.111-.209.225-.318.333a16.367,16.367,0,0,1-1.268,1.131c-.01.008-.016.018-.026.026a16,16,0,0,1-19.894,0c-.01-.008-.016-.018-.026-.026a16.367,16.367,0,0,1-1.268-1.131c-.109-.108-.212-.222-.318-.333q-.412-.429-.791-.882-.2-.244-.394-.5c-.205-.268-.4-.544-.586-.823-.128-.192-.258-.383-.378-.58-.174-.286-.331-.581-.487-.877-.1-.194-.212-.383-.306-.581a15.888,15.888,0,0,1-.615-1.48c-.05-.139-.083-.286-.129-.427-.126-.391-.247-.784-.343-1.185-.049-.2-.082-.41-.123-.616-.069-.35-.134-.7-.18-1.056-.029-.222-.047-.447-.067-.672-.017-.195-.023-.391-.033-.587ZM41.277,25.89v0q.1-1.78.144-3.654c0-.1.009-.189.011-.286H43.98c.01.237.043.468.06.7.02.268.038.536.069.8.046.4.112.791.181,1.183.042.234.076.47.126.7.1.453.218.9.346,1.341.046.159.082.322.132.479A19.837,19.837,0,0,0,47.377,32.3c.042.063.091.121.134.183.307.444.628.879.972,1.3.139.17.291.328.435.493.217.247.423.5.653.74a15.574,15.574,0,0,1-9.67,2.055A84.945,84.945,0,0,0,41.277,25.89ZM9.6,21.947H22.33a115.154,115.154,0,0,1-8.625,41.515H9.6ZM13,106.053H9.6V73.579H13Zm7.4,0H17V73.579h3.4Zm0-36.474H9.6V67.462H20.4Zm1.347-6.117h-3.69a118.611,118.611,0,0,0,8.276-41.515h11.1c0,.066,0,.132,0,.2-.02.9-.05,1.783-.093,2.647-.005.1-.014.2-.019.308q-.062,1.16-.151,2.281c-.021.267-.048.531-.072.8-.053.593-.108,1.183-.172,1.758-.027.243-.057.484-.085.725-.074.62-.152,1.234-.238,1.833-.023.159-.046.317-.07.475-.108.719-.221,1.427-.344,2.117l-.014.079C32.8,53.89,23.815,61.848,21.744,63.462ZM103.6,71.579v34.474H24.4V66.476c2.714-2.129,10.61-9.5,14.634-25.485a19.443,19.443,0,0,0,2.533.175,19.775,19.775,0,0,0,11.212-3.449,19.991,19.991,0,0,0,22.449,0,19.775,19.775,0,0,0,11.212,3.449,19.443,19.443,0,0,0,2.533-.175c4.024,15.989,11.92,23.356,14.634,25.485ZM92.412,38.089q-.18-.812-.342-1.641c-.035-.178-.071-.355-.1-.535q-.155-.821-.293-1.657-.049-.3-.1-.6-.129-.822-.243-1.657c-.031-.231-.061-.465-.09-.7-.068-.541-.134-1.085-.192-1.633-.03-.28-.055-.567-.083-.851-.05-.519-.1-1.039-.141-1.565-.033-.426-.058-.865-.085-1.3-.033-.529-.065-1.059-.09-1.595-.033-.719-.06-1.446-.076-2.189,0-.074,0-.149,0-.222h11.1a118.611,118.611,0,0,0,8.276,41.515h-3.7C104.276,61.945,96.127,54.8,92.412,38.089ZM111,106.053h-3.4V73.579H111Zm7.4,0H115V73.579h3.4Zm0-36.474H107.6V67.462h10.8Zm0-6.117h-4.1a115.154,115.154,0,0,1-8.625-41.515H118.4ZM81.285,69.828,51.38,53.319a2,2,0,0,0-2.967,1.751V88.087a2,2,0,0,0,2.967,1.751l29.9-16.509a2,2,0,0,0,0-3.5ZM52.414,84.7V58.459L76.18,71.579Z" style="fill:url(#linear-gradient)"/></svg>