<svg id="Layer_1" data-name="Layer 1" xmlns="http://www.w3.org/2000/svg" xmlns:xlink="http://www.w3.org/1999/xlink" viewBox="0 0 128 128"><defs><linearGradient id="linear-gradient" x1="15.002" y1="20.689" x2="112.994" y2="118.68" gradientUnits="userSpaceOnUse"><stop offset="0" stop-color="#ffca6c"/><stop offset="1" stop-color="#ff654f"/></linearGradient></defs><title>DIRECTOR CHAIR</title><path d="M11.059,37.214a2,2,0,0,0-2,2v8.329a2,2,0,0,0,2,2h6V84.379a2,2,0,0,0,1.558,1.947l32.581,15.879L18.3,118.229a2,2,0,0,0,.876,3.8H35.67a2,2,0,0,0,.876-.2L64,108.447,91.45,121.825a2,2,0,0,0,.876.2h16.492a2,2,0,0,0,.876-3.8L76.817,102.206l32.566-15.879a2,2,0,0,0,1.559-1.948V49.543h6a2,2,0,0,0,2-2V39.217a2,2,0,0,0-2-2H99.45V7.973a2,2,0,0,0-2.23-1.987,288.846,288.846,0,0,1-66.441,0,2,2,0,0,0-2.23,1.987V36.139l0,.021v1.054Zm24.15,80.813H27.85l27.907-13.6,3.675,1.791Zm64.939,0H92.787L27.85,86.379h7.364l32.17,15.679L71.373,104l.016.006Zm-55.8-31.648H83.651L64,95.957Zm27.909,13.6L69,98.395l-.435-.213,24.221-11.8h7.366Zm34.69-30.488h-1.384V49.543h1.384ZM97.56,41.217h17.382v4.326H97.56Zm4,8.326v19.95H99.45V49.543Zm-8-1.986a2.007,2.007,0,0,0,.039.382c.01.048.028.091.041.138a2,2,0,0,0,.072.232c.021.051.051.1.076.146a2.016,2.016,0,0,0,.1.19c.032.048.071.09.107.135a2,2,0,0,0,.13.158c.041.042.088.078.133.116a1.983,1.983,0,0,0,.154.127c.049.035.1.062.156.092a1.952,1.952,0,0,0,.173.094c.057.025.117.043.176.063a1.953,1.953,0,0,0,.189.059c.062.014.127.021.191.029s.1.02.149.023V69.49h-2.77V38.657c.33-.032.659-.062.989-.1-.02.058-.032.12-.047.18-.008.032-.018.063-.025.1a1.994,1.994,0,0,0-.038.376v8.329h0ZM32.547,10.209a292.922,292.922,0,0,0,62.9,0V34.343c-.267.028-.533.059-.8.086a288.946,288.946,0,0,1-61.268,0c-.278-.028-.556-.06-.835-.09ZM88.681,39.024V69.493H39.318V39.024Q51.628,40.065,64,40.069T88.681,39.024ZM34.4,38.839c-.008-.04-.02-.077-.03-.116-.014-.054-.024-.109-.042-.161.329.034.658.063.988.1V69.49h-2.77V49.54c.054,0,.105-.017.159-.024s.121-.014.179-.027a1.978,1.978,0,0,0,.2-.063c.055-.019.111-.035.163-.058a1.973,1.973,0,0,0,.186-.1c.048-.028.1-.053.144-.085a2.011,2.011,0,0,0,.166-.137c.041-.036.084-.068.122-.107a2.005,2.005,0,0,0,.141-.171c.032-.041.068-.079.1-.122a2,2,0,0,0,.111-.2c.022-.044.05-.086.069-.132a2,2,0,0,0,.077-.249c.011-.041.028-.079.036-.121a2.006,2.006,0,0,0,.04-.4V39.214A2,2,0,0,0,34.4,38.839Zm69.156,34.654h3.384v8.884H92.326l-.021,0H35.692l-.021,0H21.055V73.493h82.5Zm-82.5-4V49.543h1.383v19.95Zm5.383,0V49.543h2.111v19.95Zm4-28.279v4.329H13.059V41.214Z" style="fill:url(#linear-gradient)"/></svg>