<svg id="Layer_1" data-name="Layer 1" xmlns="http://www.w3.org/2000/svg" xmlns:xlink="http://www.w3.org/1999/xlink" viewBox="0 0 128 128"><defs><linearGradient id="linear-gradient" x1="18.331" y1="18.331" x2="106.407" y2="106.407" gradientUnits="userSpaceOnUse"><stop offset="0" stop-color="#ffca6c"/><stop offset="1" stop-color="#ff654f"/></linearGradient></defs><title>EXIT</title><path d="M34.979,51.664H49.046v3.979H39.425v2.782h8.737V62.4H39.425V65.55h9.621v3.978H34.979ZM58.116,69.528l3.874-5.357,3.848,5.357h5.2l-6.423-8.971,6.423-8.893H65.917l-3.874,5.331L58.22,51.664H52.993l6.449,8.972-6.449,8.892ZM80.108,51.664H75.662V69.528h4.446Zm5.016,3.979h5.435V69.528h4.446V55.644h5.409V51.664H85.124ZM107.529,35.8v6.188h7.389a2,2,0,0,1,2,2v51.08a2,2,0,0,1-2,2H22.475v4.523a2,2,0,0,1-2,2H13.082a2,2,0,0,1-2-2V26.408a2,2,0,0,1,2-2H114.918a2,2,0,0,1,2,2V33.8a2,2,0,0,1-2,2ZM18.475,28.408H15.082V99.592h3.393V28.408Zm4,13.58h5.389V35.8H22.475Zm83.054,4H22.475v47.08h90.443V45.988Zm-57.692-4V35.8H31.864v6.188Zm35.718,0V35.8H51.837v6.188Zm19.974,0V35.8H87.556v6.188ZM112.918,31.8V28.408H22.475V31.8h90.443ZM84.323,82.226a2,2,0,0,1-.8,1.6L73.184,91.6a2,2,0,0,1-3.2-1.6V87.363H53.027a2,2,0,0,1-2-2V79.088a2,2,0,0,1,2-2H69.981V74.447a2,2,0,0,1,3.2-1.6l10.342,7.778A2,2,0,0,1,84.323,82.226Zm-5.327,0-5.015-3.771v.634a2,2,0,0,1-2,2H55.027v2.275H71.981a2,2,0,0,1,2,2V86Z" style="fill:url(#linear-gradient)"/></svg>