<svg id="Layer_1" data-name="Layer 1" xmlns="http://www.w3.org/2000/svg" xmlns:xlink="http://www.w3.org/1999/xlink" viewBox="0 0 128 128"><defs><linearGradient id="linear-gradient" x1="13.829" y1="16.349" x2="114.171" y2="116.691" gradientUnits="userSpaceOnUse"><stop offset="0" stop-color="#ffca6c"/><stop offset="1" stop-color="#ff654f"/></linearGradient></defs><title>FENCE</title><path d="M110.908,17.466a10.581,10.581,0,0,0-7.356,18.2,1.979,1.979,0,0,0-.271.987v4.767a142.042,142.042,0,0,1-78.562,0V36.651a1.979,1.979,0,0,0-.271-.987,10.592,10.592,0,1,0-14.712,0,1.979,1.979,0,0,0-.27.987v5.91a2,2,0,0,0,1.25,1.852V67.263a2,2,0,0,0-1.246,1.85v5.905a2,2,0,0,0,1.246,1.85V99.577H8.5a2,2,0,0,0-2,2v6.957a2,2,0,0,0,2,2H25.685a2,2,0,0,0,2-2v-6.957a2,2,0,0,0-2-2H23.458v-22.7a2,2,0,0,0,1.257-1.854V69.114a2,2,0,0,0-1.257-1.854V53.8A146.435,146.435,0,0,0,64,59.571a146.435,146.435,0,0,0,40.531-5.763V67.263a2,2,0,0,0-1.246,1.85v5.905a2,2,0,0,0,1.246,1.85V99.577h-2.216a2,2,0,0,0-2,2v6.957a2,2,0,0,0,2,2H119.5a2,2,0,0,0,2-2v-6.957a2,2,0,0,0-2-2h-2.227v-22.7a2,2,0,0,0,1.257-1.854V69.114a2,2,0,0,0-1.257-1.854V44.416a2,2,0,0,0,1.261-1.855v-5.91a1.979,1.979,0,0,0-.27-.987,10.581,10.581,0,0,0-7.356-18.2Zm-87.224,86.11v2.957H10.5v-2.957h2.158c.02,0,.038.006.058.006h8.742c.02,0,.038-.005.058-.006ZM13.47,73.019V71.114h7.245v1.905Zm5.988,4V99.577H14.716V77.019Zm-4.742-9.905V44.562h4.742V67.114Zm-1.25-26.553v-1.91h7.253v1.91Zm3.626-5.91a6.592,6.592,0,1,1,6.593-6.592A6.6,6.6,0,0,1,17.092,34.651Zm6.366,15.014V45.244a146.064,146.064,0,0,0,81.073,0v4.421A142.114,142.114,0,0,1,23.458,49.665ZM117.5,103.577v2.957H104.315v-2.957h2.158c.02,0,.038.006.058.006h8.742c.02,0,.038-.005.058-.006ZM107.285,73.019V71.114h7.245v1.905Zm5.988,4V99.577h-4.742V77.019Zm-4.742-9.905v-15.9c0-.023.011-.043.011-.066V44.562h4.731V67.114Zm-1.25-26.553v-1.91h7.253v1.91Zm3.627-5.91a6.592,6.592,0,1,1,6.592-6.592A6.6,6.6,0,0,1,110.908,34.651Z" style="fill:url(#linear-gradient)"/></svg>