<svg id="Layer_1" data-name="Layer 1" xmlns="http://www.w3.org/2000/svg" xmlns:xlink="http://www.w3.org/1999/xlink" viewBox="0 0 128 128"><defs><linearGradient id="linear-gradient" x1="13.309" y1="13.309" x2="114.691" y2="114.691" gradientUnits="userSpaceOnUse"><stop offset="0" stop-color="#ffca6c"/><stop offset="1" stop-color="#ff654f"/></linearGradient></defs><title>FILM STRIP</title><path d="M33.718,66.469H24.3a2,2,0,0,0-2,2V78.534a2,2,0,0,0,2,2h9.417a2,2,0,0,0,2-2V68.469A2,2,0,0,0,33.718,66.469Zm-2,10.065H26.3V70.469h5.417Zm62.564-15H103.7a2,2,0,0,0,2-2V49.466a2,2,0,0,0-2-2H94.282a2,2,0,0,0-2,2V59.53A2,2,0,0,0,94.282,61.53Zm2-10.064H101.7V57.53H96.282Zm-2,48.072H103.7a2,2,0,0,0,2-2V87.473a2,2,0,0,0-2-2H94.282a2,2,0,0,0-2,2V97.538A2,2,0,0,0,94.282,99.538Zm2-10.065H101.7v6.065H96.282Zm-2-8.939H103.7a2,2,0,0,0,2-2V68.469a2,2,0,0,0-2-2H94.282a2,2,0,0,0-2,2V78.534A2,2,0,0,0,94.282,80.534Zm2-10.065H101.7v6.065H96.282Zm-2-27.942H103.7a2,2,0,0,0,2-2V30.462a2,2,0,0,0-2-2H94.282a2,2,0,0,0-2,2V40.527A2,2,0,0,0,94.282,42.527Zm2-10.065H101.7v6.065H96.282ZM33.718,85.473H24.3a2,2,0,0,0-2,2V97.538a2,2,0,0,0,2,2h9.417a2,2,0,0,0,2-2V87.473A2,2,0,0,0,33.718,85.473Zm-2,10.065H26.3V89.473h5.417ZM24.3,9.458H17.988a2,2,0,0,0-2,2V116.542a2,2,0,0,0,2,2H24.3a2,2,0,0,0,2-2v-8.065h5.417v8.065a2,2,0,0,0,2,2H94.282a2,2,0,0,0,2-2v-8.065H101.7v8.065a2,2,0,0,0,2,2h6.313a2,2,0,0,0,2-2V11.458a2,2,0,0,0-2-2H103.7a2,2,0,0,0-2,2v8.065H96.282V11.458a2,2,0,0,0-2-2H33.718a2,2,0,0,0-2,2v8.065H26.3V11.458A2,2,0,0,0,24.3,9.458ZM86.009,114.542H41.991V70.524H86.009ZM41.991,13.458H86.009V57.476H41.991ZM33.718,23.523a2,2,0,0,0,2-2V13.458h2.273V59.476a2,2,0,0,0,2,2H88.009a2,2,0,0,0,2-2V13.458h2.273v8.065a2,2,0,0,0,2,2H103.7a2,2,0,0,0,2-2V13.458h2.313V114.542H105.7v-8.065a2,2,0,0,0-2-2H94.282a2,2,0,0,0-2,2v8.065H90.009V68.524a2,2,0,0,0-2-2H39.991a2,2,0,0,0-2,2v46.018H35.718v-8.065a2,2,0,0,0-2-2H24.3a2,2,0,0,0-2,2v8.065H19.988V13.458H22.3v8.065a2,2,0,0,0,2,2ZM22.3,30.462V40.527a2,2,0,0,0,2,2h9.417a2,2,0,0,0,2-2V30.462a2,2,0,0,0-2-2H24.3A2,2,0,0,0,22.3,30.462Zm4,2h5.417v6.065H26.3Zm7.417,15H24.3a2,2,0,0,0-2,2V59.53a2,2,0,0,0,2,2h9.417a2,2,0,0,0,2-2V49.466A2,2,0,0,0,33.718,47.466Zm-2,10.064H26.3V51.466h5.417Z" style="fill:url(#linear-gradient)"/></svg>