<svg id="Layer_1" data-name="Layer 1" xmlns="http://www.w3.org/2000/svg" xmlns:xlink="http://www.w3.org/1999/xlink" viewBox="0 0 128 128"><defs><linearGradient id="linear-gradient" x1="14.616" y1="14.616" x2="113.384" y2="113.384" gradientUnits="userSpaceOnUse"><stop offset="0" stop-color="#ffca6c"/><stop offset="1" stop-color="#ff654f"/></linearGradient></defs><title>HD MOVIE</title><path d="M6.287,23.774v80.451a2,2,0,0,0,2,2H119.713a2,2,0,0,0,2-2V23.774a2,2,0,0,0-2-2H8.287A2,2,0,0,0,6.287,23.774Zm31.7,78.451H28.518V90.065h9.474Zm17.272,0H41.991V90.065H55.263Zm13.474,0H59.263V90.065h9.474Zm17.272,0H72.737V90.065H86.009Zm13.474,0H90.009V90.065h9.474Zm18.231,0H103.482V90.065h14.231ZM103.482,25.774h14.231v12.16H103.482Zm-13.474,0h9.474v12.16H90.009Zm-17.272,0H86.009v12.16H72.737Zm-13.474,0h9.474v12.16H59.263Zm-17.272,0H55.263v12.16H41.991Zm-13.474,0h9.474v12.16H28.518Zm-18.231,0H24.518v12.16H10.287Zm0,16.16H117.713V86.065H10.287Zm0,48.131H24.518v12.16H10.287ZM45.825,72.939H40.818V55.061h5.007v6.494h8.228V55.061H59.06V72.939H54.053v-6.9H45.825Zm41.358-8.954c0-5.885-4.861-8.924-11.771-8.924h-7.35V72.939h7.35C82.321,72.939,87.182,69.871,87.182,63.985ZM73.068,59.6h3.1c3.426,0,5.886,1.165,5.886,4.386S79.6,68.4,76.172,68.4h-3.1Z" style="fill:url(#linear-gradient)"/></svg>