<svg id="Layer_1" data-name="Layer 1" xmlns="http://www.w3.org/2000/svg" xmlns:xlink="http://www.w3.org/1999/xlink" viewBox="0 0 128 128"><defs><linearGradient id="linear-gradient" x1="31.933" y1="33.565" x2="97.923" y2="99.555" gradientUnits="userSpaceOnUse"><stop offset="0" stop-color="#ffca6c"/><stop offset="1" stop-color="#ff654f"/></linearGradient></defs><title>ICE CREAM</title><path d="M33.979,50.351a6.152,6.152,0,0,0,5.37,6.093l2.974,19.851A5.531,5.531,0,0,0,43.64,87.2h.318l4.534,30.217a2,2,0,0,0,1.978,1.7H77.53a2,2,0,0,0,1.978-1.7L84.042,87.2h.318a5.522,5.522,0,0,0,1.316-10.894l2.976-19.862a6.144,6.144,0,0,0-.133-12.205,15.981,15.981,0,0,0,1.8-10.725,14.4,14.4,0,0,0-9.269-11.368C80.1,5.095,63.094,3.583,62.917,3.569a1.977,1.977,0,0,0-1.651.668A2,2,0,0,0,60.8,5.956c1.424,7.114-2.3,9.2-7.007,11.847-3.9,2.188-8.665,4.864-8.251,11.176a10.707,10.707,0,0,0-7.1,5.689,12.764,12.764,0,0,0-.036,9.786A6.154,6.154,0,0,0,33.979,50.351Zm18.213,64.769-1.358-9.053,8.93,9.053Zm13.189,0L49.826,99.349,48.217,88.63l26.13,26.489Zm10.976-3.658L52.424,87.2h8.966l16.151,16.373Zm1.926-12.832L67.008,87.2h8.965l3.493,3.541Zm7.608-16.97a1.537,1.537,0,0,1-1.53,1.54H43.64a1.535,1.535,0,0,1,0-3.07H84.36a1.551,1.551,0,0,1,1.086.445A1.521,1.521,0,0,1,85.89,81.659ZM83.314,65.072l-1.182,7.891L65.891,56.5h8.965ZM80.475,56.5H84.6l-.544,3.629Zm-.838,19.63H70.671L51.307,56.5h8.966Zm-14.584,0H56.087L44.6,64.481,43.4,56.5h2.287Zm-14.584,0H46.343L45.6,71.2Zm-8.41-39.758a6.876,6.876,0,0,1,4.648-3.555c3.051,5.1,9.191,5.826,12.392,5.826a17.319,17.319,0,0,0,2.026-.105,2,2,0,0,0-.5-3.969c-.086.007-8.505.958-10.93-4.666-.859-4.484,1.5-6.054,6.056-8.611C60.145,18.826,65.5,15.819,65.092,8c4.142,1.052,11.974,4.507,12,15.6a3.454,3.454,0,0,1-1.469,2.47,2,2,0,1,0,2.334,3.248,7.578,7.578,0,0,0,2.5-3.055A10.52,10.52,0,0,1,86.38,34.2c.678,3.921-.524,7.93-2.942,10.009H42.61C41.267,41.378,41.052,38.512,42.059,36.371ZM40.126,48.2H87.874a2.147,2.147,0,1,1,0,4.294H40.126a2.147,2.147,0,1,1,0-4.294Z" style="fill:url(#linear-gradient)"/></svg>