<svg id="Layer_1" data-name="Layer 1" xmlns="http://www.w3.org/2000/svg" xmlns:xlink="http://www.w3.org/1999/xlink" viewBox="0 0 128 128"><defs><linearGradient id="linear-gradient" x1="35.674" y1="36.71" x2="101.125" y2="102.161" gradientUnits="userSpaceOnUse"><stop offset="0" stop-color="#ffca6c"/><stop offset="1" stop-color="#ff654f"/></linearGradient></defs><title>JUICE</title><path d="M81.164,12.177A2,2,0,0,0,80.1,8.32L66.784,11.988A2,2,0,0,0,65.327,13.7l-.556,5.083c-.257-.008-.513-.02-.771-.02A25.131,25.131,0,0,0,38.957,42.227H35.983a2,2,0,0,0-2,2V53.67a2,2,0,0,0,2,2h2.227l1.2,14.708.773,9.458v0L43.3,117.915a2,2,0,0,0,1.993,1.837H82.706a2,2,0,0,0,1.993-1.837l1.1-13.484v0l1.068-13.07h0L89.789,55.67h2.227a2,2,0,0,0,2-2V44.227a2,2,0,0,0-2-2H89.043a25.145,25.145,0,0,0-20.3-23.009l.409-3.735ZM64,22.762c.113,0,.222.014.334.016L62.207,42.227H42.96A21.132,21.132,0,0,1,64,22.762Zm-20.689,46.2,11.822,6.983c-.134.121-.258.251-.387.377-.036.036-.074.071-.109.107a13.136,13.136,0,0,0-2.188,2.921c-.03.054-.06.109-.089.164q-.253.475-.468.969c-.02.046-.042.092-.062.138-.157.375-.3.758-.421,1.148-.013.042-.023.085-.035.127-.076.251-.15.5-.211.76l-7.074-4.179Zm29.883,16.75a9.224,9.224,0,0,1-.078,1.14c-.013.108-.032.215-.049.322q-.068.422-.174.832c-.026.1-.048.2-.077.3a9.138,9.138,0,0,1-.363,1.019c-.034.079-.075.153-.111.23q-.176.38-.384.743-.1.172-.206.339c-.142.224-.3.44-.457.651-.062.08-.118.165-.182.243a9.179,9.179,0,0,1-.718.774c-.076.074-.157.143-.236.214-.22.2-.45.389-.691.567-.064.047-.125.1-.19.142a9.32,9.32,0,0,1-1,.616A9.176,9.176,0,0,1,54.817,85.92v-.01c0-.062,0-.128-.011-.212,0-.027,0-.052,0-.079a9.2,9.2,0,0,1,.076-1.062c.014-.11.032-.219.05-.329q.068-.42.175-.829c.025-.1.047-.2.076-.293a9.151,9.151,0,0,1,.364-1.015c.036-.084.08-.163.118-.245q.173-.372.378-.727.1-.172.206-.34c.143-.225.3-.442.46-.653.06-.078.115-.161.178-.237a9.2,9.2,0,0,1,.718-.773c.076-.074.157-.143.236-.215.22-.2.449-.388.69-.566.063-.047.125-.1.189-.142a9.324,9.324,0,0,1,1-.615A9.176,9.176,0,0,1,73.183,85.5v.01C73.183,85.582,73.188,85.65,73.193,85.711Zm7.67,30.041H47.137L44.488,83.359l6.4,3.78a13.184,13.184,0,0,0,18.19,10.746l12.636,7.464Zm1.213-14.835-9.209-5.439c.133-.121.257-.25.385-.376.037-.037.075-.072.112-.109a13.138,13.138,0,0,0,2.19-2.925l.083-.153q.257-.482.475-.984c.018-.042.038-.083.056-.125.158-.377.3-.761.423-1.154.012-.039.021-.079.033-.119.077-.254.151-.508.213-.767l5.945,3.512Zm1.069-13.07-6.033-3.564a13.184,13.184,0,0,0-18.19-10.746L42.911,64.079l-.688-8.409H85.776Zm6.871-41.619V51.67H37.983V46.227H90.017Zm-4.977-4H66.231l2.08-19.011A21.141,21.141,0,0,1,85.04,42.227Z" style="fill:url(#linear-gradient)"/></svg>