<svg id="Layer_1" data-name="Layer 1" xmlns="http://www.w3.org/2000/svg" xmlns:xlink="http://www.w3.org/1999/xlink" viewBox="0 0 128 128"><defs><linearGradient id="linear-gradient" x1="17.14" y1="35.227" x2="110.86" y2="128.947" gradientUnits="userSpaceOnUse"><stop offset="0" stop-color="#ffca6c"/><stop offset="1" stop-color="#ff654f"/></linearGradient></defs><title>MARQUEE</title><path d="M122.419,49.2h-5.846a55.478,55.478,0,0,0-105.145,0H5.581a2,2,0,0,0-2,2V64.3a2,2,0,0,0,2,2h4.23v39.71H5.581a2,2,0,0,0-2,2v6.551a2,2,0,0,0,2,2H122.419a2,2,0,0,0,2-2V108.01a2,2,0,0,0-2-2h-4.23V66.3h4.23a2,2,0,0,0,2-2V51.2A2,2,0,0,0,122.419,49.2ZM64,15.439A51.19,51.19,0,0,1,112.346,49.2H15.654A51.191,51.191,0,0,1,64,15.439Zm56.419,94.57v2.551H7.581V110.01H120.419Zm-106.607-4V66.3h10.9v39.71ZM39.167,80.682V90.971H28.709V80.682Zm-10.458-4V66.3H39.167V76.682ZM39.167,94.971V106.01H28.709V94.971ZM54.389,80.682V90.971H43.167V80.682Zm-11.222-4V66.3H54.389V76.682ZM54.389,94.971V106.01H43.167V94.971ZM69.611,80.682V90.971H58.389V80.682Zm-11.222-4V66.3H69.611V76.682ZM69.611,94.971V106.01H58.389V94.971ZM84.833,80.682V90.971H73.611V80.682Zm-11.222-4V66.3H84.833V76.682ZM84.833,94.971V106.01H73.611V94.971ZM99.291,80.682V90.971H88.833V80.682Zm-10.458-4V66.3H99.291V76.682ZM99.291,94.971V106.01H88.833V94.971Zm4,11.039V66.3h10.9v39.71ZM120.419,62.3H7.581V53.2H120.419ZM76.31,27.514l-7.5-.7L65.837,19.9a2,2,0,0,0-3.674,0l-2.977,6.914-7.5.7a2,2,0,0,0-1.135,3.494l5.655,4.968-1.655,7.343a2,2,0,0,0,2.972,2.159L64,41.635l6.472,3.843a2,2,0,0,0,2.973-2.159l-1.655-7.343,5.656-4.968a2,2,0,0,0-1.136-3.494Zm-8.053,6.24a2,2,0,0,0-.631,1.942l.895,3.971-3.5-2.078a2,2,0,0,0-2.042,0l-3.5,2.078.9-3.971a2,2,0,0,0-.631-1.942l-3.058-2.687,4.053-.376a2,2,0,0,0,1.652-1.2L64,25.752l1.61,3.739a2,2,0,0,0,1.652,1.2l4.053.376Zm-23.223-.428-3.957-.367L39.506,29.31a2,2,0,0,0-3.674,0L34.26,32.959l-3.957.367a2,2,0,0,0-1.135,3.494l2.985,2.622-.874,3.876a2,2,0,0,0,2.972,2.159l3.417-2.028,3.417,2.028a2,2,0,0,0,2.972-2.159l-.874-3.876,2.985-2.622a2,2,0,0,0-1.135-3.494Zm-5.382,3.895a2,2,0,0,0-.631,1.942l.114.5L38.69,39.4a2,2,0,0,0-2.042,0l-.445.264.114-.5a2,2,0,0,0-.631-1.942L35.3,36.88l.515-.048a2,2,0,0,0,1.652-1.2l.2-.475.2.475a2,2,0,0,0,1.652,1.2l.515.048ZM97.7,33.326l-3.956-.367L92.168,29.31a2,2,0,0,0-3.674,0l-1.571,3.649-3.956.367a2,2,0,0,0-1.136,3.494l2.985,2.622-.874,3.876a2,2,0,0,0,2.973,2.159l3.416-2.028,3.416,2.028a2,2,0,0,0,2.973-2.159l-.874-3.876,2.986-2.622A2,2,0,0,0,97.7,33.326Zm-5.383,3.895a2,2,0,0,0-.631,1.942l.113.5-.443-.264a2,2,0,0,0-2.043,0l-.443.264.113-.5a2,2,0,0,0-.631-1.942l-.389-.341.515-.048a2,2,0,0,0,1.652-1.2l.2-.475.205.475a2,2,0,0,0,1.652,1.2l.514.048Z" style="fill:url(#linear-gradient)"/></svg>