<svg id="Layer_1" data-name="Layer 1" xmlns="http://www.w3.org/2000/svg" xmlns:xlink="http://www.w3.org/1999/xlink" viewBox="0 0 128 128"><defs><linearGradient id="linear-gradient" x1="40.485" y1="18.613" x2="118.675" y2="96.802" gradientUnits="userSpaceOnUse"><stop offset="0" stop-color="#ffca6c"/><stop offset="1" stop-color="#ff654f"/></linearGradient></defs><title>MEGAPHONE</title><path d="M8.655,57.707A14.993,14.993,0,0,0,23.631,72.684h1.218v7.654a2,2,0,0,0,2,2h8.338a2,2,0,0,0,2-2V77.591l1.609.32L54.172,108.78a2,2,0,0,0,1.79,1.108H68.689a2,2,0,0,0,1.88-2.682L61.587,82.446l45.421,9.039V95.3a2,2,0,0,0,2,2h8.338a2,2,0,0,0,2-2V20.111a2,2,0,0,0-2-2h-8.338a2,2,0,0,0-2,2V23.93L37.187,37.824V35.077a2,2,0,0,0-2-2H26.849a2,2,0,0,0-2,2v7.654H23.631A14.993,14.993,0,0,0,8.655,57.707ZM111.007,89.844V22.111h4.338V93.3h-4.338ZM65.836,105.889H57.2L43.756,78.9,57,81.534ZM37.187,41.9l69.82-13.895v59.4L37.187,73.512Zm-8.338,28.78V37.077h4.338V78.338H28.849ZM23.631,46.731h1.218V68.684H23.631a10.976,10.976,0,1,1,0-21.952Z" style="fill:url(#linear-gradient)"/></svg>