<svg id="Layer_1" data-name="Layer 1" xmlns="http://www.w3.org/2000/svg" xmlns:xlink="http://www.w3.org/1999/xlink" viewBox="0 0 128 128"><defs><linearGradient id="linear-gradient" x1="33.327" y1="46.922" x2="81.832" y2="95.426" gradientUnits="userSpaceOnUse"><stop offset="0" stop-color="#ffca6c"/><stop offset="1" stop-color="#ff654f"/></linearGradient></defs><title>MICROPHONE</title><path d="M98.7,22.948a9.886,9.886,0,0,0-14.4-.441l-.47.47-9.353-9.353a5.558,5.558,0,0,0-7.851,0l-1.854,1.854a5.539,5.539,0,0,0-.261,7.53L7.47,80.048a2,2,0,0,0,0,2.828l6.056,6.056a2,2,0,0,0,2.828,0l1.108-1.108V104.6h-3.6a2,2,0,0,0-2,2V114a2,2,0,0,0,2,2H35.178a2,2,0,0,0,2-2v-7.4a2,2,0,0,0-2-2h-3.6V73.7L73.365,31.921l.76.76-.47.47a9.886,9.886,0,0,0,.44,14.4l22.55,19.939a9.9,9.9,0,0,0,13.54-.415l8.034-8.034a9.9,9.9,0,0,0,.416-13.54ZM33.178,108.6V112H15.867v-3.4H33.178Zm-11.716-4V83.823l6.121-6.12v26.9Zm6.709-33.142,0,0L18.048,81.581h0L14.94,84.689l-3.227-3.228,55.6-55.6,3.228,3.228ZM68.724,21.623,67.6,20.5a1.553,1.553,0,0,1,0-2.193l1.854-1.854a1.555,1.555,0,0,1,2.194,0L81,25.8l-4.048,4.048-2.174-2.174ZM115.392,56.21l-8.034,8.034a5.9,5.9,0,0,1-8.062.247L76.746,44.552a5.886,5.886,0,0,1-.263-8.572L87.127,25.335a5.827,5.827,0,0,1,4.155-1.725l.188,0A5.836,5.836,0,0,1,95.7,25.6l19.939,22.55A5.9,5.9,0,0,1,115.392,56.21ZM86.039,43.671A2,2,0,1,1,83.211,46.5l-4.154-4.154a2,2,0,0,1,2.828-2.828Zm10.606,3.715a1.994,1.994,0,0,1-1.414-.586l-4.154-4.153a2,2,0,0,1,2.828-2.828l4.154,4.153a2,2,0,0,1-1.414,3.414Zm6.634,8.409a2,2,0,1,1-2.828,2.828L96.3,54.469a2,2,0,0,1,2.828-2.828Zm8.864-4.711a2,2,0,1,1-2.828,2.828l-4.153-4.153a2,2,0,0,1,2.828-2.828Z" style="fill:url(#linear-gradient)"/></svg>