<svg id="Layer_1" data-name="Layer 1" xmlns="http://www.w3.org/2000/svg" xmlns:xlink="http://www.w3.org/1999/xlink" viewBox="0 0 128 128"><defs><linearGradient id="linear-gradient" x1="17.082" y1="17.082" x2="110.918" y2="110.918" gradientUnits="userSpaceOnUse"><stop offset="0" stop-color="#ffca6c"/><stop offset="1" stop-color="#ff654f"/></linearGradient></defs><title>MOVIE POSTER</title><path d="M107.2,14a1.993,1.993,0,0,0-.055-.314c-.011-.041-.024-.081-.038-.121l-.007-.024c-.007-.019-.005-.038-.012-.057s-.008-.013-.011-.02a1.988,1.988,0,0,0-.161-.314c-.01-.016-.016-.033-.026-.048-.023-.035-.051-.066-.076-.1s-.05-.062-.077-.093a1.984,1.984,0,0,0-.178-.186c-.03-.027-.062-.052-.094-.077s-.06-.054-.094-.077c-.009-.006-.016-.014-.024-.02a2,2,0,0,0-.28-.154c-.012-.006-.022-.016-.034-.022l-.012,0c-.047-.021-.1-.034-.147-.051s-.078-.025-.118-.036a1.954,1.954,0,0,0-.231-.051c-.043-.007-.086-.009-.129-.013-.059-.005-.116-.018-.177-.018H22.777c-.061,0-.118.013-.177.018-.043,0-.085.006-.128.013a1.95,1.95,0,0,0-.232.052c-.04.011-.078.023-.118.036s-.1.03-.147.051l-.012,0c-.013.006-.022.016-.034.022a2,2,0,0,0-.28.154c-.009.006-.016.014-.024.02-.033.023-.062.052-.094.077s-.063.05-.094.077a1.984,1.984,0,0,0-.178.186c-.026.031-.052.06-.077.093s-.053.064-.076.1c-.01.015-.016.032-.026.048a1.988,1.988,0,0,0-.161.314c0,.007-.009.013-.011.02s-.006.038-.012.057l-.007.024c-.014.041-.027.08-.038.121A1.993,1.993,0,0,0,20.8,14c0,.042-.011.082-.013.124,0,.026-.008.051-.008.077v99.59c0,.026.007.051.008.077,0,.042.008.082.013.124a1.993,1.993,0,0,0,.055.314c.011.041.024.081.038.121l.007.024c.007.019.005.038.012.057s.008.013.011.02a1.988,1.988,0,0,0,.161.314c.01.016.016.033.026.048.023.035.051.066.076.1s.05.062.077.093a1.984,1.984,0,0,0,.178.186c.03.027.062.052.094.077s.06.054.094.077c.009.006.016.014.024.02a2,2,0,0,0,.28.154c.012.006.022.016.034.022l.014,0c.046.02.1.033.144.05s.078.025.118.036.054.019.082.026.03.011.045.014a2.019,2.019,0,0,0,.394.041l.015,0h82.447l.015,0a2.019,2.019,0,0,0,.394-.041c.015,0,.03-.01.045-.014s.055-.018.082-.026.078-.023.118-.036.1-.029.144-.05l.014,0c.013-.006.022-.016.034-.022a2,2,0,0,0,.28-.154c.009-.006.016-.014.024-.02.033-.023.062-.052.094-.077s.063-.05.094-.077a1.984,1.984,0,0,0,.178-.186c.026-.031.052-.06.077-.093s.053-.064.076-.1c.01-.015.016-.032.026-.048a1.988,1.988,0,0,0,.161-.314c0-.007.009-.013.011-.02s.006-.038.012-.057l.007-.024c.014-.041.027-.08.038-.121A1.993,1.993,0,0,0,107.2,114c0-.042.011-.082.013-.124,0-.026.008-.051.008-.077V14.205c0-.026-.007-.051-.008-.077C107.214,14.086,107.207,14.046,107.2,14Zm-7.186,2.2-5.988,5.4H33.971l-5.988-5.4ZM50.832,76.057c21.2-5.675,35.618-20.022,41.965-27.52v8.422C90.4,60.014,77.068,75.39,50.832,76.057ZM92.8,62.833V102.4H35.2V78.856C66.482,84.222,85.376,70.121,92.8,62.833ZM35.2,74.381V25.6H92.8V42.08C90,45.992,69.4,73.053,35.2,74.381ZM24.777,18.7,31.2,24.492v79.016L24.777,109.3Zm3.206,93.095,5.988-5.4H94.029l5.988,5.4Zm75.24-2.5L96.8,103.508V24.492l6.426-5.792ZM71.962,45.871,45.816,30.855a2,2,0,0,0-3,1.734V62.621a2,2,0,0,0,3,1.734L71.962,49.34a2,2,0,0,0,0-3.469ZM46.82,59.166V36.045L66.95,47.605Zm-1.1,25.621H82.283a2,2,0,0,1,0,4H45.717a2,2,0,0,1,0-4ZM80.488,95.52a2,2,0,0,1-2,2H49.512a2,2,0,0,1,0-4H78.488A2,2,0,0,1,80.488,95.52Z" style="fill:url(#linear-gradient)"/></svg>