<svg id="Layer_1" data-name="Layer 1" xmlns="http://www.w3.org/2000/svg" xmlns:xlink="http://www.w3.org/1999/xlink" viewBox="0 0 128 128"><defs><linearGradient id="linear-gradient" x1="14.616" y1="14.616" x2="113.384" y2="113.384" gradientUnits="userSpaceOnUse"><stop offset="0" stop-color="#ffca6c"/><stop offset="1" stop-color="#ff654f"/></linearGradient></defs><title>ONLINE MOVIE</title><path d="M8.287,106.226H119.714a2,2,0,0,0,2-2V23.774a2,2,0,0,0-2-2H8.287a2,2,0,0,0-2,2v80.451A2,2,0,0,0,8.287,106.226ZM52.654,25.774h65.06V36.456H52.654Zm-12.757,0h8.757V36.456H39.9a6.4,6.4,0,0,0,0-10.682ZM36.369,28.71a2.405,2.405,0,1,1-2.406,2.405A2.408,2.408,0,0,1,36.369,28.71ZM24.691,25.774H32.84a6.4,6.4,0,0,0,0,10.682H24.691a6.4,6.4,0,0,0,0-10.682ZM21.163,28.71a2.405,2.405,0,1,1-2.406,2.405A2.408,2.408,0,0,1,21.163,28.71ZM10.287,25.774h7.348a6.4,6.4,0,0,0,0,10.682H10.287Zm0,14.682H117.714v61.77H10.287Zm93.035,3.688H24.679a2,2,0,0,0-2,2v37.2a2,2,0,0,0,2,2h78.643a2,2,0,0,0,2-2v-37.2A2,2,0,0,0,103.321,44.144Zm-2,37.2H26.679v-33.2h74.643ZM67.348,31.115a2,2,0,0,1-2,2h-5.97a2,2,0,0,1,0-4h5.97A2,2,0,0,1,67.348,31.115Zm15.752,0a2,2,0,0,1-2,2H75.129a2,2,0,0,1,0-4H81.1A2,2,0,0,1,83.1,31.115Zm15.752,0a2,2,0,0,1-2,2H90.881a2,2,0,0,1,0-4h5.971A2,2,0,0,1,98.852,31.115ZM49.194,72.027H45.115V57.463h4.079v5.29h6.7v-5.29h4.079V72.027H55.9V66.4h-6.7Zm33.691-7.294c0-4.794-3.96-7.27-9.589-7.27H67.309V72.027H73.3C78.925,72.027,82.885,69.528,82.885,64.733Zm-11.5-3.573h2.529c2.791,0,4.795.949,4.795,3.573s-2,3.6-4.795,3.6H71.387ZM103.32,91.509H53.9l-8.729-4.821A2,2,0,0,0,42.2,88.438v3.07H24.68a2,2,0,0,0,0,4H42.2v3.069a2,2,0,0,0,2.967,1.751l8.729-4.82H103.32a2,2,0,0,0,0-4ZM46.2,95.188v-3.36l3.043,1.681Z" style="fill:url(#linear-gradient)"/></svg>