<svg id="Layer_1" data-name="Layer 1" xmlns="http://www.w3.org/2000/svg" xmlns:xlink="http://www.w3.org/1999/xlink" viewBox="0 0 128 128"><defs><linearGradient id="linear-gradient" x1="27.781" y1="27.781" x2="100.219" y2="100.219" gradientUnits="userSpaceOnUse"><stop offset="0" stop-color="#ffca6c"/><stop offset="1" stop-color="#ff654f"/></linearGradient></defs><title>PAUSE BUTTON</title><path d="M33.1,25.575A7.531,7.531,0,0,0,25.575,33.1V94.9a7.531,7.531,0,0,0,7.522,7.522H94.9a7.532,7.532,0,0,0,7.522-7.522V33.1A7.532,7.532,0,0,0,94.9,25.575ZM98.425,33.1V94.9A3.526,3.526,0,0,1,94.9,98.425H33.1A3.526,3.526,0,0,1,29.575,94.9V33.1A3.526,3.526,0,0,1,33.1,29.575H94.9A3.526,3.526,0,0,1,98.425,33.1ZM55.544,43.049h-10.1a5.41,5.41,0,0,0-5.4,5.4v31.1a5.41,5.41,0,0,0,5.4,5.4h10.1a5.41,5.41,0,0,0,5.4-5.4v-31.1A5.41,5.41,0,0,0,55.544,43.049Zm1.4,36.5a1.405,1.405,0,0,1-1.4,1.4h-10.1a1.405,1.405,0,0,1-1.4-1.4v-31.1a1.405,1.405,0,0,1,1.4-1.4h10.1a1.405,1.405,0,0,1,1.4,1.4Zm25.6-36.5h-10.1a5.409,5.409,0,0,0-5.4,5.4v31.1a5.409,5.409,0,0,0,5.4,5.4h10.1a5.409,5.409,0,0,0,5.4-5.4v-31.1A5.409,5.409,0,0,0,82.552,43.049Zm1.4,36.5a1.405,1.405,0,0,1-1.4,1.4h-10.1a1.405,1.405,0,0,1-1.4-1.4v-31.1a1.405,1.405,0,0,1,1.4-1.4h10.1a1.405,1.405,0,0,1,1.4,1.4Z" style="fill:url(#linear-gradient)"/></svg>