<svg id="Layer_1" data-name="Layer 1" xmlns="http://www.w3.org/2000/svg" xmlns:xlink="http://www.w3.org/1999/xlink" viewBox="0 0 128 128"><defs><linearGradient id="linear-gradient" x1="27.781" y1="27.781" x2="100.219" y2="100.219" gradientUnits="userSpaceOnUse"><stop offset="0" stop-color="#ffca6c"/><stop offset="1" stop-color="#ff654f"/></linearGradient></defs><title>PLAY BUTTON</title><path d="M94.9,102.425a7.531,7.531,0,0,0,7.522-7.522V33.1A7.531,7.531,0,0,0,94.9,25.575H33.1A7.531,7.531,0,0,0,25.575,33.1V94.9a7.531,7.531,0,0,0,7.522,7.522ZM29.575,94.9V33.1A3.526,3.526,0,0,1,33.1,29.575H94.9A3.526,3.526,0,0,1,98.425,33.1V94.9A3.526,3.526,0,0,1,94.9,98.425H33.1A3.526,3.526,0,0,1,29.575,94.9ZM48.114,82.14a2,2,0,0,0,1.983.028L79.836,65.751a2,2,0,0,0,0-3.5L50.1,45.832a2,2,0,0,0-2.967,1.751V80.417A2,2,0,0,0,48.114,82.14Zm3.017-31.168L74.731,64l-23.6,13.028Z" style="fill:url(#linear-gradient)"/></svg>