<svg id="Layer_1" data-name="Layer 1" xmlns="http://www.w3.org/2000/svg" xmlns:xlink="http://www.w3.org/1999/xlink" viewBox="0 0 128 128"><defs><linearGradient id="linear-gradient" x1="33.752" y1="35.506" x2="114.434" y2="116.188" gradientUnits="userSpaceOnUse"><stop offset="0" stop-color="#ffca6c"/><stop offset="1" stop-color="#ff654f"/></linearGradient></defs><title>POPCORN STAND</title><path d="M10.624,89.584v22.834a2,2,0,0,0,2,2H115.376a2,2,0,0,0,2-2V37.034h.447a2,2,0,0,0,2-2v-13.5a2,2,0,0,0-2-2H67.977a2,2,0,0,0-2,2v13.5a2,2,0,0,0,2,2h.447v5.488a1.983,1.983,0,0,0-.533-.081H45.77a2,2,0,0,0-1.978,2.294l1.09,7.32a1.978,1.978,0,0,0-1.09,2.081l2.327,15.594H42.863V61.2a6.189,6.189,0,0,0-6.182-6.182H36.4V47.882a2,2,0,0,0-2-2H24.205a2,2,0,0,0-2,2v7.132h-.283A6.189,6.189,0,0,0,15.74,61.2v8.533H12.624a2,2,0,0,0-2,2V89.584Zm96.409,20.834L70.343,73.729h4.679l36.689,36.689Zm6.343-3.992-32.7-32.7H91.714L113.375,95.39Zm0-16.692-16-16h4.678l11.327,11.326Zm0-10.335-5.67-5.67h5.67Zm0-9.67H72.423V60.6a2.8,2.8,0,0,1,4.768-2,2,2,0,0,0,3.356-1.006,2.815,2.815,0,0,1,2.738-2.211,2.779,2.779,0,0,1,2.609,1.812,2,2,0,0,0,3.416.557,2.734,2.734,0,0,1,3.837-.459,2,2,0,0,0,3.2-1.354,2.777,2.777,0,0,1,5.437-.437,2,2,0,0,0,2.843,1.222,2.77,2.77,0,0,1,4.041,2.148,2,2,0,0,0,1.953,1.767,2.815,2.815,0,0,1,2.758,2.793Zm0-12.477a6.733,6.733,0,0,0-1.106-.4A6.787,6.787,0,0,0,105.9,52.39a6.506,6.506,0,0,0-1.161.1,6.763,6.763,0,0,0-11.546.439,6.809,6.809,0,0,0-4.964.6,6.771,6.771,0,0,0-10.5.732,6.774,6.774,0,0,0-5.309.136V37.034h40.952Zm2.447-33.715v8.935l-8.935-8.935Zm-14.591,0,9.5,9.5h-3.834l-9.5-9.5Zm-9.491,0,9.5,9.5H94.06l-9.5-9.5Zm-12.834,0,9.5,9.5H84.568l-9.5-9.5Zm-8.929.563,8.935,8.935H69.977Zm31.4,86.319H90.34L53.652,73.73H64.688ZM68.423,63.78v5.949h-.891Zm-4.936,5.949H50.163L48.091,55.84H65.568Zm2.08-23.289-.81,5.4H48.894l-.8-5.4ZM47.995,73.729l36.689,36.689H80.005L43.316,73.729Zm26.354,36.689H63.313L26.625,73.729H37.66ZM26.205,49.882H32.4v5.132H26.205ZM19.74,61.2a2.185,2.185,0,0,1,2.183-2.182H36.681A2.185,2.185,0,0,1,38.863,61.2v8.533H19.74Zm-2,12.533h3.228l36.689,36.689H52.978L16.289,73.729Zm-3.115,3.992,32.7,32.7H36.286L14.625,88.756Zm0,16.692,16,16H25.951L14.625,99.092Zm0,10.335,5.67,5.67h-5.67Zm88.959-65.914H83.1a2,2,0,0,0,0,4h.72v3.975a2,2,0,0,0,2,2h14.311a2,2,0,0,0,2-2V42.834h1.451a2,2,0,0,0,0-4Zm-5.451,5.975H87.822V42.834H98.133Z" style="fill:url(#linear-gradient)"/></svg>