<svg id="Layer_1" data-name="Layer 1" xmlns="http://www.w3.org/2000/svg" xmlns:xlink="http://www.w3.org/1999/xlink" viewBox="0 0 128 128"><defs><linearGradient id="linear-gradient" x1="30.016" y1="27.763" x2="108.536" y2="106.282" gradientUnits="userSpaceOnUse"><stop offset="0" stop-color="#ffca6c"/><stop offset="1" stop-color="#ff654f"/></linearGradient></defs><title>POPCORN</title><path d="M19.238,42.636V52.745a2,2,0,0,0,2,2h2.824l4.08,31.95,1.377,10.784v0l2.674,20.938a2,2,0,0,0,1.983,1.747H93.823a2,2,0,0,0,1.984-1.747l1.119-8.766v-.006L99.561,89.02v-.005l1.584-12.41h0l2.792-21.86h2.824a2,2,0,0,0,2-2V42.636a2,2,0,0,0-2-2H105.07A11.057,11.057,0,0,0,91.311,26.618a9.119,9.119,0,0,0-7.271-3.644,9,9,0,0,0-3.631.755,11.042,11.042,0,0,0-14.256-3.383A11.062,11.062,0,0,0,46,23.426a10.864,10.864,0,0,0-1.44-.1,11.052,11.052,0,0,0-10.354,7.16,9.027,9.027,0,0,0-11.7,10.146H21.238A2,2,0,0,0,19.238,42.636Zm16.7,73.53-1.709-13.388,13.388,13.388Zm17.335,0L33.4,96.294,32.18,86.736l29.431,29.43Zm13.994,0L31.352,80.252l-2.579-20.2L47.866,79.146A17.3,17.3,0,0,0,70.309,101.59l14.577,14.576ZM53.977,71.332a17.464,17.464,0,0,0-4.092,4.089c-.012.017-.026.032-.038.049L29.121,54.745h8.337L54.016,71.3Zm3.13,2.725.1-.061q.432-.257.883-.481a13.311,13.311,0,0,1,17.85,17.856q-.223.448-.479.878l-.062.1a13.462,13.462,0,0,1-4.514,4.51l-.082.05q-.439.262-.9.49a13.311,13.311,0,0,1-17.84-17.864q.221-.444.475-.87l.067-.11A13.462,13.462,0,0,1,57.107,74.057Zm34.956,42.109H90.542L73.985,99.609c.023-.016.044-.035.066-.051a17.463,17.463,0,0,0,4.075-4.083c.009-.012.019-.023.027-.035l14.681,14.68ZM93.475,105.1,80.134,91.765A17.3,17.3,0,0,0,57.691,69.321L43.114,54.745H60.733L95.47,89.481Zm2.635-20.64L66.39,54.745h8.338L97.054,77.072Zm1.584-12.409L80.384,54.745H99.905ZM31.472,34.068A5.054,5.054,0,0,1,34.407,35,2,2,0,0,0,37.55,33.6a7.036,7.036,0,0,1,9.44-5.827,2,2,0,0,0,2.687-1.824A7.051,7.051,0,0,1,63.4,23.864a6.048,6.048,0,0,1-.938,4.71,2,2,0,1,0,3.068,2.565,10.043,10.043,0,0,0,1.954-6.927,7.031,7.031,0,0,1,10.352,3.07,2,2,0,0,0,3.067.776,5.033,5.033,0,0,1,3.132-1.084,5.107,5.107,0,0,1,4.6,2.924,8.383,8.383,0,0,1,.22,3,2,2,0,0,0,1.774,2.2,1.9,1.9,0,0,0,.217.012,2,2,0,0,0,1.985-1.786,14.609,14.609,0,0,0-.029-2.968,6.944,6.944,0,0,1,1.753-.229,7.072,7.072,0,0,1,7.063,7.063,6.963,6.963,0,0,1-.905,3.444H26.6a5.089,5.089,0,0,1,4.874-6.568ZM23.238,44.636h81.523v6.108H23.238Zm79.5-30.1A7.541,7.541,0,1,0,95.2,22.077,7.549,7.549,0,0,0,102.743,14.536Zm-11.082,0A3.541,3.541,0,1,1,95.2,18.077,3.545,3.545,0,0,1,91.661,14.536ZM84.029,10.5a6.041,6.041,0,1,0-6.041,6.041A6.048,6.048,0,0,0,84.029,10.5Zm-8.082,0a2.041,2.041,0,1,1,2.041,2.041A2.044,2.044,0,0,1,75.947,10.5ZM42.984,33a2,2,0,0,1,3.924-.781,3.363,3.363,0,0,0,2.883,2.792,2,2,0,1,1-.6,3.954A7.332,7.332,0,0,1,42.984,33Z" style="fill:url(#linear-gradient)"/></svg>