<svg id="Layer_1" data-name="Layer 1" xmlns="http://www.w3.org/2000/svg" xmlns:xlink="http://www.w3.org/1999/xlink" viewBox="0 0 128 128"><defs><linearGradient id="linear-gradient" x1="22.045" y1="21.359" x2="105.326" y2="104.641" gradientUnits="userSpaceOnUse"><stop offset="0" stop-color="#ffca6c"/><stop offset="1" stop-color="#ff654f"/></linearGradient></defs><title>PREMIUM TICKET</title><path d="M119.811,36.673H7.56a2,2,0,0,0-2,2V87.327a2,2,0,0,0,2,2H119.811a2,2,0,0,0,2-2V38.673A2,2,0,0,0,119.811,36.673ZM73.894,85.327H9.56V40.673H73.894Zm43.917,0H77.894V40.673h39.917ZM19.758,54.177H17.8v-7.86h1.956l2.265,4.1,2.265-4.1h1.957v7.86H24.289V49.623l-2.265,4.1-2.265-4.1Zm13.055.137a4.071,4.071,0,1,0-4.222-4.073A4.208,4.208,0,0,0,32.813,54.314Zm0-6.361a2.3,2.3,0,1,1-2.219,2.289A2.29,2.29,0,0,1,32.813,47.952Zm8.981,6.224-3.112-7.86h2.2l2.014,5.091,2.014-5.091h2.2l-3.112,7.86Zm9.257,0H49.094v-7.86h1.956Zm8.821,0h-6.19v-7.86h6.19v1.75H55.638v1.224h3.844v1.75H55.638v1.385h4.233Zm29.944,9.473a2,2,0,0,0,1.983.028l14.04-7.75a2,2,0,0,0,0-3.5L91.8,44.675a2,2,0,0,0-2.967,1.751v15.5A2,2,0,0,0,89.816,63.649Zm3.017-13.835,7.9,4.362-7.9,4.361ZM83.266,70.474a2,2,0,0,1,2-2h22.321a2,2,0,0,1,0,4H85.266A2,2,0,0,1,83.266,70.474Zm-68.231.133a2,2,0,0,1,2-2H64.018a2,2,0,0,1,0,4H17.035A2,2,0,0,1,15.035,70.606Zm0,8.58a2,2,0,0,1,2-2H47.479a2,2,0,0,1,0,4H17.035A2,2,0,0,1,15.035,79.187Zm0-17.159a2,2,0,0,1,2-2H45.994a2,2,0,1,1,0,4H17.035A2,2,0,0,1,15.035,62.027Zm37.619,0a2,2,0,0,1,2-2h9.364a2,2,0,0,1,0,4H54.654A2,2,0,0,1,52.654,62.027ZM83.266,79.187a2,2,0,0,1,2-2H98.5a2,2,0,1,1,0,4H85.266A2,2,0,0,1,83.266,79.187Z" style="fill:url(#linear-gradient)"/></svg>