<svg id="Layer_1" data-name="Layer 1" xmlns="http://www.w3.org/2000/svg" xmlns:xlink="http://www.w3.org/1999/xlink" viewBox="0 0 128 128"><defs><linearGradient id="linear-gradient" x1="25.766" y1="26.138" x2="102.234" y2="102.607" gradientUnits="userSpaceOnUse"><stop offset="0" stop-color="#ffca6c"/><stop offset="1" stop-color="#ff654f"/></linearGradient></defs><title>PROJECTOR</title><path d="M8.44,84.453h4.445a8.307,8.307,0,0,0,8.046,6.3h5.733a8.308,8.308,0,0,0,8.046-6.3H68.6a26.313,26.313,0,0,0,17.075,6.3A26.022,26.022,0,0,0,95.884,88.7a8.244,8.244,0,0,0,5.456,2.055h5.73a8.28,8.28,0,0,0,8.048-6.3h4.441a2,2,0,0,0,2-2V46.292a2,2,0,0,0-2-2h-2.976v-.807a4.5,4.5,0,0,0-4.5-4.5h-3.564a4.5,4.5,0,0,0-4.5,4.5v.807h-1.282a26.29,26.29,0,0,0-34.15,0h-8.41l-3.854-3.665a12.232,12.232,0,0,0-8.462-3.38H27.752a12.229,12.229,0,0,0-8.462,3.38l-3.855,3.665h-7a2,2,0,0,0-2,2v36.16A2,2,0,0,0,8.44,84.453Zm18.224,2.3H20.931a4.3,4.3,0,0,1-3.806-2.3H30.47A4.305,4.305,0,0,1,26.664,86.752ZM110.105,85.5a4.263,4.263,0,0,1-3.035,1.254h-5.73a4.326,4.326,0,0,1-1.354-.216c.077-.05.149-.106.226-.157.221-.146.437-.3.654-.454.275-.194.549-.39.817-.6.215-.165.426-.336.637-.508.153-.125.312-.241.463-.37h8.094A4.347,4.347,0,0,1,110.105,85.5Zm-2.078-42.013a.5.5,0,0,1,.5-.5h3.564a.5.5,0,0,1,.5.5v.807h-4.557Zm6.557,4.807h2.976v32.16H106.58c.047-.061.086-.127.133-.189.386-.512.759-1.033,1.106-1.57l.007-.01c.347-.538.667-1.093.974-1.654.069-.126.138-.253.205-.38.292-.555.568-1.118.82-1.693.036-.082.068-.166.1-.249q.335-.785.617-1.592c.043-.123.089-.245.13-.368q.3-.887.532-1.794c.032-.125.06-.25.09-.375q.2-.831.352-1.676c.016-.091.036-.182.051-.273.1-.622.178-1.249.235-1.88.013-.145.024-.29.035-.435.048-.645.081-1.292.081-1.943s-.033-1.3-.081-1.943c-.011-.145-.021-.29-.035-.435-.057-.63-.133-1.258-.235-1.879-.015-.092-.035-.183-.051-.274Q111.5,59,111.3,58.167c-.031-.126-.059-.252-.091-.378q-.234-.906-.531-1.791c-.042-.125-.088-.249-.132-.374q-.282-.8-.613-1.582c-.036-.086-.069-.172-.106-.258-.251-.572-.526-1.133-.816-1.686-.069-.131-.139-.26-.21-.39-.305-.558-.623-1.109-.969-1.645l-.017-.025c-.343-.531-.712-1.045-1.093-1.551-.048-.064-.089-.132-.138-.2Zm-43.931-.519h0a22.383,22.383,0,0,1,30.887,32.381q-.415.418-.853.816A22.425,22.425,0,0,1,85.67,86.752,22.386,22.386,0,0,1,70.653,47.774ZM22.047,43.527a8.245,8.245,0,0,1,5.706-2.279H47.869a8.249,8.249,0,0,1,5.706,2.279l.8.766H21.241ZM10.44,48.292H64.76c-.047.061-.087.127-.133.189-.387.514-.762,1.036-1.11,1.575l0,0c-.348.54-.669,1.1-.977,1.659-.068.124-.135.247-.2.372-.293.558-.57,1.123-.823,1.7-.034.078-.064.158-.1.236q-.338.793-.623,1.607c-.042.12-.087.239-.127.36q-.3.889-.534,1.8c-.032.123-.059.247-.089.37q-.2.835-.353,1.683c-.016.089-.035.178-.05.267-.1.623-.178,1.251-.236,1.883-.013.144-.024.288-.034.432-.048.646-.081,1.293-.081,1.945s.033,1.3.081,1.945c.011.144.021.288.034.432.057.632.133,1.26.236,1.883.015.089.034.178.05.267q.148.848.353,1.683c.03.124.058.248.09.372q.235.908.533,1.8c.041.122.086.243.129.365q.284.808.619,1.6c.035.081.066.164.1.245.252.575.528,1.139.82,1.695.067.127.136.253.2.38.306.56.626,1.114.973,1.652l.012.018c.344.532.714,1.049,1.1,1.556.048.064.089.132.138.2H10.44ZM85.673,80.127A15.755,15.755,0,1,0,69.918,64.373,15.772,15.772,0,0,0,85.673,80.127Zm0-27.51A11.755,11.755,0,1,1,73.918,64.373,11.768,11.768,0,0,1,85.673,52.618ZM19.05,76.834H51.016a5.811,5.811,0,1,0,0-11.621H19.05a5.811,5.811,0,1,0,0,11.621Zm0-7.621H51.016a1.811,1.811,0,1,1,0,3.621H19.05a1.811,1.811,0,1,1,0-3.621ZM15.34,58.03a2,2,0,0,1,2-2H22.5a2,2,0,1,1,0,4H17.34A2,2,0,0,1,15.34,58.03Zm15.112,0a2,2,0,0,1,2-2h5.163a2,2,0,0,1,0,4H32.452A2,2,0,0,1,30.452,58.03Zm15.112,0a2,2,0,0,1,2-2h5.164a2,2,0,0,1,0,4H47.563A2,2,0,0,1,45.563,58.03Z" style="fill:url(#linear-gradient)"/></svg>