<svg id="Layer_1" data-name="Layer 1" xmlns="http://www.w3.org/2000/svg" xmlns:xlink="http://www.w3.org/1999/xlink" viewBox="0 0 128 128"><defs><linearGradient id="linear-gradient" x1="31.207" y1="51.799" x2="96.793" y2="117.386" gradientUnits="userSpaceOnUse"><stop offset="0" stop-color="#ffca6c"/><stop offset="1" stop-color="#ff654f"/></linearGradient></defs><title>RATING STAR</title><path d="M98.619,54.277,75.157,52.1l-9.32-21.642a2,2,0,0,0-3.674,0L52.843,52.1,29.381,54.277a2,2,0,0,0-1.136,3.494l17.7,15.551L40.767,96.31a2,2,0,0,0,2.973,2.16L64,86.439l20.261,12.03a2,2,0,0,0,2.973-2.16L82.052,73.323l17.7-15.551a2,2,0,0,0-1.136-3.494ZM78.52,71.1a2,2,0,0,0-.631,1.942L82.31,92.659,65.021,82.393a2,2,0,0,0-2.043,0L45.69,92.659l4.421-19.615A2,2,0,0,0,49.48,71.1L34.374,57.832l20.021-1.857a2,2,0,0,0,1.652-1.2L64,36.307l7.953,18.467a2,2,0,0,0,1.652,1.2l20.021,1.857ZM22.991,65.226a2,2,0,0,0-1.837,1.209L17.211,75.59l-9.927.92A2,2,0,0,0,6.148,80l7.49,6.58L11.447,96.31a2,2,0,0,0,2.973,2.159l8.571-5.09,8.571,5.09a2,2,0,0,0,2.973-2.16l-2.192-9.725L39.833,80A2,2,0,0,0,38.7,76.511l-9.927-.92-3.942-9.156A2,2,0,0,0,22.991,65.226Zm4.228,14.238,6.484.6-4.893,4.3a2,2,0,0,0-.631,1.942l1.432,6.353-5.6-3.325a2,2,0,0,0-2.043,0l-5.6,3.325L17.8,86.305a2,2,0,0,0-.631-1.942l-4.893-4.3,6.484-.6a2,2,0,0,0,1.652-1.2l2.576-5.981,2.575,5.981A2,2,0,0,0,27.219,79.464Zm95.215-1.58a2,2,0,0,0-1.718-1.374l-9.927-.92-3.943-9.156a2,2,0,0,0-3.674,0L99.229,75.59l-9.927.92A2,2,0,0,0,88.167,80l7.49,6.58L93.465,96.31a2,2,0,0,0,2.973,2.16l8.571-5.09,8.571,5.09a2,2,0,0,0,2.973-2.159l-2.191-9.726,7.49-6.58A2,2,0,0,0,122.434,77.884Zm-11.6,6.479a2,2,0,0,0-.631,1.942l1.432,6.354-5.6-3.325a2,2,0,0,0-2.043,0l-5.6,3.325,1.432-6.353a2,2,0,0,0-.631-1.942l-4.893-4.3,6.484-.6a2,2,0,0,0,1.652-1.2l2.575-5.981,2.576,5.981a2,2,0,0,0,1.652,1.2l6.484.6Z" style="fill:url(#linear-gradient)"/></svg>