<svg id="Layer_1" data-name="Layer 1" xmlns="http://www.w3.org/2000/svg" xmlns:xlink="http://www.w3.org/1999/xlink" viewBox="0 0 128 128"><defs><linearGradient id="linear-gradient" x1="32.843" y1="32.843" x2="95.158" y2="95.158" gradientUnits="userSpaceOnUse"><stop offset="0" stop-color="#ffca6c"/><stop offset="1" stop-color="#ff654f"/></linearGradient></defs><title>RATING</title><path d="M9.555,121.041H26.637a2,2,0,0,0,2-2v-.83H34.5a11.734,11.734,0,0,1,6.7,2.089,15.667,15.667,0,0,0,8.98,2.8H62.408a11.629,11.629,0,0,0,11.616-11.616V89.545a11.624,11.624,0,0,0-11.616-11.6h-4.1a8.572,8.572,0,0,0,.524-2.946V65.071a8.137,8.137,0,0,0-8.381-8.125,8.334,8.334,0,0,0-7.882,8.381v.627A13.614,13.614,0,0,1,35.46,77.94H28.637v-.829a2,2,0,0,0-2-2H9.555a2,2,0,0,0-2,2v41.929A2,2,0,0,0,9.555,121.041Zm19.083-39.1h7.317a2,2,0,0,0,.9-.216A17.6,17.6,0,0,0,46.57,65.954v-.627a4.3,4.3,0,0,1,4-4.383,4.151,4.151,0,0,1,3.014,1.173,4.091,4.091,0,0,1,1.249,2.954v9.924A4.556,4.556,0,0,1,53.74,77.94H48.41a2,2,0,0,0,0,4h14a7.619,7.619,0,0,1,7.616,7.6v21.943a7.624,7.624,0,0,1-7.616,7.616H50.176a11.689,11.689,0,0,1-6.7-2.092,15.722,15.722,0,0,0-8.976-2.8h-5.86ZM11.555,79.111H24.637v37.929H11.555ZM22.28,106.822v5.053a2,2,0,0,1-4,0v-5.053a2,2,0,0,1,4,0ZM65.593,50.06h4.1a8.572,8.572,0,0,0-.524,2.946v9.924a8.138,8.138,0,0,0,8.147,8.129c.078,0,.156,0,.234,0a8.333,8.333,0,0,0,7.882-8.381v-.627A13.614,13.614,0,0,1,92.539,50.06h6.824v.829a2,2,0,0,0,2,2h17.082a2,2,0,0,0,2-2V8.959a2,2,0,0,0-2-2H101.363a2,2,0,0,0-2,2v.83H93.5A11.738,11.738,0,0,1,86.8,7.7a15.661,15.661,0,0,0-8.979-2.8H65.593A11.629,11.629,0,0,0,53.977,16.512V38.455A11.624,11.624,0,0,0,65.593,50.06Zm37.771-2v-37.1h13.082V48.889H103.363ZM57.977,16.512A7.624,7.624,0,0,1,65.593,8.9H77.824a11.687,11.687,0,0,1,6.7,2.092,15.723,15.723,0,0,0,8.977,2.8h5.86V46.06H92.045a2,2,0,0,0-.9.216A17.6,17.6,0,0,0,81.43,62.046v.627a4.3,4.3,0,0,1-4,4.383,4.138,4.138,0,0,1-4.263-4.127V53.005A4.556,4.556,0,0,1,74.26,50.06h5.33a2,2,0,0,0,0-4h-14a7.619,7.619,0,0,1-7.616-7.6Zm51.744-.387v5.053a2,2,0,0,1-4,0V16.125a2,2,0,0,1,4,0Z" style="fill:url(#linear-gradient)"/></svg>