<svg id="Layer_1" data-name="Layer 1" xmlns="http://www.w3.org/2000/svg" xmlns:xlink="http://www.w3.org/1999/xlink" viewBox="0 0 128 128"><defs><linearGradient id="linear-gradient" x1="12.723" y1="26.041" x2="115.277" y2="128.596" gradientUnits="userSpaceOnUse"><stop offset="0" stop-color="#ffca6c"/><stop offset="1" stop-color="#ff654f"/></linearGradient></defs><title>RED CARPET</title><path d="M22.38,117.012v-5.644a2,2,0,0,0-2-2H18.348V69.244a8.406,8.406,0,0,0,2.97.565,8.06,8.06,0,0,0,3.435-.78,11.367,11.367,0,0,0,4.011-3.318V75.992H27.326a2,2,0,0,0-2,2V83.8a2,2,0,0,0,2,2H41.313a2,2,0,0,0,2-2v-5.81a2,2,0,0,0-2-2H39.877v-44.3A1.991,1.991,0,0,0,40.9,29.96V24.15a1.987,1.987,0,0,0-.141-.727,8.993,8.993,0,1,0-12.876,0,1.987,1.987,0,0,0-.141.727v5.81a1.991,1.991,0,0,0,1.022,1.735V57.311c-1.664,4.587-3.713,7.165-5.7,8.094a4.55,4.55,0,0,1-4.712-.645V56.833A2,2,0,0,0,19.547,55V49.358a1.978,1.978,0,0,0-.236-.924,10.206,10.206,0,1,0-14.275,0,1.977,1.977,0,0,0-.236.923V55A2,2,0,0,0,6,56.833v52.535H3.967a2,2,0,0,0-2,2v5.644a2,2,0,0,0,2,2H20.38A2,2,0,0,0,22.38,117.012ZM34.319,12.164a4.993,4.993,0,1,1-4.993,4.993A5,5,0,0,1,34.319,12.164Zm.01,15.8H31.74V26.15H36.9v1.81Zm1.548,13.31V75.992H32.763v-18.1A71.058,71.058,0,0,0,35.877,41.27ZM29.326,79.992h9.986V81.8H29.326ZM5.967,41.152a6.207,6.207,0,1,1,6.206,6.206A6.213,6.213,0,0,1,5.967,41.152ZM8.8,53V51.358h6.747V53Zm5.548,4v52.365H10V57Zm4.032,58.009H5.967v-1.644H18.38Zm97.447-84.066a10.2,10.2,0,0,0-7.138,17.489,1.978,1.978,0,0,0-.236.924V55a2,2,0,0,0,1.2,1.831V64.76a4.551,4.551,0,0,1-4.712.646c-1.99-.929-4.039-3.507-5.7-8.094V31.695a1.991,1.991,0,0,0,1.022-1.735V24.15a1.987,1.987,0,0,0-.141-.727,8.993,8.993,0,1,0-12.876,0,1.987,1.987,0,0,0-.141.727v5.81a1.991,1.991,0,0,0,1.021,1.734v44.3H86.688a2,2,0,0,0-2,2V83.8a2,2,0,0,0,2,2h13.986a2,2,0,0,0,2-2v-5.81a2,2,0,0,0-2-2H99.237V65.711a11.367,11.367,0,0,0,4.011,3.318,8.06,8.06,0,0,0,3.435.78,8.406,8.406,0,0,0,2.97-.565v40.124H107.62a2,2,0,0,0-2,2v5.644a2,2,0,0,0,2,2h16.413a2,2,0,0,0,2-2v-5.644a2,2,0,0,0-2-2H122V56.833A2,2,0,0,0,123.2,55V49.358a1.977,1.977,0,0,0-.236-.923,10.2,10.2,0,0,0-7.137-17.489ZM98.674,81.8H88.688v-1.81h9.986ZM93.69,27.96H91.1V26.15H96.26v1.81Zm1.547,29.928v18.1H92.123V41.27A71.058,71.058,0,0,0,95.237,57.888ZM93.681,22.15a4.993,4.993,0,1,1,4.993-4.993A5,5,0,0,1,93.681,22.15Zm28.353,91.218v1.644H109.62v-1.644h12.413ZM112.453,53V51.358H119.2V53ZM118,57v52.365h-4.35V57Zm-2.175-9.645a6.206,6.206,0,1,1,6.206-6.206A6.213,6.213,0,0,1,115.827,47.358ZM75.044,74.042a2,2,0,0,0-1.684-.92H54.64a2,2,0,0,0-1.684.92L25.568,116.756a2,2,0,0,0,1.684,3.08h73.5a2,2,0,0,0,1.684-3.08ZM30.91,115.836,55.733,77.122H72.267L97.09,115.836Z" style="fill:url(#linear-gradient)"/></svg>