<svg id="Layer_1" data-name="Layer 1" xmlns="http://www.w3.org/2000/svg" xmlns:xlink="http://www.w3.org/1999/xlink" viewBox="0 0 128 128"><defs><linearGradient id="linear-gradient" x1="22.341" y1="23.874" x2="104.324" y2="105.858" gradientUnits="userSpaceOnUse"><stop offset="0" stop-color="#ffca6c"/><stop offset="1" stop-color="#ff654f"/></linearGradient></defs><title>SCRIPT</title><path d="M99.018,29.735H88.678V21.4a2,2,0,0,0-2-2H80.53V17.669a8.278,8.278,0,0,0-16.556,0V19.4H27.647a2,2,0,0,0-2,2V98a2,2,0,0,0,2,2H37.986v8.34a2,2,0,0,0,2,2H99.018a2,2,0,0,0,2-2v-76.6A2,2,0,0,0,99.018,29.735ZM80.53,23.4h4.147v6.339H80.53ZM67.975,17.669a4.278,4.278,0,0,1,8.556,0V19.4H74.253V17.932a2,2,0,0,0-4,0V19.4H67.975ZM37.986,31.735V96H29.647V23.4H76.53v6.339H39.986A2,2,0,0,0,37.986,31.735Zm59.031,74.6H41.986v-72.6H76.53v4.1a2,2,0,0,0,4,0v-4.1H97.018ZM47.259,46.478a2,2,0,0,1,2-2H61.983a2,2,0,0,1,0,4H49.259A2,2,0,0,1,47.259,46.478Zm2,14.344H89.745a2,2,0,0,1,0,4H49.259a2,2,0,0,1,0-4Zm42.486,12.46a2,2,0,0,1-2,2H49.259a2,2,0,0,1,0-4H89.745A2,2,0,0,1,91.745,73.281Zm0,10.46a2,2,0,0,1-2,2H49.259a2,2,0,0,1,0-4H89.745A2,2,0,0,1,91.745,83.741Zm0,10.461a2,2,0,0,1-2,2H49.259a2,2,0,0,1,0-4H89.745A2,2,0,0,1,91.745,94.2Z" style="fill:url(#linear-gradient)"/></svg>