<svg id="Layer_1" data-name="Layer 1" xmlns="http://www.w3.org/2000/svg" xmlns:xlink="http://www.w3.org/1999/xlink" viewBox="0 0 128 128"><defs><linearGradient id="linear-gradient" x1="23.986" y1="34.939" x2="104.014" y2="114.967" gradientUnits="userSpaceOnUse"><stop offset="0" stop-color="#ffca6c"/><stop offset="1" stop-color="#ff654f"/></linearGradient></defs><title>SEAT</title><path d="M102.792,99.938a6.691,6.691,0,0,0,6.684-6.684V81.209a6.693,6.693,0,0,0-4.765-6.4,8.673,8.673,0,0,0,1.61-5.041,8.77,8.77,0,0,0-8.761-8.761H95.9v-21a31.9,31.9,0,0,0-63.795,0v21H30.439a8.747,8.747,0,0,0-7.153,13.8,6.693,6.693,0,0,0-4.762,6.4V93.255a6.691,6.691,0,0,0,6.684,6.684h7.22v9.327H31.1a5.31,5.31,0,0,0,0,10.619H43.46a5.31,5.31,0,1,0,0-10.619H42.5V99.938H85.869v9.327H84.54a5.31,5.31,0,1,0,0,10.619H96.9a5.31,5.31,0,0,0,0-10.619h-.956V99.938ZM93.9,65.008h3.663a4.754,4.754,0,0,1,3.356,8.128,4.686,4.686,0,0,1-3.326,1.39H92.157A4.759,4.759,0,0,1,88.831,66.4a4.688,4.688,0,0,1,3.354-1.393Zm-57.795-25a27.9,27.9,0,0,1,55.795,0v21c-.1,0-.2.017-.3.024-.135.009-.27.017-.4.032s-.3.041-.442.065c-.131.021-.262.041-.392.068-.146.031-.29.07-.434.109-.126.034-.253.064-.377.1-.143.045-.283.1-.423.152-.121.045-.242.086-.361.137-.141.06-.276.129-.414.2-.113.055-.227.106-.337.166-.14.076-.275.163-.411.248-.1.063-.2.12-.3.187-.147.1-.287.211-.429.32-.081.062-.165.119-.244.185q-.325.27-.627.573a8.633,8.633,0,0,0-2.475,7.342c.013.1.029.2.045.3a8.7,8.7,0,0,0,.216.966c.013.047.022.095.036.141a8.686,8.686,0,0,0,.391,1.026c.038.085.08.167.121.251a8.745,8.745,0,0,0,.439.793c.027.043.046.09.073.133H43.166c.025-.038.041-.08.066-.119a8.642,8.642,0,0,0,.457-.83c.042-.086.083-.171.122-.258a8.645,8.645,0,0,0,.387-1.03c.011-.037.018-.076.028-.113a8.73,8.73,0,0,0,.215-.985c.016-.1.03-.194.043-.291a8.306,8.306,0,0,0,.036-2.016c-.01-.1-.031-.2-.045-.3-.026-.189-.048-.378-.086-.562-.023-.116-.058-.227-.086-.342-.04-.164-.077-.33-.126-.49-.036-.118-.083-.232-.125-.348-.054-.151-.1-.3-.165-.449-.049-.118-.108-.23-.162-.345-.065-.139-.127-.28-.2-.415-.061-.113-.131-.221-.2-.331-.077-.13-.151-.261-.235-.386-.072-.107-.151-.208-.227-.312-.088-.121-.174-.243-.268-.359-.082-.1-.171-.194-.256-.291s-.195-.223-.3-.329-.189-.178-.284-.267-.214-.2-.327-.3-.205-.161-.309-.24-.232-.181-.354-.265-.222-.143-.334-.213-.247-.157-.375-.228-.238-.123-.357-.183-.26-.132-.395-.191-.251-.1-.378-.149-.272-.106-.412-.151-.264-.077-.4-.114-.283-.079-.428-.11-.274-.052-.412-.076-.293-.05-.441-.068-.285-.026-.429-.035c-.1-.007-.2-.022-.308-.025ZM27.083,66.4a4.693,4.693,0,0,1,3.356-1.394h5.375a4.762,4.762,0,0,1,3.354,8.129,4.681,4.681,0,0,1-3.324,1.389H30.41A4.752,4.752,0,0,1,27.083,66.4ZM43.46,113.266a1.31,1.31,0,1,1,0,2.619H31.1a1.31,1.31,0,0,1,0-2.619H43.46Zm-7.032-4V99.938H38.5v9.327Zm60.474,4a1.31,1.31,0,0,1,0,2.619H84.54a1.31,1.31,0,1,1,0-2.619H96.9Zm-7.032-4V99.938h2.076v9.327Zm4.076-13.327H25.208a2.687,2.687,0,0,1-2.684-2.684V81.209a2.687,2.687,0,0,1,2.684-2.684h5.174l.058,0H97.561l.06,0h5.171a2.687,2.687,0,0,1,2.684,2.684V93.255a2.687,2.687,0,0,1-2.684,2.684ZM56.622,36.646a2,2,0,0,0,2.828,0l2.009-2.009a5.579,5.579,0,0,0,4.614,0l2.009,2.009a2,2,0,0,0,2.828-2.828L68.9,31.808a5.579,5.579,0,0,0,0-4.614l2.009-2.009a2,2,0,0,0-2.828-2.828l-2.009,2.009a5.579,5.579,0,0,0-4.614,0L59.45,22.357a2,2,0,0,0-2.828,2.828l2.009,2.009a5.579,5.579,0,0,0,0,4.614l-2.009,2.009A2,2,0,0,0,56.622,36.646Zm7.144-8.778A1.634,1.634,0,1,1,62.132,29.5,1.637,1.637,0,0,1,63.766,27.867Zm9.459,25.381a2,2,0,0,0,2.828,0l2.009-2.009a5.578,5.578,0,0,0,4.613,0l2.008,2.009a2,2,0,0,0,2.828-2.828L85.5,48.411a5.579,5.579,0,0,0,0-4.614l2.008-2.009a2,2,0,0,0-2.828-2.828l-2.008,2.009a5.579,5.579,0,0,0-4.614,0L76.053,38.96a2,2,0,0,0-2.828,2.828L75.234,43.8a5.579,5.579,0,0,0,0,4.614L73.225,50.42A2,2,0,0,0,73.225,53.248Zm7.144-8.778A1.634,1.634,0,1,1,78.734,46.1,1.636,1.636,0,0,1,80.368,44.47Zm-39.88,8.31a2,2,0,0,0,2.828,0l2.008-2.009a5.579,5.579,0,0,0,4.614,0l2.009,2.009a2,2,0,0,0,2.828-2.828l-2.009-2.009a5.579,5.579,0,0,0,0-4.614l2.009-2.008a2,2,0,0,0-2.828-2.828L49.939,40.5a5.579,5.579,0,0,0-4.614,0l-2.008-2.008a2,2,0,0,0-2.828,2.828L42.5,43.328a5.578,5.578,0,0,0,0,4.614l-2.008,2.009A2,2,0,0,0,40.488,52.779ZM47.632,44A1.634,1.634,0,1,1,46,45.636,1.636,1.636,0,0,1,47.632,44ZM71.378,55.094a2,2,0,0,0-2.828,0L66.541,57.1a5.579,5.579,0,0,0-4.614,0l-2.009-2.009a2,2,0,0,0-2.828,2.828L59.1,59.931a5.578,5.578,0,0,0,0,4.614L57.09,66.554a2,2,0,1,0,2.828,2.828l2.009-2.009a5.579,5.579,0,0,0,4.614,0l2.009,2.009a2,2,0,0,0,2.828-2.828l-2.009-2.009a5.579,5.579,0,0,0,0-4.614l2.009-2.009A2,2,0,0,0,71.378,55.094Zm-7.144,8.778a1.634,1.634,0,1,1,1.634-1.634A1.636,1.636,0,0,1,64.234,63.872Z" style="fill:url(#linear-gradient)"/></svg>