<svg id="Layer_1" data-name="Layer 1" xmlns="http://www.w3.org/2000/svg" xmlns:xlink="http://www.w3.org/1999/xlink" viewBox="0 0 128 128"><defs><linearGradient id="linear-gradient" x1="24.025" y1="24.025" x2="103.975" y2="103.975" gradientUnits="userSpaceOnUse"><stop offset="0" stop-color="#ffca6c"/><stop offset="1" stop-color="#ff654f"/></linearGradient></defs><title>SHUTTER</title><path d="M102.479,40.423l-.01-.016A44.857,44.857,0,0,0,64,18.878c-.378,0-.744,0-1.1.014l-.074,0-.031,0A45.26,45.26,0,0,0,24.379,42.4c-.013.023-.023.047-.036.07l-.011.022a45.158,45.158,0,0,0,1.146,45.021c.014.022.029.043.043.065l.01.016A44.857,44.857,0,0,0,64,109.122c.361,0,.707,0,1.047-.013H65.1A45.262,45.262,0,0,0,103.621,85.6c.013-.023.023-.047.036-.07l.011-.022a45.158,45.158,0,0,0-1.146-45.021C102.508,40.466,102.492,40.446,102.479,40.423ZM64.108,22.881A40.822,40.822,0,0,1,97.036,39.532H77c-.01,0-.019,0-.029,0H54.494ZM87.636,64l-5.046,8.74L75.818,84.468H52.187L40.364,64l5.046-8.74,6.772-11.726H75.813ZM59.324,23.167,49.3,40.515l-.01.013-5.887,10.2L38.053,60l-9.6-16.628A41.259,41.259,0,0,1,59.324,23.167ZM22.878,64A41.2,41.2,0,0,1,26.29,47.629L36.315,64.987l.005.013L47.56,84.468H28.35A40.994,40.994,0,0,1,22.878,64Zm41.014,41.119A40.823,40.823,0,0,1,30.964,88.468H51c.01,0,.019,0,.029,0h22.48Zm4.784-.286L78.7,87.485l.01-.013,5.887-10.2L89.947,68l9.6,16.628A41.259,41.259,0,0,1,68.676,104.833ZM101.71,80.371,91.685,63.013,91.679,63,80.44,43.532H99.65a41,41,0,0,1,2.059,36.839ZM69.592,7.731C67.719,7.552,65.838,7.46,64,7.46A56.556,56.556,0,0,0,7.46,64a56.068,56.068,0,0,0,5.013,23.291,56.636,56.636,0,0,0,45.936,32.978c1.873.18,3.754.271,5.592.271A56.556,56.556,0,0,0,120.54,64a56.068,56.068,0,0,0-5.013-23.291A56.636,56.636,0,0,0,69.592,7.731Zm37.089,86.9,0,0A52.625,52.625,0,0,1,64,116.54c-1.71,0-3.463-.085-5.2-.253A52.543,52.543,0,0,1,64,11.46c1.71,0,3.463.085,5.2.253a52.536,52.536,0,0,1,37.477,82.916Z" style="fill:url(#linear-gradient)"/></svg>