<svg id="Layer_1" data-name="Layer 1" xmlns="http://www.w3.org/2000/svg" xmlns:xlink="http://www.w3.org/1999/xlink" viewBox="0 0 128 128"><defs><linearGradient id="linear-gradient" x1="13.197" y1="20.666" x2="114.803" y2="122.273" gradientUnits="userSpaceOnUse"><stop offset="0" stop-color="#ffca6c"/><stop offset="1" stop-color="#ff654f"/></linearGradient></defs><title>SOFA</title><path d="M121.465,76.888a8.6,8.6,0,0,0-2.512-13.854V36.592A28.471,28.471,0,0,0,64,26.129,28.471,28.471,0,0,0,9.048,36.592V63.055a8.323,8.323,0,0,0-2.473,1.711A8.607,8.607,0,0,0,6.524,76.9a6.565,6.565,0,0,0-2.479,5.136V93.808a6.586,6.586,0,0,0,6.579,6.579h3.6v9.027H12.974a5.235,5.235,0,1,0,0,10.471H25.058a5.235,5.235,0,0,0,0-10.471h-.89v-9.027H104.2v9.027h-1.255a5.235,5.235,0,0,0,0,10.471h12.084a5.235,5.235,0,1,0,0-10.471h-.89v-9.027h3.239a6.586,6.586,0,0,0,6.579-6.579V82.032A6.565,6.565,0,0,0,121.465,76.888ZM116.476,66.4a4.59,4.59,0,0,1,2.112,7.717A4.332,4.332,0,0,1,116.5,75.3c-.034.008-.067.017-.1.026a3.762,3.762,0,0,1-1,.131h-5.333a4.607,4.607,0,0,1-3.218-7.866,4.535,4.535,0,0,1,3.247-1.348h5.255A3.978,3.978,0,0,1,116.476,66.4ZM66,36.592a24.476,24.476,0,1,1,48.952,0V62.24h-4.864a8.606,8.606,0,0,0-8.6,8.608,8.619,8.619,0,0,0,.08,1.114c.013.1.029.2.045.3a8.552,8.552,0,0,0,.2.89c.017.062.029.125.048.186a8.527,8.527,0,0,0,.373,1c.034.077.073.151.109.227a8.579,8.579,0,0,0,.413.76c.027.044.046.093.074.136H66Zm-52.952,0a24.476,24.476,0,1,1,48.952,0V75.454H25.18c.031-.049.052-.1.082-.152a8.488,8.488,0,0,0,.409-.758c.039-.082.08-.163.117-.247a8.472,8.472,0,0,0,.368-1c.016-.053.025-.107.04-.16a8.557,8.557,0,0,0,.2-.91c.015-.1.03-.191.042-.287a8.737,8.737,0,0,0,.077-1.095,8.612,8.612,0,0,0-8.6-8.608H13.048ZM9.413,67.585A4.325,4.325,0,0,1,11.5,66.4c.034-.008.067-.017.1-.026a3.788,3.788,0,0,1,1.052-.134h5.255a4.609,4.609,0,0,1,3.247,7.869,4.531,4.531,0,0,1-3.217,1.345H12.611a3.965,3.965,0,0,1-1.087-.152,4.589,4.589,0,0,1-2.111-7.717Zm15.645,45.829a1.235,1.235,0,0,1,0,2.471H12.974a1.235,1.235,0,1,1,0-2.471H25.058Zm-6.83-4v-9.027h1.94v9.027Zm96.8,4a1.235,1.235,0,1,1,0,2.471H102.942a1.235,1.235,0,0,1,0-2.471h12.084Zm-6.829-4v-9.027h1.939v9.027Zm11.758-15.606a2.582,2.582,0,0,1-2.579,2.579H10.624a2.582,2.582,0,0,1-2.579-2.579V82.032a2.582,2.582,0,0,1,2.579-2.578h.395c.01,0,.019,0,.029,0H115.343c.016,0,.03,0,.046,0h1.987a2.582,2.582,0,0,1,2.579,2.578ZM30.827,33.771a2,2,0,0,0,2.828,0L35.323,32.1a5.172,5.172,0,0,0,3.984,0l1.668,1.668A2,2,0,0,0,43.8,30.942l-1.668-1.668a5.171,5.171,0,0,0,0-3.983L43.8,23.622a2,2,0,0,0-2.828-2.828l-1.668,1.668a5.172,5.172,0,0,0-3.984,0l-1.668-1.669a2,2,0,0,0-2.828,2.828L32.5,25.291a5.171,5.171,0,0,0,0,3.983l-1.668,1.669A2,2,0,0,0,30.827,33.771Zm6.488-7.707A1.219,1.219,0,1,1,36.1,27.282,1.22,1.22,0,0,1,37.315,26.063Zm8.215,22.41a2,2,0,0,0,2.828,0l1.668-1.668a5.171,5.171,0,0,0,3.983,0l1.669,1.668a2,2,0,0,0,2.828-2.828l-1.669-1.668a5.172,5.172,0,0,0,0-3.984l1.668-1.668A2,2,0,0,0,55.679,35.5L54.01,37.166a5.172,5.172,0,0,0-3.984,0L48.358,35.5a2,2,0,0,0-2.828,2.828L47.2,39.994a5.171,5.171,0,0,0,0,3.983L45.53,45.646A2,2,0,0,0,45.53,48.474Zm6.488-7.707A1.219,1.219,0,1,1,50.8,41.985,1.22,1.22,0,0,1,52.019,40.767ZM19.366,48.06l1.669-1.669a5.17,5.17,0,0,0,3.983,0l1.669,1.669a2,2,0,0,0,2.828-2.828l-1.669-1.669a5.17,5.17,0,0,0,0-3.983l1.669-1.669a2,2,0,0,0-2.828-2.828l-1.669,1.669a5.17,5.17,0,0,0-3.983,0l-1.669-1.669a2,2,0,0,0-2.828,2.828l1.669,1.669a5.17,5.17,0,0,0,0,3.983l-1.669,1.669a2,2,0,1,0,2.828,2.828Zm3.66-7.707a1.218,1.218,0,1,1-1.218,1.218A1.219,1.219,0,0,1,23.026,40.353Zm21.192,9.433a2,2,0,0,0-2.828,0l-1.669,1.669a5.17,5.17,0,0,0-3.983,0l-1.669-1.669a2,2,0,0,0-2.828,2.828l1.669,1.669a5.17,5.17,0,0,0,0,3.983l-1.669,1.669a2,2,0,1,0,2.828,2.828l1.669-1.669a5.17,5.17,0,0,0,3.983,0l1.669,1.669a2,2,0,0,0,2.828-2.828l-1.669-1.669a5.17,5.17,0,0,0,0-3.983l1.669-1.669A2,2,0,0,0,44.219,49.785Zm-6.489,7.707a1.218,1.218,0,1,1,1.219-1.218A1.219,1.219,0,0,1,37.729,57.492ZM83.781,33.771a2,2,0,0,0,2.828,0L88.278,32.1a5.171,5.171,0,0,0,3.984,0l1.669,1.669a2,2,0,0,0,2.828-2.828L95.09,29.273a5.171,5.171,0,0,0,0-3.982l1.669-1.669a2,2,0,0,0-2.828-2.828l-1.669,1.669a5.171,5.171,0,0,0-3.984,0l-1.669-1.669a2,2,0,0,0-2.828,2.828l1.669,1.669a5.171,5.171,0,0,0,0,3.982l-1.669,1.669A2,2,0,0,0,83.781,33.771Zm6.488-7.707a1.219,1.219,0,1,1-1.218,1.219A1.22,1.22,0,0,1,90.27,26.063Zm14.7,21.141a5.183,5.183,0,0,0,1.991-.4l1.669,1.668a2,2,0,0,0,2.828-2.828l-1.669-1.669a5.171,5.171,0,0,0,0-3.982l1.669-1.669a2,2,0,0,0-2.828-2.828l-1.669,1.669a5.171,5.171,0,0,0-3.984,0L101.313,35.5a2,2,0,0,0-2.828,2.828l1.669,1.669a5.171,5.171,0,0,0,0,3.982l-1.669,1.669a2,2,0,1,0,2.828,2.828l1.669-1.669A5.186,5.186,0,0,0,104.974,47.2Zm0-6.437a1.219,1.219,0,1,1-1.219,1.219A1.219,1.219,0,0,1,104.974,40.767Zm-22.5-5.685a2,2,0,0,0-2.828,0l-1.669,1.669a5.171,5.171,0,0,0-3.982,0l-1.669-1.669a2,2,0,0,0-2.828,2.828l1.669,1.669a5.171,5.171,0,0,0,0,3.984l-1.669,1.669a2,2,0,1,0,2.828,2.828L73.99,46.39a5.171,5.171,0,0,0,3.982,0l1.669,1.669a2,2,0,0,0,2.828-2.828L80.8,43.563a5.171,5.171,0,0,0,0-3.984L82.47,37.91A2,2,0,0,0,82.47,35.082Zm-6.488,7.707A1.218,1.218,0,1,1,77.2,41.57,1.22,1.22,0,0,1,75.981,42.789Zm21.191,7a2,2,0,0,0-2.828,0l-1.669,1.669a5.171,5.171,0,0,0-3.982,0l-1.669-1.669A2,2,0,0,0,84.2,52.613l1.669,1.669a5.171,5.171,0,0,0,0,3.984L84.2,59.935a2,2,0,1,0,2.828,2.828l1.669-1.669a5.171,5.171,0,0,0,3.982,0l1.669,1.669a2,2,0,0,0,2.828-2.828L95.5,58.266a5.17,5.17,0,0,0,0-3.983l1.669-1.669A2,2,0,0,0,97.173,49.785Zm-6.488,7.707A1.218,1.218,0,1,1,91.9,56.274,1.219,1.219,0,0,1,90.685,57.492Z" style="fill:url(#linear-gradient)"/></svg>