<svg id="Layer_1" data-name="Layer 1" xmlns="http://www.w3.org/2000/svg" xmlns:xlink="http://www.w3.org/1999/xlink" viewBox="0 0 128 128"><defs><linearGradient id="linear-gradient" x1="34.983" y1="36.093" x2="103.639" y2="104.749" gradientUnits="userSpaceOnUse"><stop offset="0" stop-color="#ffca6c"/><stop offset="1" stop-color="#ff654f"/></linearGradient></defs><title>SOFT DRINK</title><path d="M82.981,8.08a2,2,0,1,0-2.354-3.233L68.372,13.772a2,2,0,0,0-.745,1.063l-5.132,17.8H39.27a2,2,0,0,0-2,2v6.2H34.01a2,2,0,0,0-2,2V52.942a2,2,0,0,0,2,2h2.514l.865,10.585h0l1.26,15.411h0l3.333,40.76a2,2,0,0,0,1.993,1.837H84.023a2,2,0,0,0,1.993-1.837L87.2,107.262h0l1.144-13.991h0l3.134-38.328H93.99a2,2,0,0,0,2-2V42.834a2,2,0,0,0-2-2H90.73v-6.2a2,2,0,0,0-2-2H66.658L71.281,16.6Zm-40.429,71.5-.861-10.529,13.054,7.711c-.2.175-.386.361-.573.547-.023.023-.047.044-.07.067a13.934,13.934,0,0,0-1.682,2.038l-.035.054q-.334.5-.622,1.023c-.036.066-.072.132-.107.2q-.253.476-.468.97c-.032.073-.066.146-.1.22a13.908,13.908,0,0,0-.738,2.31ZM73.981,87.24a10.02,10.02,0,0,1-.085,1.238c-.015.118-.035.234-.054.35q-.073.457-.188.9c-.028.109-.052.219-.084.326a9.935,9.935,0,0,1-.393,1.1c-.037.087-.083.17-.123.256q-.189.409-.414.8-.109.189-.227.373c-.153.24-.317.472-.49.7-.069.09-.132.184-.2.272a9.963,9.963,0,0,1-.776.837c-.084.082-.174.158-.261.237-.237.214-.484.418-.743.61-.071.053-.141.108-.213.159a10.1,10.1,0,0,1-1.085.667,9.963,9.963,0,0,1-14.611-8.6v-.01c0-.067-.005-.136-.012-.231,0-.023,0-.045,0-.067a10.013,10.013,0,0,1,.083-1.172c.015-.119.035-.236.054-.354q.074-.457.19-.9c.028-.106.051-.214.082-.319a9.937,9.937,0,0,1,.394-1.1c.039-.091.087-.178.129-.268q.187-.4.408-.787.11-.189.227-.373c.154-.24.319-.473.493-.7.068-.088.129-.181.2-.267a9.973,9.973,0,0,1,.775-.835c.086-.083.176-.161.265-.241.235-.211.479-.414.736-.6.073-.054.143-.111.218-.163a10.106,10.106,0,0,1,1.078-.662,9.963,9.963,0,0,1,14.615,8.6v.01C73.97,87.092,73.975,87.164,73.981,87.24Zm8.2,32.3H45.82L42.952,84.463l7.141,4.219a13.98,13.98,0,0,0,19.356,11.434l13.659,8.068Zm1.291-15.785L73.254,97.717c.2-.173.381-.357.566-.54.026-.026.054-.05.079-.076a13.923,13.923,0,0,0,1.68-2.036l.034-.053q.334-.5.623-1.024c.036-.066.072-.132.107-.2q.253-.476.468-.97c.032-.074.066-.146.1-.221a13.917,13.917,0,0,0,.738-2.31l6.606,3.9Zm1.144-13.991L77.907,85.8A13.98,13.98,0,0,0,58.551,74.365L41.293,64.17l-.755-9.228H87.462ZM91.99,44.834v6.108H36.01V44.834H91.99Zm-5.26-8.2v4.2H41.27v-4.2H86.73Z" style="fill:url(#linear-gradient)"/></svg>