<svg id="Layer_1" data-name="Layer 1" xmlns="http://www.w3.org/2000/svg" xmlns:xlink="http://www.w3.org/1999/xlink" viewBox="0 0 128 128"><defs><linearGradient id="linear-gradient" x1="23.479" y1="23.479" x2="104.521" y2="104.521" gradientUnits="userSpaceOnUse"><stop offset="0" stop-color="#ffca6c"/><stop offset="1" stop-color="#ff654f"/></linearGradient></defs><title>SPEAKER</title><path d="M91.425,13.34H36.575a7.156,7.156,0,0,0-7.147,7.147v87.025a7.156,7.156,0,0,0,7.147,7.147H91.425a7.156,7.156,0,0,0,7.147-7.147V20.487A7.156,7.156,0,0,0,91.425,13.34Zm3.147,94.173a3.151,3.151,0,0,1-3.147,3.147H36.575a3.151,3.151,0,0,1-3.147-3.147V20.487a3.151,3.151,0,0,1,3.147-3.147H91.425a3.151,3.151,0,0,1,3.147,3.147ZM41.107,30.82a5.794,5.794,0,1,0-5.794-5.795A5.8,5.8,0,0,0,41.107,30.82Zm0-7.589a1.794,1.794,0,1,1-1.794,1.794A1.8,1.8,0,0,1,41.107,23.231Zm45.785-4a5.794,5.794,0,1,0,5.794,5.794A5.8,5.8,0,0,0,86.893,19.231Zm0,7.589a1.794,1.794,0,1,1,1.794-1.795A1.8,1.8,0,0,1,86.893,26.82ZM41.107,97.18a5.794,5.794,0,1,0,5.794,5.795A5.8,5.8,0,0,0,41.107,97.18Zm0,7.589a1.794,1.794,0,1,1,1.794-1.794A1.8,1.8,0,0,1,41.107,104.769ZM86.893,97.18a5.794,5.794,0,1,0,5.794,5.795A5.8,5.8,0,0,0,86.893,97.18Zm0,7.589a1.794,1.794,0,1,1,1.794-1.794A1.8,1.8,0,0,1,86.893,104.769ZM64,57.582a15.66,15.66,0,1,0-15.66-15.66A15.678,15.678,0,0,0,64,57.582Zm0-27.319A11.66,11.66,0,1,1,52.34,41.922,11.673,11.673,0,0,1,64,30.263ZM64,48.07a6.148,6.148,0,1,0-6.148-6.148A6.155,6.155,0,0,0,64,48.07Zm0-8.3a2.148,2.148,0,1,1-2.148,2.148A2.151,2.151,0,0,1,64,39.773Zm0,20.607A20.678,20.678,0,1,0,84.679,81.059,20.7,20.7,0,0,0,64,60.381Zm0,37.356A16.678,16.678,0,1,1,80.679,81.059,16.7,16.7,0,0,1,64,97.737ZM64,74.91a6.148,6.148,0,1,0,6.148,6.148A6.155,6.155,0,0,0,64,74.91Zm0,8.3a2.148,2.148,0,1,1,2.148-2.148A2.151,2.151,0,0,1,64,83.207Zm6.3,23.287a2,2,0,0,1-2,2H59.7a2,2,0,0,1,0-4h8.6A2,2,0,0,1,70.3,106.494ZM57.7,21.506a2,2,0,0,1,2-2h8.6a2,2,0,0,1,0,4H59.7A2,2,0,0,1,57.7,21.506Z" style="fill:url(#linear-gradient)"/></svg>