<svg id="Layer_1" data-name="Layer 1" xmlns="http://www.w3.org/2000/svg" xmlns:xlink="http://www.w3.org/1999/xlink" viewBox="0 0 128 128"><defs><linearGradient id="linear-gradient" x1="23.327" y1="31.781" x2="104.673" y2="113.127" gradientUnits="userSpaceOnUse"><stop offset="0" stop-color="#ffca6c"/><stop offset="1" stop-color="#ff654f"/></linearGradient></defs><title>SPOTLIGHT</title><path d="M64,88.432a14.9,14.9,0,1,0-14.9-14.9A14.917,14.917,0,0,0,64,88.432Zm0-25.8a10.9,10.9,0,1,1-10.9,10.9A10.912,10.912,0,0,1,64,62.631ZM88.476,96.544l24.152,7.149a2,2,0,0,0,2.567-1.918V45.287a2,2,0,0,0-2.567-1.918L88.476,50.518a3.881,3.881,0,0,0-1.463-1.464L91.991,32.24h0l1.391-4.7.78-2.634a2,2,0,0,0-1.918-2.568H70.979V14.393h4.358a2,2,0,0,0,2-2V5.274a2,2,0,0,0-2-2H52.663a2,2,0,0,0-2,2v7.119a2,2,0,0,0,2,2h4.358v7.943H35.756A2,2,0,0,0,33.838,24.9l7.149,24.151a3.871,3.871,0,0,0-1.463,1.464L15.373,43.369A2,2,0,0,0,12.8,45.287v56.488a2,2,0,0,0,2.568,1.918l24.151-7.149a3.866,3.866,0,0,0,1.463,1.463l-7.149,24.151a2,2,0,0,0,1.918,2.568H92.244a2,2,0,0,0,1.918-2.568l-2.171-7.334v0L87.012,98a3.817,3.817,0,0,0,1.464-1.459ZM107.86,48.952l3.335-.987V99.1l-3.335-.987Zm-18.913,5.6,14.913-4.415v46.79L88.947,92.512A233.061,233.061,0,0,1,88.947,54.551ZM20.14,98.11,16.8,99.1V47.965l3.335.987Zm18.913-5.6L24.14,96.926V50.136l14.913,4.415A232.732,232.732,0,0,1,39.052,92.512ZM54.663,10.393V7.274H73.337v3.119H54.663Zm12.315,4v7.943H61.021V14.393ZM38.434,26.336H89.566l-.987,3.335H39.421Zm51.133,94.39H38.434l.987-3.334H88.579ZM87.4,113.392H40.6L45.02,98.479a232.841,232.841,0,0,1,37.961,0ZM42.926,52.686a.205.205,0,0,1,.229-.229,236.833,236.833,0,0,0,41.691,0,.205.205,0,0,1,.229.229,236.645,236.645,0,0,0,0,41.691.2.2,0,0,1-.059.17.2.2,0,0,1-.17.059,236.739,236.739,0,0,0-41.691,0,.2.2,0,0,1-.17-.059.2.2,0,0,1-.059-.17A236.645,236.645,0,0,0,42.926,52.686Zm40.055-4.1a232.841,232.841,0,0,1-37.961,0L40.6,33.671H87.4Z" style="fill:url(#linear-gradient)"/></svg>