<svg id="Layer_1" data-name="Layer 1" xmlns="http://www.w3.org/2000/svg" xmlns:xlink="http://www.w3.org/1999/xlink" viewBox="0 0 128 128"><defs><linearGradient id="linear-gradient" x1="22.245" y1="22.245" x2="105.755" y2="105.755" gradientUnits="userSpaceOnUse"><stop offset="0" stop-color="#ffca6c"/><stop offset="1" stop-color="#ff654f"/></linearGradient></defs><title>SURROUND SOUND</title><path d="M44.791,79.8a31.793,31.793,0,0,1,17.333,5.352l20.4,13.563c.011.007.024.009.035.016a1.991,1.991,0,0,0,.436.2c.04.014.08.027.121.038a1.988,1.988,0,0,0,.5.075l9.021.086h.02a2,2,0,0,0,2-1.98l.628-65.72a2,2,0,0,0-1.98-2.02l-9.021-.086h-.02c-.012,0-.023,0-.035,0-.035,0-.068.008-.1.01a1.977,1.977,0,0,0-.382.063c-.043.011-.084.024-.125.039a1.986,1.986,0,0,0-.377.173c-.017.01-.037.014-.053.025L62.529,42.813A32.115,32.115,0,0,1,45.1,47.833a2.025,2.025,0,0,0-1.42.572,2,2,0,0,0-.6,1.408l-.017,1.758A11.595,11.595,0,0,0,33.036,62.958l-.014,1.491a11.628,11.628,0,0,0,9.8,11.575l-.017,1.759A2,2,0,0,0,44.791,79.8ZM85.946,64.573l.3-31.224,5.021.048-.59,61.721-5.021-.048Zm-39-.6.1-10.5v0l.016-1.673A35.833,35.833,0,0,0,64.68,46.187L82.228,35,81.94,65.174l-.27,28.17L64.339,81.822a35.834,35.834,0,0,0-17.51-5.944ZM39.2,69.9a7.569,7.569,0,0,1-2.18-5.409L37.036,63a7.626,7.626,0,0,1,5.986-7.372l-.156,16.348A7.563,7.563,0,0,1,39.2,69.9ZM25.962,88.537a1.993,1.993,0,0,1-1.486-.661C20.5,83.467,18.033,74.318,18.033,64S20.5,44.533,24.476,40.124A2,2,0,1,1,27.446,42.8c-3.237,3.593-5.413,12.111-5.413,21.2s2.176,17.605,5.413,21.2a2,2,0,0,1-1.484,3.339ZM16.33,33.806C11.938,39.049,9.1,50.9,9.1,64s2.839,24.951,7.231,30.194a2,2,0,1,1-3.066,2.568C8.228,90.752,5.1,78.2,5.1,64s3.129-26.752,8.165-32.763a2,2,0,0,1,3.066,2.568Zm87.194,6.318c3.974,4.409,6.442,13.558,6.442,23.876s-2.469,19.467-6.442,23.876a2,2,0,0,1-2.971-2.678c3.237-3.593,5.413-12.111,5.413-21.2s-2.176-17.605-5.413-21.2a2,2,0,0,1,2.971-2.678Zm11.212-8.887C119.772,37.248,122.9,49.8,122.9,64s-3.129,26.752-8.165,32.763a2,2,0,1,1-3.066-2.568C116.063,88.951,118.9,77.1,118.9,64s-2.839-24.951-7.231-30.194a2,2,0,1,1,3.066-2.568Z" style="fill:url(#linear-gradient)"/></svg>