<svg id="Layer_1" data-name="Layer 1" xmlns="http://www.w3.org/2000/svg" xmlns:xlink="http://www.w3.org/1999/xlink" viewBox="0 0 128 128"><defs><linearGradient id="linear-gradient" x1="13.361" y1="13.031" x2="114.639" y2="114.309" gradientUnits="userSpaceOnUse"><stop offset="0" stop-color="#ffca6c"/><stop offset="1" stop-color="#ff654f"/></linearGradient></defs><title>THEATER SEAT</title><path d="M115.57,14.79H12.43a2,2,0,0,0-2,2v63.4A16.039,16.039,0,0,0,5.61,91.63v14.1a2,2,0,0,0,2,2H120.39a2,2,0,0,0,2-2V91.63a16.038,16.038,0,0,0-4.82-11.442V16.79A2,2,0,0,0,115.57,14.79Zm-101.14,4h99.14V77.283c-.05-.025-.1-.045-.153-.07-.2-.1-.4-.184-.6-.273-.229-.1-.457-.2-.691-.3-.206-.08-.416-.15-.626-.222-.236-.081-.472-.162-.711-.232-.213-.062-.429-.114-.645-.168-.242-.06-.484-.119-.729-.167-.219-.044-.44-.078-.662-.112-.154-.024-.306-.059-.461-.078V75.54a16.113,16.113,0,0,0-16.1-16.09c-.494,0-.981.03-1.464.074-.126.011-.251.025-.376.039-.432.049-.86.113-1.281.2-.049.01-.1.016-.149.026-.462.1-.914.216-1.36.351-.116.035-.231.073-.346.111q-.567.185-1.115.409c-.073.03-.149.056-.221.088-.422.181-.833.381-1.236.6-.1.053-.2.11-.3.165q-.5.279-.972.591c-.081.054-.165.1-.245.159q-.561.384-1.086.813c-.08.065-.156.134-.235.2q-.43.365-.834.758c-.078.076-.157.15-.233.227q-.476.483-.911,1c-.057.068-.109.139-.164.208q-.36.446-.687.918c-.067.1-.134.191-.2.288-.239.36-.469.727-.679,1.107-.211-.381-.442-.749-.682-1.111-.063-.094-.128-.186-.192-.279q-.332-.478-.7-.93c-.053-.066-.1-.134-.158-.2q-.436-.523-.915-1.006c-.075-.076-.153-.148-.229-.223q-.406-.4-.839-.762c-.078-.066-.154-.134-.233-.2q-.526-.429-1.088-.814c-.08-.055-.162-.1-.243-.158q-.476-.313-.974-.592c-.1-.055-.2-.112-.3-.166-.4-.215-.814-.415-1.236-.6-.073-.031-.148-.058-.222-.088q-.548-.225-1.115-.409c-.115-.038-.23-.076-.347-.111-.447-.134-.9-.255-1.361-.35-.05-.01-.1-.016-.15-.026Q66.567,59.65,66,59.58V54.865a2,2,0,0,0-4,0V59.58q-.567.071-1.121.179c-.05.01-.1.016-.15.026-.462.1-.914.216-1.361.35-.117.035-.232.073-.347.111q-.567.185-1.115.409c-.074.03-.149.057-.222.088-.422.181-.834.381-1.236.6-.1.053-.2.11-.3.166q-.5.28-.974.592c-.081.053-.163.1-.243.158q-.562.384-1.088.814c-.079.064-.155.133-.233.2q-.433.366-.839.762c-.076.075-.154.147-.229.223q-.478.484-.915,1.006c-.054.065-.1.133-.158.2q-.365.452-.7.93c-.065.093-.13.184-.192.279-.24.362-.471.73-.682,1.111-.21-.38-.44-.746-.679-1.107-.065-.1-.132-.192-.2-.288q-.328-.471-.687-.918c-.056-.069-.108-.14-.164-.208q-.434-.521-.911-1c-.076-.077-.155-.151-.233-.227q-.4-.393-.834-.758c-.079-.067-.155-.135-.235-.2q-.525-.428-1.086-.812c-.08-.055-.164-.106-.245-.159q-.475-.312-.972-.591c-.1-.055-.2-.112-.3-.165-.4-.215-.814-.416-1.236-.6-.073-.031-.148-.057-.221-.088q-.548-.225-1.115-.409c-.115-.038-.23-.076-.346-.111-.446-.134-.9-.255-1.36-.351-.049-.01-.1-.016-.149-.026-.421-.083-.849-.147-1.281-.2-.125-.014-.25-.028-.376-.039-.483-.044-.97-.074-1.464-.074a16.113,16.113,0,0,0-16.1,16.09v.125c-.155.019-.307.054-.461.078-.221.034-.442.069-.662.112-.244.048-.486.107-.727.167-.217.054-.434.106-.648.168-.238.069-.471.15-.705.23-.212.073-.424.143-.633.224-.23.09-.454.191-.679.291-.205.091-.412.179-.613.279-.049.024-.1.044-.151.068Zm19.38,84.94H9.61V91.63a12.111,12.111,0,0,1,12.1-12.09,12.087,12.087,0,0,1,9.373,4.447A12.047,12.047,0,0,1,33.69,89.92a12.66,12.66,0,0,1,.12,1.709Zm2.847-21.224c-.074.107-.143.216-.214.324q-.266.406-.507.827c-.04.07-.087.135-.126.205-.039-.071-.087-.137-.127-.208q-.241-.421-.507-.826c-.07-.107-.139-.215-.212-.32-.249-.361-.508-.715-.787-1.056A16.331,16.331,0,0,0,33.033,80.2c-.13-.129-.27-.246-.4-.37-.278-.257-.558-.509-.852-.745-.166-.133-.338-.257-.508-.384-.278-.206-.56-.4-.85-.592-.184-.119-.371-.233-.56-.344-.3-.174-.6-.336-.9-.49-.191-.1-.38-.194-.575-.282-.33-.151-.668-.284-1.008-.411-.178-.067-.353-.141-.533-.2-.451-.151-.91-.28-1.374-.391-.075-.018-.146-.044-.221-.06q-.759-.17-1.536-.268V75.54a12.095,12.095,0,0,1,24.19,0v.124c-.518.064-1.031.155-1.537.268-.082.018-.161.047-.243.066-.458.11-.91.236-1.354.385-.181.061-.356.135-.535.2-.339.128-.676.26-1.006.411-.195.089-.384.186-.575.283-.305.154-.605.316-.9.49-.189.111-.375.225-.559.345-.289.187-.57.385-.847.591-.171.127-.343.251-.51.385-.292.235-.57.486-.846.742-.135.125-.274.242-.405.372a16.232,16.232,0,0,0-1.14,1.248C37.165,81.792,36.906,82.146,36.657,82.506ZM62,103.73H37.81V91.63a12.469,12.469,0,0,1,.12-1.708,12.1,12.1,0,0,1,23.949,0A12.468,12.468,0,0,1,62,91.63ZM64.849,82.5c-.076.11-.147.222-.22.333q-.262.4-.5.815c-.041.072-.089.139-.129.211-.038-.069-.085-.134-.124-.2q-.242-.423-.509-.83c-.07-.107-.139-.214-.211-.32-.249-.36-.507-.714-.786-1.054a16.252,16.252,0,0,0-1.141-1.25c-.129-.128-.268-.244-.4-.368-.278-.258-.559-.511-.853-.748-.165-.133-.335-.256-.5-.381-.28-.207-.563-.408-.854-.6-.183-.118-.367-.231-.554-.341-.3-.175-.6-.339-.908-.494-.189-.1-.377-.192-.57-.28-.333-.152-.672-.286-1.015-.414-.176-.066-.349-.139-.527-.2-.45-.151-.909-.279-1.373-.39-.076-.018-.15-.045-.226-.062-.508-.114-1.022-.2-1.542-.269V75.54a12.1,12.1,0,0,1,24.2,0v.123c-.52.064-1.035.155-1.542.269-.078.017-.152.044-.229.063-.463.111-.921.239-1.37.39-.178.06-.35.133-.526.2-.343.129-.683.263-1.016.415-.193.088-.38.184-.57.28-.308.155-.61.318-.907.493-.187.11-.372.223-.555.341-.291.188-.575.388-.854.6-.169.126-.34.249-.5.381-.294.236-.574.489-.852.747-.133.124-.271.239-.4.368a16.222,16.222,0,0,0-1.141,1.249C65.355,81.791,65.1,82.144,64.849,82.5ZM90.19,103.73H66V91.63a12.469,12.469,0,0,1,.12-1.708,12.1,12.1,0,0,1,23.949,0,12.468,12.468,0,0,1,.121,1.712ZM93.038,82.5c-.075.108-.145.218-.217.328q-.266.406-.506.826c-.04.069-.087.134-.125.2-.039-.071-.087-.137-.127-.208q-.239-.418-.5-.822c-.071-.109-.141-.219-.216-.326-.248-.359-.507-.712-.785-1.052a16.271,16.271,0,0,0-1.141-1.249c-.13-.13-.27-.246-.4-.371-.277-.257-.556-.509-.848-.744-.166-.134-.338-.258-.508-.384-.278-.206-.559-.405-.849-.592-.184-.119-.37-.233-.558-.344-.3-.174-.6-.336-.9-.491-.191-.1-.38-.194-.575-.283-.33-.151-.667-.284-1.006-.411-.178-.067-.353-.141-.534-.2-.446-.15-.9-.276-1.359-.387-.08-.019-.158-.047-.238-.065q-.759-.17-1.537-.268V75.54a12.095,12.095,0,0,1,24.19,0v.124q-.777.1-1.536.268c-.075.017-.146.043-.221.06-.465.111-.924.24-1.375.391-.18.06-.354.134-.531.2-.34.128-.678.261-1.009.412-.194.089-.384.186-.575.282-.306.154-.607.317-.9.491-.189.111-.375.225-.559.344-.29.187-.572.386-.851.592-.171.127-.343.25-.509.384-.293.235-.573.487-.851.744-.134.125-.274.241-.4.371a16.328,16.328,0,0,0-1.144,1.248C93.545,81.792,93.286,82.145,93.038,82.5ZM118.39,91.63v12.1H94.19V91.63a12.6,12.6,0,0,1,.12-1.708,12.108,12.108,0,0,1,10.627-10.307,12.1,12.1,0,0,1,9.319,2.922A12.056,12.056,0,0,1,118.39,91.63Zm-60.526-40.2a2,2,0,0,0,2.046-.087l11.8-7.729a2,2,0,0,0,0-3.346l-11.8-7.729a2,2,0,0,0-3.1,1.673V49.674A2,2,0,0,0,57.864,51.434Zm2.951-13.517,6.149,4.028-6.149,4.028ZM62,29.026V23.864a2,2,0,0,1,4,0v5.162a2,2,0,1,1-4,0ZM43.918,41.945a2,2,0,0,1,2-2H51.08a2,2,0,1,1,0,4H45.918A2,2,0,0,1,43.918,41.945Zm31,0a2,2,0,0,1,2-2h5.162a2,2,0,0,1,0,4H76.92A2,2,0,0,1,74.92,41.945Z" style="fill:url(#linear-gradient)"/></svg>