<svg id="Layer_1" data-name="Layer 1" xmlns="http://www.w3.org/2000/svg" xmlns:xlink="http://www.w3.org/1999/xlink" viewBox="0 0 128 128"><defs><linearGradient id="linear-gradient" x1="13.198" y1="21.617" x2="114.802" y2="123.22" gradientUnits="userSpaceOnUse"><stop offset="0" stop-color="#ffca6c"/><stop offset="1" stop-color="#ff654f"/></linearGradient></defs><title>THEATER</title><path d="M6.063,106.2v9.053a2,2,0,0,0,2,2H119.938a2,2,0,0,0,2-2V106.2a2,2,0,0,0-2-2h-6.116V43.667a2,2,0,0,0-2-2H92.446V36.028a93.562,93.562,0,0,1,9.082,3.382,2,2,0,0,0,2.63-1.041L111.892,20.5a2,2,0,0,0-1.041-2.63,118.4,118.4,0,0,0-93.7,0,2,2,0,0,0-1.041,2.63l7.734,17.873a2,2,0,0,0,2.63,1.041,93.562,93.562,0,0,1,9.082-3.382v5.638H16.178a2,2,0,0,0-2,2V104.2H8.063A2,2,0,0,0,6.063,106.2ZM26.727,34.964l-6.147-14.2a114.432,114.432,0,0,1,86.84,0l-6.147,14.2a97.712,97.712,0,0,0-10.2-3.515c-.028-.009-.05-.029-.079-.037-.29-.083-.6-.158-.89-.238-.178-.049-.355-.1-.533-.143-1.418-.38-2.869-.745-4.362-1.074-.032-.007-.065,0-.1-.01a99.077,99.077,0,0,0-42.225,0c-.033.005-.065,0-.1.01-1.493.329-2.943.694-4.362,1.074-.178.048-.356.094-.533.143-.294.081-.6.156-.89.238-.029.008-.051.028-.079.037A97.712,97.712,0,0,0,26.727,34.964Zm61.719-.091v6.794H86.779V34.446Q87.614,34.652,88.446,34.873Zm-5.667-1.328v8.122H45.221V33.545A95.155,95.155,0,0,1,82.779,33.545Zm-41.559.9v7.221H39.554V34.873Q40.385,34.651,41.221,34.446ZM18.178,45.667h91.644V104.2H89.613V69.124H97.53a2,2,0,0,0,2-2V58.07a2,2,0,0,0-2-2H30.47a2,2,0,0,0-2,2v9.054a2,2,0,0,0,2,2h7.917V104.2H18.178ZM40.387,65.124H32.47V60.07H95.53v5.054H40.387Zm45.226,4V104.2H66V69.124ZM62,69.124V104.2H42.387V69.124ZM10.063,108.2H117.938v5.053H10.063ZM69.2,90.479V83.646a2,2,0,0,1,4,0v6.833a2,2,0,0,1-4,0Zm-14.4,0V83.646a2,2,0,0,1,4,0v6.833a2,2,0,0,1-4,0ZM35.257,21.648q-1.4.458-2.789.963l2.312,6.362q-1.056.384-2.1.8l-2.482-6.3q-1.384.546-2.755,1.139l-.77-1.78q3.938-1.7,7.986-3.026Zm4.49,5.693-2.458-8.355q1.184-.348,2.375-.665l.846,3.186q1.887-.5,3.79-.918l-.706-3.22q1.2-.263,2.406-.494l1.638,8.553q-1.092.209-2.18.447l-.744-3.393q-1.861.408-3.708.9l.891,3.357Q40.82,27.026,39.747,27.341Zm10.808-2.417-1.334-8.606q3.832-.594,7.694-.865l.136,1.935q-2.584.181-5.158.51l.172,1.346q2.3-.295,4.613-.469l.146,1.934q-2.261.17-4.513.459l.195,1.521q2.436-.312,4.883-.483l.136,1.935Q54.029,24.386,50.555,24.924Zm11.871-2.25q1.787-.02,3.575.035.243.642.479,1.284,1.242.046,2.483.129Q67.5,19.66,65.658,15.255q-1.372-.034-2.744-.027-1.922,4.364-3.476,8.8,1.242-.059,2.485-.08Q62.17,23.311,62.426,22.674Zm1.83-4.374q.56,1.343,1.087,2.692-1.113-.025-2.225-.022Q63.669,19.631,64.256,18.3Zm9.021-.591q-1.456-.16-2.915-.273l.15-1.934q4.193.324,8.355,1.03l-.325,1.912Q77.1,18.2,75.656,18l-.918,6.707q-1.1-.15-2.2-.271ZM86.7,27.246q-3.4-.985-6.849-1.676l1.712-8.539q3.809.764,7.562,1.85l-.54,1.863q-2.511-.728-5.051-1.307l-.3,1.323q2.272.519,4.521,1.157l-.53,1.866q-2.2-.625-4.422-1.132l-.341,1.5q2.4.549,4.781,1.238Zm5.6-1.059q.537.191,1.072.388.489,1.634.911,3.268,1.188.472,2.365.981-.413-1.809-.907-3.62a2.956,2.956,0,0,0,2.918-1.739c.705-1.612-.281-3.389-2.342-4.175q-2.165-.826-4.361-1.539l-2.691,8.283q1.065.346,2.124.722Zm1.339-3.775q.883.313,1.76.645c.785.3,1.192.9.966,1.461s-.919.725-1.684.435q-.858-.325-1.721-.631Z" style="fill:url(#linear-gradient)"/></svg>