<svg id="Layer_1" data-name="Layer 1" xmlns="http://www.w3.org/2000/svg" xmlns:xlink="http://www.w3.org/1999/xlink" viewBox="0 0 128 128"><defs><linearGradient id="linear-gradient" x1="24.797" y1="24.797" x2="103.203" y2="103.203" gradientUnits="userSpaceOnUse"><stop offset="0" stop-color="#ffca6c"/><stop offset="1" stop-color="#ff654f"/></linearGradient></defs><title>TICKET</title><path d="M107.531,98.047a13.015,13.015,0,0,1,13-13,2,2,0,0,0,2-2V44.953a2,2,0,0,0-2-2,13.015,13.015,0,0,1-13-13,2,2,0,0,0-2-2H22.469a2,2,0,0,0-2,2,13.015,13.015,0,0,1-13,13,2,2,0,0,0-2,2V83.047a2,2,0,0,0,2,2,13.015,13.015,0,0,1,13,13,2,2,0,0,0,2,2h83.063A2,2,0,0,0,107.531,98.047Zm-83.18-2A17.032,17.032,0,0,0,9.469,81.164V46.836A17.032,17.032,0,0,0,24.352,31.953h79.3a17.032,17.032,0,0,0,14.883,14.883V81.164a17.032,17.032,0,0,0-14.883,14.883ZM102.193,41.5H25.807a2,2,0,0,0-2,2v41a2,2,0,0,0,2,2h76.387a2,2,0,0,0,2-2v-41A2,2,0,0,0,102.193,41.5Zm-44.837,41H27.807v-37h29.55Zm42.837,0H61.356v-37h38.837ZM36.657,68.075a2,2,0,0,0,2.032-.059l12.277-7.729a2,2,0,0,0,0-3.385L38.689,49.173a2,2,0,0,0-3.065,1.692V66.324A2,2,0,0,0,36.657,68.075Zm2.967-13.586,6.523,4.106L39.624,62.7Zm27-.3a2,2,0,0,1,2-2h24.95a2,2,0,0,1,0,4H68.627A2,2,0,0,1,66.627,54.184Zm0,9.816a2,2,0,0,1,2-2h24.95a2,2,0,0,1,0,4H68.627A2,2,0,0,1,66.627,64Zm0,9.816a2,2,0,0,1,2-2h8.862a2,2,0,0,1,0,4H68.627A2,2,0,0,1,66.627,73.816Zm-31,0a2,2,0,0,1,2-2h8.861a2,2,0,0,1,0,4H37.624A2,2,0,0,1,35.624,73.816Z" style="fill:url(#linear-gradient)"/></svg>