<svg id="Layer_1" data-name="Layer 1" xmlns="http://www.w3.org/2000/svg" xmlns:xlink="http://www.w3.org/1999/xlink" viewBox="0 0 128 128"><defs><linearGradient id="linear-gradient" x1="21.023" y1="34.485" x2="106.977" y2="120.439" gradientUnits="userSpaceOnUse"><stop offset="0" stop-color="#ffca6c"/><stop offset="1" stop-color="#ff654f"/></linearGradient></defs><title>TICKET WINDOW</title><path d="M104.755,51.735a2,2,0,0,0,2-2V39.55a2,2,0,0,0-2-2H99.21a35.443,35.443,0,0,0-70.419,0H23.245a2,2,0,0,0-2,2V49.735a2,2,0,0,0,2,2h5.3v55.912h-5.3a2,2,0,0,0-2,2v10.185a2,2,0,0,0,2,2h81.51a2,2,0,0,0,2-2V109.647a2,2,0,0,0-2-2h-5.3V51.735ZM64,10.167A31.486,31.486,0,0,1,95.184,37.55h-13.5a18.306,18.306,0,0,0-35.367,0h-13.5A31.486,31.486,0,0,1,64,10.167ZM77.5,37.55H50.5a14.311,14.311,0,0,1,27.008,0Zm25.251,74.1v6.185H25.245v-6.185h77.51ZM64,65.194a8.88,8.88,0,0,0-8.87,8.87v4.871H49.675v-27.2h28.65v27.2H72.87V74.064A8.88,8.88,0,0,0,64,65.194Zm4.87,8.87v4.871H59.13V74.064a4.87,4.87,0,0,1,9.74,0ZM57.13,82.935H84.916v2.489H43.084V82.935H57.13Zm-11.455-4H41.084a2,2,0,0,0-2,2v6.489a2,2,0,0,0,2,2H86.916a2,2,0,0,0,2-2V80.935a2,2,0,0,0-2-2H82.325v-27.2H95.451v55.912h-62.9V51.735H45.675Zm51.776-31.2H25.245V41.55h77.51v6.185ZM43.5,94.872a2,2,0,0,1,2-2h7.007a2,2,0,1,1,0,4H45.5A2,2,0,0,1,43.5,94.872Zm15,0a2,2,0,0,1,2-2H67.5a2,2,0,0,1,0,4H60.5A2,2,0,0,1,58.5,94.872Zm15,0a2,2,0,0,1,2-2H82.5a2,2,0,0,1,0,4H75.493A2,2,0,0,1,73.493,94.872Z" style="fill:url(#linear-gradient)"/></svg>