<svg id="Layer_1" data-name="Layer 1" xmlns="http://www.w3.org/2000/svg" xmlns:xlink="http://www.w3.org/1999/xlink" viewBox="0 0 128 128"><defs><linearGradient id="linear-gradient" x1="16.272" y1="16.272" x2="111.728" y2="111.728" gradientUnits="userSpaceOnUse"><stop offset="0" stop-color="#ffca6c"/><stop offset="1" stop-color="#ff654f"/></linearGradient></defs><title>VHS</title><path d="M119.706,25.079H8.294a2,2,0,0,0-2,2v73.842a2,2,0,0,0,2,2H119.706a2,2,0,0,0,2-2V27.079A2,2,0,0,0,119.706,25.079ZM41.55,98.921a4.732,4.732,0,0,1,4.488-3.248H81.962a4.732,4.732,0,0,1,4.488,3.248Zm76.156,0H90.552a8.732,8.732,0,0,0-8.59-7.248H46.038a8.732,8.732,0,0,0-8.59,7.248H10.294V51.705A12.357,12.357,0,0,0,20.465,41.543h87.07a12.357,12.357,0,0,0,10.171,10.162Zm0-51.287a8.348,8.348,0,0,1-6.333-8.091,2,2,0,0,0-2-2H18.627a2,2,0,0,0-2,2,8.348,8.348,0,0,1-6.333,8.091V29.079H117.706ZM89.2,47.871H38.06a18.951,18.951,0,0,0,0,37.9H89.2a18.951,18.951,0,0,0,0-37.9ZM36.06,70.941a4.571,4.571,0,0,1,0-8.229Zm0-12.443a8.562,8.562,0,0,0,0,16.658V81.64A14.953,14.953,0,0,1,36.06,52Zm32.7,23.274H58.5v-9.62H68.763ZM87.2,60.254V81.772H72.763v-9.62h8.313a2,2,0,0,0,0-4H46.183a2,2,0,0,0,0,4H54.5v9.62H40.06v-29.9H87.2Zm4,2.461a4.576,4.576,0,0,1,0,8.224Zm0,18.925V75.156a8.564,8.564,0,0,0,0-16.656V52a14.953,14.953,0,0,1,0,29.636ZM51.012,59.214a2,2,0,0,1,2-2H74.246a2,2,0,0,1,0,4H53.012A2,2,0,0,1,51.012,59.214Z" style="fill:url(#linear-gradient)"/></svg>