<svg id="Layer_1" data-name="Layer 1" xmlns="http://www.w3.org/2000/svg" xmlns:xlink="http://www.w3.org/1999/xlink" viewBox="0 0 128 128"><defs><linearGradient id="linear-gradient" x1="9.73" y1="17.743" x2="103.059" y2="111.072" gradientUnits="userSpaceOnUse"><stop offset="0" stop-color="#ffca6c"/><stop offset="1" stop-color="#ff654f"/></linearGradient></defs><title>VIDEO CAMERA</title><path d="M79.534,78.783H58.5a2.992,2.992,0,0,0-2.988,2.988V89.2A2.992,2.992,0,0,0,58.5,92.185H79.534A2.992,2.992,0,0,0,82.522,89.2V81.771A2.992,2.992,0,0,0,79.534,78.783Zm-1.012,9.4H59.51v-5.4H78.522ZM18.57,47.341a6.276,6.276,0,0,0-4.588,6.035V92.481a6.277,6.277,0,0,0,6.271,6.27H47.29L29.556,118.892a2,2,0,0,0,3,2.644l17.158-19.486v18.165a2,2,0,0,0,4,0V102.049l17.158,19.486a2,2,0,0,0,3-2.644L56.142,98.751H83.181a6.277,6.277,0,0,0,6.271-6.27V84.568l19.716,10.107h0l3.884,1.991a4.5,4.5,0,0,0,2.055.5,4.442,4.442,0,0,0,1.426-.246,4.542,4.542,0,0,0,.916-.419,4.467,4.467,0,0,0,2.152-3.838V53.193a4.5,4.5,0,0,0-6.55-4l-3.884,1.991h0L89.451,61.288V53.375a6.276,6.276,0,0,0-4.589-6.035A22.652,22.652,0,1,0,51.716,19.156,22.653,22.653,0,1,0,18.57,47.341Zm93.51,6.842,2.8-1.433a.5.5,0,0,1,.726.443v39.47a.478.478,0,0,1-.238.425.546.546,0,0,1-.173.065c-.012,0-.022.007-.035.008h-.006a.487.487,0,0,1-.274-.055l-2.8-1.433Zm-22.629,11.6,18.629-9.549v33.39L89.451,80.073Zm-4-12.407V92.481a2.273,2.273,0,0,1-2.271,2.27H20.252a2.273,2.273,0,0,1-2.271-2.27V53.375A2.273,2.273,0,0,1,20.252,51.1H83.181A2.273,2.273,0,0,1,85.451,53.375ZM72.375,9.787A18.659,18.659,0,1,1,53.716,28.446,18.68,18.68,0,0,1,72.375,9.787ZM59.539,47.1H43.892a22.8,22.8,0,0,0,7.824-9.37A22.8,22.8,0,0,0,59.539,47.1ZM31.057,9.787A18.659,18.659,0,1,1,12.4,28.446,18.68,18.68,0,0,1,31.057,9.787ZM72.375,34.415a5.969,5.969,0,1,0-5.969-5.969A5.976,5.976,0,0,0,72.375,34.415Zm0-7.938a1.969,1.969,0,1,1-1.969,1.969A1.972,1.972,0,0,1,72.375,26.477ZM31.057,34.415a5.969,5.969,0,1,0-5.969-5.969A5.976,5.976,0,0,0,31.057,34.415Zm0-7.938a1.969,1.969,0,1,1-1.969,1.969A1.972,1.972,0,0,1,31.057,26.477ZM77.092,53.625a5.431,5.431,0,1,0,5.431,5.431A5.437,5.437,0,0,0,77.092,53.625Zm0,6.861a1.431,1.431,0,1,1,1.431-1.431A1.432,1.432,0,0,1,77.092,60.487Zm-43.2,29.7a2,2,0,0,1-2,2H23.66a2,2,0,0,1,0-4h8.23A2,2,0,0,1,33.891,90.185Z" style="fill:url(#linear-gradient)"/></svg>