<svg id="Layer_1" data-name="Layer 1" xmlns="http://www.w3.org/2000/svg" xmlns:xlink="http://www.w3.org/1999/xlink" viewBox="0 0 128 128"><defs><linearGradient id="linear-gradient" x1="14.617" y1="14.617" x2="113.383" y2="113.383" gradientUnits="userSpaceOnUse"><stop offset="0" stop-color="#ffca6c"/><stop offset="1" stop-color="#ff654f"/></linearGradient></defs><title>VIDEO PLAYER</title><path d="M88.009,21.775H8.287a2,2,0,0,0-2,2v80.45a2,2,0,0,0,2,2H119.713a2,2,0,0,0,2-2V23.775a2,2,0,0,0-2-2h-31.7Zm2,4h9.474v12.16H90.009Zm-17.272,0H86.009v12.16H72.737Zm-13.474,0h9.474v12.16H59.263Zm-17.272,0H55.263v12.16H41.991Zm-13.474,0h9.474v12.16H28.518Zm-18.231,0H24.518v12.16H10.287Zm14.231,76.45H10.287V90.065H24.518Zm13.474,0H28.518V90.065h9.474Zm17.272,0H41.991V90.065H55.263ZM39.991,86.065h-29.7V41.935H62V46.1A18.042,18.042,0,0,0,46.1,62H41.583a2,2,0,0,0,0,4H46.1A18.042,18.042,0,0,0,62,81.9v4.166H39.991ZM64,49.983A14.017,14.017,0,1,1,49.983,64,14.033,14.033,0,0,1,64,49.983Zm4.737,52.242H59.263V90.065h9.474Zm17.272,0H72.737V90.065H86.009Zm13.474,0H90.009V90.065h9.474Zm18.231,0H103.482V90.065h14.231Zm0-16.16H66V81.9A18.042,18.042,0,0,0,81.9,66h4.518a2,2,0,0,0,0-4H81.9A18.042,18.042,0,0,0,66,46.1V41.935h51.713ZM103.482,25.775h14.231v12.16H103.482ZM57.23,73.451a2,2,0,0,0,1.983.029l14-7.729a2,2,0,0,0,0-3.5l-14-7.729a2,2,0,0,0-2.967,1.751V71.729A2,2,0,0,0,57.23,73.451ZM60.247,59.66,68.109,64l-7.862,4.34Z" style="fill:url(#linear-gradient)"/></svg>