<svg id="Layer_1" data-name="Layer 1" xmlns="http://www.w3.org/2000/svg" xmlns:xlink="http://www.w3.org/1999/xlink" viewBox="0 0 128 128"><defs><linearGradient id="linear-gradient" x1="17.365" y1="22.365" x2="110.635" y2="115.635" gradientUnits="userSpaceOnUse"><stop offset="0" stop-color="#ffca6c"/><stop offset="1" stop-color="#ff654f"/></linearGradient></defs><title>VOLUME ADJUSTMENT</title><path d="M9.379,35.6V102.4a12.7,12.7,0,0,0,12.686,12.685h83.871A12.7,12.7,0,0,0,118.621,102.4V35.6a12.7,12.7,0,0,0-12.686-12.685H22.064A12.7,12.7,0,0,0,9.379,35.6Zm4,0a8.7,8.7,0,0,1,8.686-8.685h83.871a8.7,8.7,0,0,1,8.686,8.685V102.4a8.7,8.7,0,0,1-8.686,8.685H22.064a8.7,8.7,0,0,1-8.686-8.685Zm13.09,35.625V90.985a5.942,5.942,0,1,0,11.885,0V71.221a9.392,9.392,0,0,0,0-14.585V37.015a5.954,5.954,0,0,0-5.948-5.948,5.949,5.949,0,0,0-5.937,5.948V56.636a9.391,9.391,0,0,0,0,14.585Zm7.885,19.764a1.942,1.942,0,1,1-3.885,0V73.142c.134.028.271.041.406.064.119.02.237.041.357.056a9.416,9.416,0,0,0,1.089.077c.029,0,.057.006.086.006s.036,0,.054,0a9.43,9.43,0,0,0,1.128-.08c.12-.015.239-.037.358-.057.136-.023.274-.036.408-.065ZM30.469,37.015a1.944,1.944,0,0,1,1.937-1.948,1.917,1.917,0,0,1,1.387.583,1.9,1.9,0,0,1,.562,1.365v17.7a9.367,9.367,0,0,0-3.885,0Zm-.928,22.333a5.4,5.4,0,0,1,5.6-.077c.052.031.105.053.156.085a5.417,5.417,0,1,1-5.753-.008ZM58.052,80.474V90.985a5.948,5.948,0,0,0,11.9,0V80.473a9.392,9.392,0,0,0,0-14.585V37.015A5.954,5.954,0,0,0,64,31.067a5.954,5.954,0,0,0-5.948,5.948V65.888a9.392,9.392,0,0,0,0,14.585Zm7.9,10.512a1.948,1.948,0,0,1-3.9,0V82.393c.136.029.276.042.413.065.117.02.234.04.352.055a9.473,9.473,0,0,0,1.119.079c.022,0,.043,0,.064,0s.043,0,.064,0a9.461,9.461,0,0,0,1.117-.079c.12-.015.237-.036.356-.056.137-.023.275-.036.41-.065Zm-3.9-53.971a1.946,1.946,0,0,1,3.335-1.365,1.9,1.9,0,0,1,.562,1.365V63.969a9.4,9.4,0,0,0-3.9,0ZM61.123,68.6a5.388,5.388,0,0,1,5.581-.093c.061.036.124.062.185.1a5.422,5.422,0,1,1-5.766-.007Zm28.523-7.547V90.985a5.942,5.942,0,1,0,11.885,0V61.053a9.391,9.391,0,0,0,0-14.586V37.015a5.952,5.952,0,0,0-5.937-5.948,5.954,5.954,0,0,0-5.948,5.948v9.454a9.392,9.392,0,0,0,0,14.585Zm7.885,29.932a1.942,1.942,0,1,1-3.885,0V62.973c.138.029.279.043.418.066.115.019.228.039.343.054a9.421,9.421,0,0,0,1.149.081l.038,0c.025,0,.05-.005.076-.005a9.417,9.417,0,0,0,1.1-.078c.122-.015.241-.037.362-.057s.269-.035.4-.063ZM93.646,37.015a1.95,1.95,0,0,1,1.948-1.948,1.951,1.951,0,0,1,1.937,1.948v7.533a9.416,9.416,0,0,0-3.885,0ZM92.718,49.18a5.4,5.4,0,0,1,5.46-.152c.1.054.2.1.295.159a5.416,5.416,0,1,1-5.755-.008ZM39.453,103.457a2,2,0,0,1-2,2H26.939a2,2,0,1,1,0-4H37.453A2,2,0,0,1,39.453,103.457Zm6,0a2,2,0,0,1,2-2h5.257a2,2,0,0,1,0,4H47.458A2,2,0,0,1,45.458,103.457Z" style="fill:url(#linear-gradient)"/></svg>