<svg id="Layer_1" height="512" viewBox="0 0 64 64" width="512" xmlns="http://www.w3.org/2000/svg"><path d="m46 38h-2v-9c0-.33-.17-.65-.45-.83l-5.55-3.7v-1.46c0-.55-.45-1-1-1h-1v-3c0-.55-.45-1-1-1h-6c-.55 0-1 .45-1 1v3h-1c-.55 0-1 .45-1 1v3h-2v-1h-2v1h-1c-.55 0-1 .45-1 1v11h-2v2h28v-2zm-20 0h-1v-1h-2v1h-1v-10h4zm4-18h4v2h-4zm6 18h-3v-3h-2v3h-3v-14h8zm6 0h-1v-1h-2v1h-1v-11.13l4 2.67z"/><path d="m29 25h2v2h-2z"/><path d="m33 25h2v2h-2z"/><path d="m29 28h2v2h-2z"/><path d="m33 28h2v2h-2z"/><path d="m14 20c4.41 0 8-3.59 8-8s-3.59-8-8-8-8 3.59-8 8 3.59 8 8 8zm0-2c-1.41 0-2.71-.49-3.73-1.31.94-1.06 2.28-1.69 3.73-1.69s2.8.62 3.73 1.69c-1.03.82-2.32 1.31-3.73 1.31zm0-12c3.31 0 6 2.69 6 6 0 1.17-.34 2.27-.93 3.19-1.31-1.39-3.12-2.19-5.07-2.19s-3.76.81-5.07 2.19c-.59-.93-.93-2.02-.93-3.19 0-3.31 2.69-6 6-6z"/><path d="m13.95 13c1.65 0 3-1.35 3-3s-1.35-3-3-3-3 1.35-3 3 1.35 3 3 3zm0-4c.55 0 1 .45 1 1s-.45 1-1 1-1-.45-1-1 .45-1 1-1z"/><path d="m58 12c0-4.41-3.59-8-8-8s-8 3.59-8 8 3.59 8 8 8 8-3.59 8-8zm-14 0c0-3.31 2.69-6 6-6s6 2.69 6 6c0 1.17-.34 2.27-.93 3.19-1.31-1.39-3.12-2.19-5.07-2.19s-3.76.81-5.07 2.19c-.59-.93-.93-2.02-.93-3.19zm6 3c1.45 0 2.8.62 3.73 1.69-1.03.82-2.32 1.31-3.73 1.31s-2.71-.49-3.73-1.31c.94-1.06 2.28-1.69 3.73-1.69z"/><path d="m52.95 10c0-1.65-1.35-3-3-3s-3 1.35-3 3 1.35 3 3 3 3-1.35 3-3zm-3 1c-.55 0-1-.45-1-1s.45-1 1-1 1 .45 1 1-.45 1-1 1z"/><path d="m6 52c0 4.41 3.59 8 8 8s8-3.59 8-8-3.59-8-8-8-8 3.59-8 8zm8 6c-1.41 0-2.71-.49-3.73-1.31.94-1.06 2.28-1.69 3.73-1.69s2.8.62 3.73 1.69c-1.03.82-2.32 1.31-3.73 1.31zm6-6c0 1.17-.34 2.27-.93 3.19-1.31-1.39-3.12-2.19-5.07-2.19s-3.76.81-5.07 2.19c-.59-.93-.93-2.02-.93-3.19 0-3.31 2.69-6 6-6s6 2.69 6 6z"/><path d="m10.95 50c0 1.65 1.35 3 3 3s3-1.35 3-3-1.35-3-3-3-3 1.35-3 3zm4 0c0 .55-.45 1-1 1s-1-.45-1-1 .45-1 1-1 1 .45 1 1z"/><path d="m50 44c-4.41 0-8 3.59-8 8s3.59 8 8 8 8-3.59 8-8-3.59-8-8-8zm0 14c-1.41 0-2.71-.49-3.73-1.31.94-1.06 2.28-1.69 3.73-1.69s2.8.62 3.73 1.69c-1.03.82-2.32 1.31-3.73 1.31zm5.07-2.81c-1.31-1.39-3.12-2.19-5.07-2.19s-3.76.81-5.07 2.19c-.59-.93-.93-2.02-.93-3.19 0-3.31 2.69-6 6-6s6 2.69 6 6c0 1.17-.34 2.27-.93 3.19z"/><path d="m49.95 47c-1.65 0-3 1.35-3 3s1.35 3 3 3 3-1.35 3-3-1.35-3-3-3zm0 4c-.55 0-1-.45-1-1s.45-1 1-1 1 .45 1 1-.45 1-1 1z"/><path d="m22.85 56.33-.71 1.87c3.14 1.19 6.46 1.79 9.86 1.79s6.73-.6 9.86-1.79l-.71-1.87c-5.82 2.21-12.49 2.21-18.31 0z"/><path d="m8.76 43.66c-1.83-3.63-2.76-7.55-2.76-11.66s.93-8.03 2.76-11.66l-1.79-.9c-1.98 3.91-2.98 8.13-2.98 12.56s1 8.65 2.98 12.56z"/><path d="m55.24 20.34c1.83 3.63 2.76 7.55 2.76 11.66s-.93 8.03-2.76 11.66l1.79.9c1.98-3.91 2.98-8.13 2.98-12.56s-1-8.65-2.98-12.56z"/><path d="m41.15 7.67.71-1.87c-6.27-2.38-13.46-2.38-19.73 0l.71 1.87c5.82-2.21 12.49-2.21 18.31 0z"/></svg>